<svg xmlns="http://www.w3.org/2000/svg" xmlns:xlink="http://www.w3.org/1999/xlink" version="1.1" x="0px" y="0px" viewBox="0 0 100 100" style="enable-background:new 0 0 100 100;" xml:space="preserve">
<path fill="#979797" d="M91.9,13.1h-84c-1.7,0-3,1.3-3,3v54c0,1.7,1.3,3,3,3h84c1.7,0,3-1.3,3-3v-54C94.9,14.4,93.6,13.1,91.9,13.1z M90.4,61  c0,1.7-1.3,3-3,3h-75c-1.7,0-3-1.3-3-3V20.6c0-1.7,1.3-3,3-3h27h21h27c1.7,0,3,1.3,3,3V61z"/>
<path fill="#979797" d="M64.8,85c-2.8,0-5-2.2-5-5v-4.6H40V80c0,2.8-2.2,5-5,5v1.9h14.9h14.9h0L64.8,85L64.8,85z"/>
</svg>