<svg width="59" height="37" viewBox="0 0 59 37" fill="none" xmlns="http://www.w3.org/2000/svg">
<g clip-path="url(#clip0_16_10294)" filter="url(#filter0_i_16_10294)">
<path d="M28.5 36.5299V30.7H30.27V36.5299H28.5Z" fill="#8C9FB1"/>
<path d="M28.9399 7.06V0H29.8199V7.06H28.9399Z" fill="#8C9FB1"/>
<path d="M24.1299 2.76V1H29.3899V2.76H24.1299Z" fill="#8C9FB1"/>
<path d="M17.26 36.87V10.28L29.54 6.09998L41.49 10.28V36.87H17.26ZM19.03 11.57V35.11H39.73V11.56L29.54 7.98997L19.03 11.57Z" fill="#8C9FB1"/>
<path d="M22.46 20.7699V14.9399H24.22V20.7699H22.46Z" fill="#8C9FB1"/>
<path d="M27.96 20.7699V14.9399H29.72V20.7699H27.96Z" fill="#8C9FB1"/>
<path d="M33.47 20.7699V14.9399H35.23V20.7699H33.47Z" fill="#8C9FB1"/>
<path d="M22.46 28.98V23.15H24.22V28.98H22.46Z" fill="#8C9FB1"/>
<path d="M27.96 28.98V23.15H29.72V28.98H27.96Z" fill="#8C9FB1"/>
<path d="M33.47 28.98V23.15H35.23V28.98H33.47Z" fill="#8C9FB1"/>
<path d="M0 36.88V17.84H18.16V19.6H1.76V35.11H18.16V35.12V36.88H0Z" fill="#8C9FB1"/>
<path d="M5.88989 28.98V23.15H7.64989V28.98H5.88989Z" fill="#8C9FB1"/>
<path d="M11.3899 28.98V23.15H13.1499V28.98H11.3899Z" fill="#8C9FB1"/>
<path d="M40.6101 35.11H57.0101V19.6H40.6101V17.84H58.7701V36.88H40.6101V35.11Z" fill="#8C9FB1"/>
<path d="M45.6201 28.98V23.15H47.3801V28.98H45.6201Z" fill="#8C9FB1"/>
<path d="M51.1201 28.98V23.15H52.8801V28.98H51.1201Z" fill="#8C9FB1"/>
</g>
<defs>
<filter id="filter0_i_16_10294" x="0" y="0" width="58.77" height="40.88" filterUnits="userSpaceOnUse" color-interpolation-filters="sRGB">
<feFlood flood-opacity="0" result="BackgroundImageFix"/>
<feBlend mode="normal" in="SourceGraphic" in2="BackgroundImageFix" result="shape"/>
<feColorMatrix in="SourceAlpha" type="matrix" values="0 0 0 0 0 0 0 0 0 0 0 0 0 0 0 0 0 0 127 0" result="hardAlpha"/>
<feOffset dy="4"/>
<feGaussianBlur stdDeviation="2"/>
<feComposite in2="hardAlpha" operator="arithmetic" k2="-1" k3="1"/>
<feColorMatrix type="matrix" values="0 0 0 0 0 0 0 0 0 0 0 0 0 0 0 0 0 0 0.25 0"/>
<feBlend mode="normal" in2="shape" result="effect1_innerShadow_16_10294"/>
</filter>
<clipPath id="clip0_16_10294">
<rect width="58.77" height="36.88" fill="white"/>
</clipPath>
</defs>
</svg>
