<?xml version="1.0" encoding="UTF-8"?>
<svg width="700px" height="700px" version="1.1" viewBox="100 20 520 520" xmlns="http://www.w3.org/2000/svg" xmlns:xlink="http://www.w3.org/1999/xlink">
 <g>
  <path d="m170.98 512.85h151.05c8.918 15.848 40.617 23.195 70.465 23.195 24.887 0 51.047-5.1094 64.262-15.984 13.203 10.867 39.367 15.984 64.25 15.984 35.156 0 73-10.148 73-32.426v-228.44c0-0.51563-0.12109-0.98047-0.15625-1.4805 0.035156-0.5 0.15625-0.97266 0.15625-1.4805 0-2.0664-0.82422-3.875-2.0117-5.3711-8.1992-16.477-40.566-24.09-70.98-24.09-13.879 0-28.148 1.6094-40.371 4.8984l-14.453-40.504c-13.152-36.836-54.453-67.391-96.031-72.992 2.4141-3.0469 4.375-6.3594 5.6367-9.8789l24.297-68.066c2.8086-7.8828 1.9414-15.926-2.3789-22.059-4.5586-6.4766-12.469-10.195-21.684-10.195-1.3125 0-2.6172 0.29687-3.8047 0.875l-20.598 9.9414-19.074-9.8359c-2.4336-1.25-5.2773-1.2969-7.7539-0.14062l-21.113 9.9766-18.559-9.8008c-1.2617-0.66406-2.6602-1.0156-4.0859-1.0156-9.2148 0-17.113 3.7109-21.684 10.195-4.332 6.1406-5.1992 14.184-2.3789 22.059l24.297 68.066c1.2617 3.5156 3.2109 6.832 5.6367 9.8789-41.578 5.6094-82.871 36.156-96.031 72.992l-80.637 225.82c-7.1836 20.133-5.2773 39.551 5.3828 54.672 11.293 16.02 31.473 25.207 55.352 25.207zm405.52-40.488c0 3.832-19.082 14.926-55.5 14.926-36.418 0-55.5-11.086-55.5-14.926v-11.359c14.281 7.0703 35.316 10.43 55.5 10.43 20.188 0 41.211-3.3594 55.5-10.43zm-128.5-66.719c0 3.832-19.082 14.926-55.512 14.926-36.418 0-55.5-11.086-55.5-14.926v-11.359c14.281 7.0703 35.316 10.43 55.5 10.43 20.188 0 41.223-3.3594 55.512-10.43zm-55.508 32.418c20.188 0 41.223-3.3672 55.512-10.43v11.367c0 3.832-19.082 14.926-55.512 14.926-36.418 0-55.5-11.086-55.5-14.926v-11.367c14.277 7.0703 35.312 10.43 55.5 10.43zm-55.504 22.945c14.281 7.0703 35.316 10.43 55.5 10.43 20.188 0 41.223-3.3594 55.512-10.43v11.359c0 3.832-19.082 14.926-55.512 14.926-36.418 0-55.5-11.086-55.5-14.926zm239.51-22c0 3.832-19.082 14.926-55.5 14.926-36.418 0-55.5-11.086-55.5-14.926v-11.367c14.281 7.0625 35.316 10.43 55.5 10.43 20.188 0 41.211-3.3672 55.5-10.43zm0-33.363c0 3.832-19.082 14.926-55.5 14.926-36.418 0-55.5-11.086-55.5-14.926v-11.359c14.281 7.0703 35.316 10.43 55.5 10.43 20.188 0 41.211-3.3594 55.5-10.43zm0-33.355c0 3.832-19.082 14.926-55.5 14.926-36.418 0-55.5-11.086-55.5-14.926v-11.367c14.281 7.0625 35.316 10.43 55.5 10.43 20.188 0 41.211-3.3672 55.5-10.43zm0-33.363c0 3.832-19.082 14.926-55.5 14.926-36.418 0-55.5-11.086-55.5-14.926v-11.359c14.281 7.0625 35.316 10.43 55.5 10.43 20.188 0 41.211-3.3672 55.5-10.43zm0-33.355c0 3.832-19.082 14.926-55.5 14.926-36.418 0-55.5-11.086-55.5-14.926v-11.367c14.281 7.0625 35.316 10.422 55.5 10.422 20.188 0 41.211-3.3594 55.5-10.422zm-184 81.637c-36.418 0-55.5-11.086-55.5-14.926s19.082-14.926 55.5-14.926c36.426 0 55.512 11.086 55.512 14.926-0.003907 3.8398-19.086 14.926-55.512 14.926zm0 131.34c-36.418 0-55.5-11.086-55.5-14.926v-9.2656c14.281 7.0625 35.316 10.43 55.5 10.43 20.188 0 41.223-3.3672 55.512-10.43v9.2656c-0.003907 3.8398-19.086 14.926-55.512 14.926zm128.5 0c-36.418 0-55.5-11.086-55.5-14.926v-9.2656c14.281 7.0625 35.316 10.43 55.5 10.43 20.188 0 41.211-3.3672 55.5-10.43v9.2656c0.003906 3.8398-19.074 14.926-55.5 14.926zm54.75-244.84c-3.6133 4.6211-22.199 13.43-54.738 13.43-32.543 0-51.137-8.8125-54.738-13.43 3.6133-4.6211 22.199-13.449 54.738-13.449 32.539 0 51.125 8.8203 54.738 13.449zm-302.3-223.38c-0.62891-1.7578-1.1016-4.2344 0.20313-6.0898 0.99609-1.418 2.9219-2.3438 5.4258-2.6602l20.281 10.711c2.4336 1.2773 5.3203 1.3477 7.8242 0.17578l21.156-9.9922 19.117 9.8516c2.4492 1.2695 5.3359 1.2969 7.8125 0.10547l22.531-10.867c2.5742 0.29687 4.5586 1.2344 5.5742 2.6758 1.3047 1.8555 0.83203 4.3398 0.20312 6.0898l-24.297 68.074c-2.8008 7.8594-13.203 14.754-22.262 14.754h-17.02c-9.0547 0-19.461-6.8945-22.262-14.762zm-146.71 388.53 80.613-225.82c12.074-33.82 54.637-62.387 92.941-62.387h56.457c38.297 0 80.867 28.57 92.941 62.387l14.57 40.809c-6.6133 3.4727-11.645 7.7891-14.234 13.004-1.1992 1.4961-2.0117 3.3086-2.0117 5.3711 0 0.51562 0.12109 0.98047 0.15625 1.4805-0.035157 0.5-0.15625 0.97266-0.15625 1.4805v75.109c-14.289-7.0703-35.324-10.43-55.512-10.43-35.156 0-73 10.148-73 32.426v123.06h-148.52c-18.113 0-33.074-6.4844-41.047-17.789-7.2891-10.332-8.4258-24.078-3.2031-38.699z"/>
 </g>
</svg>
