<?xml version="1.0" encoding="UTF-8"?>
<svg width="78px" height="78px" viewBox="0 0 78 78" version="1.1" xmlns="http://www.w3.org/2000/svg" xmlns:xlink="http://www.w3.org/1999/xlink">
    <!-- Generator: sketchtool 50 (54983) - http://www.bohemiancoding.com/sketch -->
    <title>CC18C1CD-48D6-476D-8C7E-BC0E46B26013</title>
    <desc>Created with sketchtool.</desc>
    <defs></defs>
    <g id="Symbols" stroke="none" stroke-width="1" fill="none" fill-rule="evenodd">
        <g id="Fields-above-the-fold" transform="translate(-476.000000, -152.000000)">
            <g id="above-the-fold">
                <g id="sum" transform="translate(128.000000, 139.000000)">
                    <g id="4" transform="translate(264.000000, 12.000000)">
                        <g id="icon-shnati" transform="translate(84.000000, 0.000000)">
                            <path d="M30.5802,63.7996864 L61.8190056,32.5608808 L44.7881917,15.5291436 L13.5494027,46.7688892 L30.5802,63.7996864 Z M10.7209973,46.7689108 L44.7882083,12.7006564 L64.6473944,32.5609192 L30.5802,66.6281136 L10.7209973,46.7689108 Z" id="Stroke-1" fill="#4A4A4A" fill-rule="nonzero"></path>
                            <g id="Group-24" transform="translate(0.000000, 0.560900)">
                                <path d="M33.467,34.8864 C31.138,37.2154 31.138,40.9914 33.467,43.3214 C35.796,45.6504 39.572,45.6504 41.902,43.3214 C44.231,40.9914 44.231,37.2154 41.902,34.8864 C39.572,32.5574 35.796,32.5574 33.467,34.8864" id="Fill-2" fill="#FE8255"></path>
                                <path d="M42.6091068,34.1792932 C45.3286058,36.8987922 45.3286058,41.3078401 42.608955,44.0286585 C39.8884401,46.7480058 35.4793922,46.7480058 32.7597415,44.028355 C30.0403942,41.3078401 30.0403942,36.8987922 32.7598932,34.1792932 C35.4793922,31.4597942 39.8884401,31.4597942 42.6091068,34.1792932 Z M34.1741068,35.5935068 C32.2356058,37.5320078 32.2356058,40.6749599 34.1741068,42.6142932 C36.1126078,44.5527942 39.2555599,44.5527942 41.1947415,42.614445 C43.1333942,40.6749599 43.1333942,37.5320078 41.195045,35.5936585 C39.2555599,33.6550058 36.1126078,33.6550058 34.1741068,35.5935068 Z" id="Stroke-4" fill="#4A4A4A" fill-rule="nonzero"></path>
                                <path d="M60.2849188,27.6368053 L64.6474016,31.999288 L60.076412,36.5717255 L59.3691932,35.8645068 C57.3196689,33.8149825 57.3196689,30.4918175 59.3759593,28.4355912 C59.4404261,28.3723408 59.4847199,28.3363882 59.5653023,28.2752644 C59.5811013,28.2631121 59.585419,28.2598216 59.5857167,28.2597308 L60.2849188,27.6368053 Z M59.580094,28.2647402 L59.5857167,28.2597308 C59.5859887,28.2596478 59.5829057,28.2622351 59.580094,28.2647402 Z M60.1871263,33.6321011 L61.8191984,31.999512 L60.296967,30.4772806 C59.7161546,31.4401386 59.679541,32.6394337 60.1871263,33.6321011 Z M60.7690806,29.8706258 C60.7721537,29.8675545 60.7768918,29.8629176 60.7834068,29.8565068 C60.7802913,29.8596222 60.7771835,29.8627424 60.7740834,29.8658674 L60.7690806,29.8706258 Z" id="Stroke-6" fill="#4A4A4A" fill-rule="nonzero"></path>
                                <path d="M35.0202947,61.7814188 L30.6577,66.1440136 L26.0850601,61.5713736 L26.7930196,60.8642671 C28.8434817,58.8162755 32.1651536,58.8162755 34.2148068,60.8646932 C34.28449,60.9343764 34.3229582,60.9820702 34.3875287,61.0685208 C34.3933031,61.0761119 34.6042251,61.3137445 35.0202947,61.7814188 Z M34.3923598,61.076594 L34.4003136,61.0855216 C34.4012819,61.0870128 34.3968409,61.0816237 34.3923598,61.076594 Z M29.0252644,61.6831509 L30.6577,63.3155864 L32.1802253,61.7930611 C31.2174387,61.2124947 30.0183036,61.175838 29.0252644,61.6831509 Z M32.7861245,62.2643153 C32.7893463,62.2675657 32.7941838,62.2724973 32.8008064,62.2791199 C32.7980128,62.276328 32.7952153,62.2735421 32.792414,62.2707625 L32.7861245,62.2643153 Z" id="Stroke-8" fill="#4A4A4A" fill-rule="nonzero"></path>
                                <path d="M15.1675295,50.6544431 L10.7970745,46.283988 L15.369512,41.7129984 L16.0765068,42.4199932 C18.1260311,44.4695175 18.1260311,47.7916825 16.0765068,49.8412068 C16.00995,49.9077636 15.9638049,49.94545 15.8817561,50.0077055 C15.8691177,50.0174479 15.8651186,50.0205216 15.8639948,50.0212928 L15.1675295,50.6544431 Z M15.2584318,44.6520227 L13.6257255,46.284212 L15.1483797,47.8068661 C15.7295847,46.8439864 15.7662687,45.64474 15.2584318,44.6520227 Z M14.6707732,48.4184825 C14.6679529,48.4213233 14.6651262,48.4241602 14.6622932,48.4269932 C14.667993,48.4212935 14.6722733,48.4170843 14.6751013,48.4142667 L14.6707732,48.4184825 Z" id="Stroke-10" fill="#4A4A4A" fill-rule="nonzero"></path>
                                <path d="M40.4175495,16.5096113 L44.7881183,12.1405047 L49.3592136,16.7116 L48.6521068,17.4187068 C46.6025825,19.4682311 43.2804175,19.4682311 41.2308932,17.4187068 C41.1643364,17.35215 41.12665,17.3060049 41.0643945,17.2239561 C41.0546521,17.2113177 41.0515784,17.2073186 41.0508072,17.2061948 L40.4175495,16.5096113 Z M41.0590599,17.2152728 L41.0508072,17.2061948 C41.0495661,17.2043862 41.0542877,17.2100234 41.0590599,17.2152728 Z M46.4199059,16.6007195 L44.7878817,14.9686953 L43.2653923,16.4906753 C44.2281897,17.0717553 45.4272764,17.1084367 46.4199059,16.6007195 Z M42.6578333,16.0173013 C42.6550157,16.0144733 42.6508065,16.010193 42.6451068,16.0044932 C42.6479398,16.0073262 42.6507767,16.0101529 42.6536175,16.0129732 L42.6578333,16.0173013 Z" id="Stroke-12" fill="#4A4A4A" fill-rule="nonzero"></path>
                                <path d="M13.5576146,66.2400402 C13.9587721,66.6196336 13.9762532,67.2525572 13.5966598,67.6537146 C13.2170664,68.0548721 12.5841428,68.0723532 12.1829854,67.6927598 C4.45802294,60.3830498 0.0003,50.244708 0.0003,39.3954 C0.0003,17.8801153 17.4410153,0.4394 38.9563,0.4394 C39.5085847,0.4394 39.9563,0.88711525 39.9563,1.4394 C39.9563,1.99168475 39.5085847,2.4394 38.9563,2.4394 C18.5455847,2.4394 2.0003,18.9846847 2.0003,39.3954 C2.0003,49.6894126 6.22786471,59.3042981 13.5576146,66.2400402 Z" id="Stroke-14" fill="#4A4A4A" fill-rule="nonzero"></path>
                                <path d="M14.8022802,60.3672637 C14.9397639,59.8323649 15.4848376,59.5101964 16.0197363,59.6476802 C16.5546351,59.7851639 16.8768036,60.3302376 16.7393198,60.8651363 L14.7003198,68.7981363 C14.57193,69.2976542 14.0847037,69.6175918 13.5753046,69.5368787 L5.48430462,68.2548787 C4.93882475,68.1684487 4.5666913,67.6561845 4.65312131,67.1107046 C4.73955132,66.5652247 5.2518155,66.1930913 5.79729538,66.2795213 L12.9897509,67.419149 L14.8022802,60.3672637 Z" id="Stroke-16" fill="#4A4A4A" fill-rule="nonzero"></path>
                                <path d="M55.1762748,6.47810785 C54.684958,6.22586552 54.4911498,5.6230917 54.7433921,5.13177485 C54.9956345,4.640458 55.5984083,4.44664981 56.0897252,4.69889215 L56.979333,5.1556173 C57.4706499,5.40785964 57.664458,6.01063346 57.4122157,6.50195031 C57.1599734,6.99326716 56.5571996,7.18707534 56.0658827,6.93483301 L55.1762748,6.47810785 Z M61.0314874,10.2227565 C60.5963433,9.88265652 60.5192947,9.25419696 60.8593947,8.81905279 C61.1994947,8.38390863 61.8279543,8.3068601 62.2630984,8.64696009 L63.0509966,9.26276559 C63.4861408,9.60286558 63.5631893,10.2313251 63.2230893,10.6664693 C62.8829894,11.1016135 62.2545298,11.178662 61.8193856,10.838562 L61.0314874,10.2227565 Z M66.0799809,14.9967884 C65.7160949,14.5813302 65.7579024,13.949547 66.1733605,13.5856611 C66.5888186,13.2217751 67.2206018,13.2635826 67.5844878,13.6790407 L68.2433616,14.4312941 C68.6072476,14.8467522 68.5654401,15.4785354 68.149982,15.8424214 C67.7345239,16.2063074 67.1027407,16.1644999 66.7388547,15.7490418 L66.0799809,14.9967884 Z M70.1665027,20.6659758 C69.8874937,20.1893497 70.0476939,19.5767864 70.52432,19.2977774 C71.000946,19.0187684 71.6135093,19.1789686 71.8925183,19.6555947 L72.3977089,20.5186025 C72.6767179,20.9952286 72.5165177,21.6077918 72.0398916,21.8868009 C71.5632656,22.1658099 70.9507023,22.0056097 70.6716932,21.5289836 L70.1665027,20.6659758 Z M73.0795229,26.9315878 C72.8950543,26.411021 73.1675158,25.8394769 73.6880826,25.6550084 C74.2086494,25.4705398 74.7801935,25.7430013 74.9646621,26.2635681 L75.2986719,27.2061377 C75.4831405,27.7267045 75.210679,28.2982485 74.6901122,28.4827171 C74.1695454,28.6671856 73.5980013,28.3947242 73.4135327,27.8741574 L73.0795229,26.9315878 Z M74.77105,33.7021216 C74.6889088,33.1559794 75.065056,32.6466552 75.6111982,32.564514 C76.1573404,32.4823729 76.6666646,32.85852 76.7488058,33.4046622 L76.8975355,34.3935401 C76.9796766,34.9396823 76.6035295,35.4490066 76.0573873,35.5311477 C75.5112451,35.6132888 75.0019208,35.2371417 74.9197797,34.6909995 L74.77105,33.7021216 Z M75.153666,40.6769286 C75.1751616,40.1250623 75.6399633,39.695112 76.1918296,39.7166077 C76.7436959,39.7381033 77.1736462,40.202905 77.1521505,40.7547713 L77.1132292,41.7540136 C77.0917335,42.3058798 76.6269319,42.7358302 76.0750656,42.7143345 C75.5231993,42.6928388 75.093249,42.2280372 75.1147446,41.6761709 L75.153666,40.6769286 Z M74.229318,47.5734997 C74.3542527,47.0355315 74.8916417,46.7007017 75.4296098,46.8256364 C75.967578,46.950571 76.3024079,47.48796 76.1774732,48.0259282 L75.9512589,49.0000058 C75.8263243,49.5379739 75.2889353,49.8728038 74.7509671,49.7478691 C74.2129989,49.6229344 73.8781691,49.0855455 74.0031038,48.5475773 L74.229318,47.5734997 Z M72.0213116,54.1592556 C72.2458813,53.6546896 72.8369626,53.4277077 73.3415287,53.6522774 C73.8460947,53.8768472 74.0730766,54.4679285 73.8485068,54.9724945 L73.4418874,55.8860921 C73.2173176,56.3906582 72.6262363,56.61764 72.1216703,56.3930703 C71.6171043,56.1685006 71.3901224,55.5774193 71.6146921,55.0728532 L72.0213116,54.1592556 Z M68.578965,60.2516325 C68.8951641,59.7988229 69.5185689,59.6880782 69.9713785,60.0042773 C70.4241881,60.3204764 70.5349328,60.9438812 70.2187337,61.3966908 L69.6462046,62.2165751 C69.3300054,62.6693848 68.7066007,62.7801295 68.253791,62.4639304 C67.8009814,62.1477313 67.6902367,61.5243265 68.0064358,61.0715169 L68.578965,60.2516325 Z M64.116325,65.516469 C64.5111715,65.1303153 65.1442972,65.137362 65.530451,65.5322085 C65.9166048,65.9270549 65.909558,66.5601807 65.5147116,66.9463344 L64.7997789,67.6455277 C64.4049325,68.0316815 63.7718067,68.0246347 63.3856529,67.6297883 C62.9994991,67.2349419 63.0065459,66.6018161 63.4013924,66.2156623 L64.116325,65.516469 Z M58.687708,69.9042158 C59.1481253,69.5992004 59.7686311,69.7251786 60.0736464,70.1855959 C60.3786618,70.6460132 60.2526836,71.266519 59.7922663,71.5715343 L58.958607,72.1238134 C58.4981897,72.4288288 57.877684,72.3028506 57.5726686,71.8424333 C57.2676533,71.382016 57.3936315,70.7615102 57.8540488,70.4564949 L58.687708,69.9042158 Z M52.5065933,73.1981474 C53.0165883,72.9861956 53.6018417,73.2278075 53.8137935,73.7378025 C54.0257452,74.2477975 53.7841334,74.8330509 53.2741384,75.0450027 L52.3507107,75.4287752 C51.8407157,75.640727 51.2554623,75.3991151 51.0435105,74.8891201 C50.8315588,74.3791251 51.0731706,73.7938717 51.5831656,73.5819199 L52.5065933,73.1981474 Z M45.971344,75.2199718 C46.5119289,75.1068948 47.0418266,75.4534585 47.1549036,75.9940434 C47.2679806,76.5346283 46.9214169,77.064526 46.380832,77.1776029 L45.4020165,77.382347 C44.8614315,77.4954239 44.3315339,77.1488603 44.2184569,76.6082754 C44.1053799,76.0676905 44.4519435,75.5377928 44.9925285,75.4247158 L45.971344,75.2199718 Z M39.0463442,75.9939722 C39.5985475,75.9844909 40.053883,76.424454 40.0633644,76.9766573 C40.0728457,77.5288607 39.6328826,77.9841961 39.0806793,77.9936775 L38.0808267,78.010845 C37.5286233,78.0203264 37.0732879,77.5803633 37.0638065,77.02816 C37.0543251,76.4759566 37.4942882,76.0206212 38.0464916,76.0111398 L39.0463442,75.9939722 Z M32.1138197,75.4645914 C32.6580987,75.5582869 33.0233688,76.0754673 32.9296733,76.6197463 C32.8359778,77.1640253 32.3187973,77.5292954 31.7745183,77.4355999 L30.7890141,77.2659492 C30.2447351,77.1722537 29.879465,76.6550733 29.9731605,76.1107943 C30.066856,75.5665153 30.5840365,75.2012452 31.1283154,75.2949407 L32.1138197,75.4645914 Z M25.410353,73.6404031 C25.9270297,73.8355023 26.1877198,74.4125105 25.9926206,74.9291872 C25.7975215,75.4458639 25.2205132,75.706554 24.7038365,75.5114548 L23.7683107,75.1581966 C23.251634,74.9630975 22.9909439,74.3860892 23.1860431,73.8694125 C23.3811422,73.3527359 23.9581505,73.0920458 24.4748272,73.2871449 L25.410353,73.6404031 Z" id="Stroke-20" fill="#4A4A4A" fill-rule="nonzero"></path>
                            </g>
                        </g>
                    </g>
                </g>
            </g>
        </g>
    </g>
</svg>