<?xml version="1.0" encoding="UTF-8"?>
<svg width="85px" height="52px" viewBox="0 0 85 52" version="1.1" xmlns="http://www.w3.org/2000/svg" xmlns:xlink="http://www.w3.org/1999/xlink">
    <!-- Generator: sketchtool 50 (54983) - http://www.bohemiancoding.com/sketch -->
    <title>D16B60E2-D12D-4757-854B-AAE0B0C43F26</title>
    <desc>Created with sketchtool.</desc>
    <defs></defs>
    <g id="Pages" stroke="none" stroke-width="1" fill="none" fill-rule="evenodd">
        <g id="Areas" transform="translate(-388.000000, -243.000000)">
            <g id="Group-2" transform="translate(336.000000, 239.000000)">
                <g id="Group-3-Copy-2" transform="translate(0.000000, 4.000000)">
                    <g id="icon-toshavim" transform="translate(52.000000, 0.000000)">
                        <path d="M1.9996,50.7005 C1.9996,51.2527847 1.55188475,51.7005 0.9996,51.7005 C0.44731525,51.7005 -0.000400000001,51.2527847 -0.000400000001,50.7005 L-0.000400000001,44.0035 C-0.000400000001,35.8850489 6.63748164,29.2475 14.7566,29.2475 C22.8742184,29.2475 29.5126,35.8855488 29.5126,44.0035 L29.5126,50.7005 C29.5126,51.2527847 29.0648847,51.7005 28.5126,51.7005 C27.9603153,51.7005 27.5126,51.2527847 27.5126,50.7005 L27.5126,44.0035 C27.5126,36.9901408 21.7696713,31.2475 14.7566,31.2475 C7.7420287,31.2475 1.9996,36.9896408 1.9996,44.0035 L1.9996,50.7005 Z" id="Stroke-1" fill="#4A4A4A" fill-rule="nonzero"></path>
                        <path d="M7.5162,13.7757 C3.8152,17.4767 3.8152,23.4777 7.5162,27.1787 C11.2172,30.8797 17.2182,30.8797 20.9192,27.1787 C24.6212,23.4777 24.6212,17.4767 20.9192,13.7757 C17.2182,10.0747 11.2172,10.0747 7.5162,13.7757" id="Fill-3" fill="#FE8255"></path>
                        <path d="M6.80909322,13.0685932 C10.9006175,8.97706893 17.5347825,8.97706893 21.6262113,13.0684977 C25.7188629,17.1600438 25.7188629,23.7943562 21.6263068,27.8858068 C17.5347825,31.9773311 10.9006175,31.9773311 6.80909322,27.8858068 C2.71756893,23.7942825 2.71756893,17.1601175 6.80909322,13.0685932 Z M8.22330678,14.4828068 C4.91283107,17.7932825 4.91283107,23.1611175 8.22330678,26.4715932 C11.5337825,29.7820689 16.9016175,29.7820689 20.2121887,26.4714977 C23.5235371,23.1610438 23.5235371,17.7933562 20.2120932,14.4828068 C16.9016175,11.1723311 11.5337825,11.1723311 8.22330678,14.4828068 Z" id="Stroke-5" fill="#4A4A4A" fill-rule="nonzero"></path>
                        <path d="M56.8873,50.7005 C56.8873,51.2527847 56.4395847,51.7005 55.8873,51.7005 C55.3350153,51.7005 54.8873,51.2527847 54.8873,50.7005 L54.8873,44.0035 C54.8873,35.8852153 61.5250153,29.2475 69.6433,29.2475 C77.7615847,29.2475 84.3993,35.8852153 84.3993,44.0035 L84.3993,50.7005 C84.3993,51.2527847 83.9515847,51.7005 83.3993,51.7005 C82.8470153,51.7005 82.3993,51.2527847 82.3993,50.7005 L82.3993,44.0035 C82.3993,36.9897847 76.6570153,31.2475 69.6433,31.2475 C62.6295847,31.2475 56.8873,36.9897847 56.8873,44.0035 L56.8873,50.7005 Z" id="Stroke-7" fill="#4A4A4A" fill-rule="nonzero"></path>
                        <path d="M62.403,13.7757 C58.702,17.4767 58.702,23.4777 62.403,27.1787 C66.105,30.8797 72.105,30.8797 75.806,27.1787 C79.507,23.4777 79.507,17.4767 75.806,13.7757 C72.105,10.0747 66.105,10.0747 62.403,13.7757" id="Fill-9" fill="#FE8255"></path>
                        <path d="M61.6958932,13.0685932 C65.7885071,8.97708485 72.4215984,8.97708485 76.5131068,13.0685932 C80.6046311,17.1601175 80.6046311,23.7942825 76.5131068,27.8858068 C72.4215984,31.9773152 65.7885071,31.9773152 61.6958932,27.8858068 C57.6043689,23.7942825 57.6043689,17.1601175 61.6958932,13.0685932 Z M63.1100113,26.4714977 C66.4214929,29.7820848 71.7884016,29.7820848 75.0988932,26.4715932 C78.4093689,23.1611175 78.4093689,17.7932825 75.0988932,14.4828068 C71.7884175,11.1723311 66.4215445,11.1723152 63.110059,14.4828545 C59.7996311,17.7933341 59.799647,23.1611334 63.1100113,26.4714977 Z" id="Stroke-11" fill="#4A4A4A" fill-rule="nonzero"></path>
                        <path d="M29.444,50.7005 C29.444,51.2527847 28.9962847,51.7005 28.444,51.7005 C27.8917153,51.7005 27.444,51.2527847 27.444,50.7005 L27.444,34.0035 C27.444,25.8848816 34.0810489,19.2475 42.2,19.2475 C50.3176184,19.2475 56.956,25.8855488 56.956,34.0035 L56.956,50.7005 C56.956,51.2527847 56.5082847,51.7005 55.956,51.7005 C55.4037153,51.7005 54.956,51.2527847 54.956,50.7005 L54.956,34.0035 C54.956,26.9901408 49.2130713,21.2475 42.2,21.2475 C35.1856408,21.2475 29.444,26.9894287 29.444,34.0035 L29.444,50.7005 Z" id="Stroke-13" fill="#4A4A4A" fill-rule="nonzero"></path>
                        <path d="M34.9596,3.7757 C31.2586,7.4767 31.2586,13.4777 34.9596,17.1787 C38.6606,20.8797 44.6616,20.8797 48.3626,17.1787 C52.0636,13.4777 52.0636,7.4767 48.3626,3.7757 C44.6616,0.0747 38.6606,0.0747 34.9596,3.7757" id="Fill-15" fill="#FE8255"></path>
                        <path d="M34.2524932,3.06859322 C38.3440175,-1.02293107 44.9781825,-1.02293107 49.0697068,3.06859322 C53.1612311,7.16011751 53.1612311,13.7942825 49.0697068,17.8858068 C44.9781825,21.9773311 38.3440175,21.9773311 34.2524932,17.8858068 C30.1609689,13.7942825 30.1609689,7.16011751 34.2524932,3.06859322 Z M35.6667068,4.48280678 C32.3562311,7.79328249 32.3562311,13.1611175 35.6667068,16.4715932 C38.9771825,19.7820689 44.3450175,19.7820689 47.6554932,16.4715932 C50.9659689,13.1611175 50.9659689,7.79328249 47.6554932,4.48280678 C44.3450175,1.17233107 38.9771825,1.17233107 35.6667068,4.48280678 Z" id="Stroke-17" fill="#4A4A4A" fill-rule="nonzero"></path>
                    </g>
                </g>
            </g>
        </g>
    </g>
</svg>