<?xml version="1.0" encoding="UTF-8"?>
<svg width="77px" height="61px" viewBox="0 0 77 61" version="1.1" xmlns="http://www.w3.org/2000/svg" xmlns:xlink="http://www.w3.org/1999/xlink">
    <!-- Generator: sketchtool 50 (54983) - http://www.bohemiancoding.com/sketch -->
    <title>AD24021A-A080-46B7-A433-9E740B101339</title>
    <desc>Created with sketchtool.</desc>
    <defs></defs>
    <g id="Pages" stroke="none" stroke-width="1" fill="none" fill-rule="evenodd">
        <g id="Areas" transform="translate(-841.000000, -232.000000)">
            <g id="icon-shetach" transform="translate(841.000000, 232.000000)">
                <path d="M0,12 C0,11.4477153 0.44771525,11 1,11 C1.55228475,11 2,11.4477153 2,12 L2,49 C2,49.5522847 1.55228475,50 1,50 C0.44771525,50 0,49.5522847 0,49 L0,12 Z" id="Stroke-1" fill="#4A4A4A" fill-rule="nonzero"></path>
                <path d="M75,13 L12,13 C11.4477153,13 11,12.5522847 11,12 C11,11.4477153 11.4477153,11 12,11 L76,11 C76.5522847,11 77,11.4477153 77,12 L77,60 C77,60.5522847 76.5522847,61 76,61 L12.010603,61 C11.4583183,61 11.010603,60.5522847 11.010603,60 C11.010603,59.4477153 11.4583183,59 12.010603,59 L75,59 L75,13 Z" id="Stroke-3" fill="#4A4A4A" fill-rule="nonzero"></path>
                <path d="M2,11.8621396 C2,12.4144243 1.55228475,12.8621396 1,12.8621396 C0.44771525,12.8621396 0,12.4144243 0,11.8621396 C0,5.30820475 5.37557559,0 12,0 C12.5522847,0 13,0.44771525 13,1 L13,38.2776229 C13,38.8299076 12.5522847,39.2776229 12,39.2776229 C6.47432782,39.2776229 2,43.6953406 2,49.1388114 C2,54.5822823 6.47432782,59 12,59 C12.5522847,59 13,59.4477153 13,60 C13,60.5522847 12.5522847,61 12,61 C5.37541858,61 0,55.6925923 0,49.1388114 C0,42.9181733 4.84282,37.8204173 11,37.318231 L11,2.04868505 C5.94459255,2.54361542 2,6.75097897 2,11.8621396 Z" id="Stroke-5" fill="#4A4A4A" fill-rule="nonzero"></path>
                <polygon id="Fill-7" fill="#FE8255" points="27.2970589 36.859801 27.2970589 27.2477715 33.9352032 21 66 21 66 38.141151 59.3964995 47.9121592 43.4901662 47.9121592 37.3370356 54 27.2970589 54 18 44.803981"></polygon>
                <path d="M28.2970589,36.859801 C28.2970589,37.4120857 27.8493436,37.859801 27.2970589,37.859801 C26.7447741,37.859801 26.2970589,37.4120857 26.2970589,36.859801 L26.2970589,35.859801 C26.2970589,35.3075162 26.7447741,34.859801 27.2970589,34.859801 C27.8493436,34.859801 28.2970589,35.3075162 28.2970589,35.859801 L28.2970589,36.859801 Z M28.2970589,29.7218009 C28.2970589,30.2740857 27.8493436,30.7218009 27.2970589,30.7218009 C26.7447741,30.7218009 26.2970589,30.2740857 26.2970589,29.7218009 L26.2970589,28.7218009 C26.2970589,28.1695162 26.7447741,27.7218009 27.2970589,27.7218009 C27.8493436,27.7218009 28.2970589,28.1695162 28.2970589,28.7218009 L28.2970589,29.7218009 Z M31.378706,24.7794161 C30.9765354,25.1579359 30.3436608,25.1387633 29.9651409,24.7365928 C29.586621,24.3344222 29.6057937,23.7015476 30.0079642,23.3230277 L30.7361584,22.6376568 C31.1383289,22.2591369 31.7712036,22.2783096 32.1497234,22.6804801 C32.5282433,23.0826507 32.5090707,23.7155253 32.1069002,24.0940452 L31.378706,24.7794161 Z M36.6212751,22 C36.0689904,22 35.6212751,21.5522847 35.6212751,21 C35.6212751,20.4477153 36.0689904,20 36.6212751,20 L37.6212751,20 C38.1735599,20 38.6212751,20.4477153 38.6212751,21 C38.6212751,21.5522847 38.1735599,22 37.6212751,22 L36.6212751,22 Z M43.7592751,22 C43.2069904,22 42.7592751,21.5522847 42.7592751,21 C42.7592751,20.4477153 43.2069904,20 43.7592751,20 L44.7592751,20 C45.3115599,20 45.7592751,20.4477153 45.7592751,21 C45.7592751,21.5522847 45.3115599,22 44.7592751,22 L43.7592751,22 Z M50.8972751,22 C50.3449904,22 49.8972751,21.5522847 49.8972751,21 C49.8972751,20.4477153 50.3449904,20 50.8972751,20 L51.8972751,20 C52.4495599,20 52.8972751,20.4477153 52.8972751,21 C52.8972751,21.5522847 52.4495599,22 51.8972751,22 L50.8972751,22 Z M58.0352751,22 C57.4829904,22 57.0352751,21.5522847 57.0352751,21 C57.0352751,20.4477153 57.4829904,20 58.0352751,20 L59.0352751,20 C59.5875599,20 60.0352751,20.4477153 60.0352751,21 C60.0352751,21.5522847 59.5875599,22 59.0352751,22 L58.0352751,22 Z M65.1732752,22 C64.6209904,22 64.1732752,21.5522847 64.1732752,21 C64.1732752,20.4477153 64.6209904,20 65.1732752,20 L66.1732752,20 C66.7255599,20 67.1732752,20.4477153 67.1732752,21 C67.1732752,21.5522847 66.7255599,22 66.1732752,22 L65.1732752,22 Z M65,27.3112752 C65,26.7589904 65.4477153,26.3112752 66,26.3112752 C66.5522847,26.3112752 67,26.7589904 67,27.3112752 L67,28.3112752 C67,28.8635599 66.5522847,29.3112752 66,29.3112752 C65.4477153,29.3112752 65,28.8635599 65,28.3112752 L65,27.3112752 Z M65,34.4492752 C65,33.8969904 65.4477153,33.4492752 66,33.4492752 C66.5522847,33.4492752 67,33.8969904 67,34.4492752 L67,35.4492752 C67,36.0015599 66.5522847,36.4492752 66,36.4492752 C65.4477153,36.4492752 65,36.0015599 65,35.4492752 L65,34.4492752 Z M63.2418361,40.4364296 C63.551084,39.9788445 64.1727251,39.8585934 64.6303102,40.1678413 C65.0878954,40.4770892 65.2081465,41.0987302 64.8988986,41.5563154 L64.3389557,42.3848466 C64.0297078,42.8424317 63.4080668,42.9626828 62.9504816,42.6534349 C62.4928965,42.344187 62.3726454,41.722546 62.6818933,41.2649609 L63.2418361,40.4364296 Z M59.244964,46.3504855 C59.5542119,45.8929004 60.1758529,45.7726493 60.6334381,46.0818972 C61.0910232,46.3911451 61.2112743,47.0127861 60.9020264,47.4703712 L60.3420836,48.2989025 C60.0328356,48.7564876 59.4111946,48.8767387 58.9536095,48.5674908 C58.4960243,48.2582429 58.3757732,47.6366019 58.6850211,47.1790167 L59.244964,46.3504855 Z M53.4675437,46.9121592 C54.0198284,46.9121592 54.4675437,47.3598745 54.4675437,47.9121592 C54.4675437,48.464444 54.0198284,48.9121592 53.4675437,48.9121592 L52.4675437,48.9121592 C51.9152589,48.9121592 51.4675437,48.464444 51.4675437,47.9121592 C51.4675437,47.3598745 51.9152589,46.9121592 52.4675437,46.9121592 L53.4675437,46.9121592 Z M46.3295437,46.9121592 C46.8818284,46.9121592 47.3295437,47.3598745 47.3295437,47.9121592 C47.3295437,48.464444 46.8818284,48.9121592 46.3295437,48.9121592 L45.3295437,48.9121592 C44.7772589,48.9121592 44.3295437,48.464444 44.3295437,47.9121592 C44.3295437,47.3598745 44.7772589,46.9121592 45.3295437,46.9121592 L46.3295437,46.9121592 Z M39.731087,50.2246209 C40.1236886,49.8361851 40.7568446,49.8395622 41.1452804,50.2321638 C41.5337163,50.6247655 41.5303392,51.2579215 41.1377375,51.6463573 L40.4268694,52.3496825 C40.0342677,52.7381184 39.4011117,52.7347413 39.0126759,52.3421396 C38.6242401,51.949538 38.6276172,51.316382 39.0202188,50.9279462 L39.731087,50.2246209 Z M34.55621,53 C35.1084948,53 35.55621,53.4477153 35.55621,54 C35.55621,54.5522847 35.1084948,55 34.55621,55 L33.55621,55 C33.0039253,55 32.55621,54.5522847 32.55621,54 C32.55621,53.4477153 33.0039253,53 33.55621,53 L34.55621,53 Z M27.41821,53 C27.9704948,53 28.41821,53.4477153 28.41821,54 C28.41821,54.5522847 27.9704948,55 27.41821,55 L26.41821,55 C25.8659253,55 25.41821,54.5522847 25.41821,54 C25.41821,53.4477153 25.8659253,53 26.41821,53 L27.41821,53 Z M23.011596,48.3545615 C23.4042481,48.7429463 23.4077075,49.3761018 23.0193227,49.768754 C22.6309379,50.1614061 21.9977823,50.1648654 21.6051302,49.7764806 L20.8941707,49.0732477 C20.5015185,48.6848629 20.4980592,48.0517074 20.886444,47.6590553 C21.2748288,47.2664031 21.9079843,47.2629438 22.3006365,47.6513286 L23.011596,48.3545615 Z M19.4692351,44.8638928 C19.0493579,45.2226707 18.4181332,45.17314 18.0593553,44.7532629 C17.7005773,44.3333857 17.750108,43.702161 18.1699852,43.3433831 L18.93024,42.6937581 C19.3501172,42.3349802 19.9813419,42.3845109 20.3401198,42.804388 C20.6988978,43.2242652 20.6493671,43.8554899 20.2294899,44.2142678 L19.4692351,44.8638928 Z M24.8959342,40.2268699 C24.476057,40.5856479 23.8448323,40.5361172 23.4860544,40.11624 C23.1272764,39.6963628 23.1768071,39.0651382 23.5966843,38.7063602 L24.3569391,38.0567353 C24.7768163,37.6979573 25.408041,37.747488 25.7668189,38.1673652 C26.1255969,38.5872423 26.0760662,39.218467 25.656189,39.577245 L24.8959342,40.2268699 Z" id="Stroke-9" fill="#4A4A4A" fill-rule="nonzero"></path>
            </g>
        </g>
    </g>
</svg>