<?xml version="1.0" encoding="UTF-8"?>
<svg version="1.1" xmlns="http://www.w3.org/2000/svg" xmlns:xlink="http://www.w3.org/1999/xlink" width="24px" height="24px" viewBox="88 16 526 526">
  <g fill='#8C9FB1'>
  <path d="m603.75 262.5v-52.5c-0.023438-17.785-6.0625-35.035-17.137-48.953-11.07-13.918-26.527-23.68-43.852-27.695 11.828-13.59 17.961-31.211 17.125-49.207-0.83594-17.992-8.5742-34.973-21.609-47.406-13.035-12.43-30.359-19.359-48.375-19.348-18.012 0.015625-35.324 6.9766-48.34 19.43-13.012 12.453-20.727 29.445-21.531 47.441-0.80469 17.996 5.3594 35.609 17.207 49.176-5.957 1.3359-11.723 3.4219-17.152 6.2109-5.4844-2.8203-11.305-4.9375-17.324-6.2969 11.84-13.578 17.984-31.195 17.164-49.191-0.82031-17.996-8.543-34.98-21.57-47.422-13.023-12.445-30.344-19.391-48.355-19.391s-35.332 6.9453-48.355 19.391c-13.027 12.441-20.75 29.426-21.57 47.422-0.82031 17.996 5.3242 35.613 17.164 49.191-6.0195 1.3594-11.84 3.4766-17.324 6.2969-5.4297-2.7891-11.195-4.875-17.152-6.2109 11.848-13.566 18.012-31.18 17.207-49.176-0.80469-17.996-8.5195-34.988-21.531-47.441-13.016-12.453-30.328-19.414-48.34-19.43-18.016-0.011719-35.34 6.918-48.375 19.348-13.035 12.434-20.773 29.414-21.609 47.406-0.83594 17.996 5.2969 35.617 17.125 49.207-17.324 4.0156-32.781 13.777-43.852 27.695-11.074 13.918-17.113 31.168-17.137 48.953v52.5c-4.832 0-8.75 3.918-8.75 8.75v262.5c0 2.3203 0.92188 4.5469 2.5625 6.1875s3.8672 2.5625 6.1875 2.5625h507.5c2.3203 0 4.5469-0.92188 6.1875-2.5625s2.5625-3.8672 2.5625-6.1875v-262.5c0-2.3203-0.92188-4.5469-2.5625-6.1875s-3.8672-2.5625-6.1875-2.5625zm-113.75-227.5c13.926 0 27.277 5.5312 37.125 15.375 9.8438 9.8477 15.375 23.199 15.375 37.125s-5.5312 27.277-15.375 37.125c-9.8477 9.8438-23.199 15.375-37.125 15.375s-27.277-5.5312-37.125-15.375c-9.8438-9.8477-15.375-23.199-15.375-37.125s5.5312-27.277 15.375-37.125c9.8477-9.8438 23.199-15.375 37.125-15.375zm-35 113.75h1.2266c21.004 11.668 46.543 11.668 67.547 0h1.2266c16.238 0.019531 31.809 6.4766 43.289 17.961 11.484 11.48 17.941 27.051 17.961 43.289v52.5h-122.5v-52.5c-0.027344-22.402-9.6055-43.727-26.336-58.625 5.707-1.7109 11.629-2.5938 17.586-2.625zm-105-113.75c13.926 0 27.277 5.5312 37.125 15.375 9.8438 9.8477 15.375 23.199 15.375 37.125s-5.5312 27.277-15.375 37.125c-9.8477 9.8438-23.199 15.375-37.125 15.375s-27.277-5.5312-37.125-15.375c-9.8438-9.8477-15.375-23.199-15.375-37.125s5.5312-27.277 15.375-37.125c9.8477-9.8438 23.199-15.375 37.125-15.375zm-35 113.75h1.2266c21.004 11.668 46.543 11.668 67.547 0h1.2266c16.238 0.019531 31.809 6.4766 43.289 17.961 11.484 11.48 17.941 27.051 17.961 43.289v52.5h-192.5v-52.5c0.019531-16.238 6.4766-31.809 17.961-43.289 11.48-11.484 27.051-17.941 43.289-17.961zm-105-113.75c13.926 0 27.277 5.5312 37.125 15.375 9.8438 9.8477 15.375 23.199 15.375 37.125s-5.5312 27.277-15.375 37.125c-9.8477 9.8438-23.199 15.375-37.125 15.375s-27.277-5.5312-37.125-15.375c-9.8438-9.8477-15.375-23.199-15.375-37.125s5.5312-27.277 15.375-37.125c9.8477-9.8438 23.199-15.375 37.125-15.375zm-96.25 175c0.019531-16.238 6.4766-31.809 17.961-43.289 11.48-11.484 27.051-17.941 43.289-17.961h1.2266c21.004 11.668 46.543 11.668 67.547 0h1.2266c5.957 0.03125 11.879 0.91406 17.586 2.625-16.73 14.898-26.309 36.223-26.336 58.625v52.5h-122.5zm481.25 315h-490v-245h490z"/>
  <path d="m350 481.25c20.887 0 40.918-8.2969 55.684-23.066 14.77-14.766 23.066-34.797 23.066-55.684s-8.2969-40.918-23.066-55.684c-14.766-14.77-34.797-23.066-55.684-23.066s-40.918 8.2969-55.684 23.066c-14.77 14.766-23.066 34.797-23.066 55.684 0.027344 20.879 8.332 40.895 23.094 55.656s34.777 23.066 55.656 23.094zm0-140c16.246 0 31.824 6.4531 43.309 17.941 11.488 11.484 17.941 27.062 17.941 43.309s-6.4531 31.824-17.941 43.309c-11.484 11.488-27.062 17.941-43.309 17.941s-31.824-6.4531-43.309-17.941c-11.488-11.484-17.941-27.062-17.941-43.309 0.019531-16.238 6.4766-31.809 17.961-43.289 11.48-11.484 27.051-17.941 43.289-17.961z"/>
  <path d="m157.5 306.25c0 6.9609-2.7656 13.641-7.6875 18.562s-11.602 7.6875-18.562 7.6875c-4.832 0-8.75 3.918-8.75 8.75v122.5c0 2.3203 0.92188 4.5469 2.5625 6.1875s3.8672 2.5625 6.1875 2.5625c6.9609 0 13.641 2.7656 18.562 7.6875s7.6875 11.602 7.6875 18.562c0 2.3203 0.92188 4.5469 2.5625 6.1875s3.8672 2.5625 6.1875 2.5625h367.5c2.3203 0 4.5469-0.92188 6.1875-2.5625s2.5625-3.8672 2.5625-6.1875c0-6.9609 2.7656-13.641 7.6875-18.562s11.602-7.6875 18.562-7.6875c2.3203 0 4.5469-0.92188 6.1875-2.5625s2.5625-3.8672 2.5625-6.1875v-122.5c0-2.3203-0.92188-4.5469-2.5625-6.1875s-3.8672-2.5625-6.1875-2.5625c-6.9609 0-13.641-2.7656-18.562-7.6875s-7.6875-11.602-7.6875-18.562c0-2.3203-0.92188-4.5469-2.5625-6.1875s-3.8672-2.5625-6.1875-2.5625h-367.5c-4.832 0-8.75 3.918-8.75 8.75zm368.38 8.75c1.7266 8.4023 5.8828 16.113 11.949 22.176 6.0625 6.0664 13.773 10.223 22.176 11.949v106.75c-8.4023 1.7266-16.113 5.8828-22.176 11.949-6.0664 6.0625-10.223 13.773-11.949 22.176h-351.75c-1.7266-8.4023-5.8828-16.113-11.949-22.176-6.0625-6.0664-13.773-10.223-22.176-11.949v-106.75c8.4023-1.7266 16.113-5.8828 22.176-11.949 6.0664-6.0625 10.223-13.773 11.949-22.176z"/>
 </g>
</svg>
