<?xml version="1.0" encoding="UTF-8"?>
<svg version="1.1" xmlns="http://www.w3.org/2000/svg" xmlns:xlink="http://www.w3.org/1999/xlink" width="24px" height="24px" viewBox="88 16 526 526">
 <g fill='#8C9FB1'>
  <path d="m350 0c-53.375 0-104.56 21.203-142.3 58.945-37.742 37.742-58.945 88.93-58.945 142.3 0 153.39 180.86 345.19 188.56 353.32 3.3047 3.4805 7.8906 5.4492 12.688 5.4492s9.3828-1.9688 12.688-5.4492c7.6992-8.1367 188.56-199.94 188.56-353.32 0-53.375-21.203-104.56-58.945-142.3-37.742-37.742-88.93-58.945-142.3-58.945zm0 516.25c-40.863-46.199-166.25-197.75-166.25-315 0-44.094 17.516-86.379 48.695-117.55 31.176-31.18 73.461-48.695 117.55-48.695s86.379 17.516 117.55 48.695c31.18 31.176 48.695 73.461 48.695 117.55 0 117.25-125.39 268.89-166.25 315zm17.5-323.75v70c0 6.2539-3.3359 12.031-8.75 15.156s-12.086 3.125-17.5 0-8.75-8.9023-8.75-15.156v-70c0-6.2539 3.3359-12.031 8.75-15.156s12.086-3.125 17.5 0 8.75 8.9023 8.75 15.156zm0-52.5c0 4.6406-1.8438 9.0938-5.125 12.375s-7.7344 5.125-12.375 5.125-9.0938-1.8438-12.375-5.125-5.125-7.7344-5.125-12.375 1.8438-9.0938 5.125-12.375 7.7344-5.125 12.375-5.125 9.0938 1.8438 12.375 5.125 5.125 7.7344 5.125 12.375zm-17.5-70c-34.809 0-68.195 13.828-92.809 38.441-24.613 24.613-38.441 58-38.441 92.809s13.828 68.195 38.441 92.809c24.613 24.613 58 38.441 92.809 38.441s68.195-13.828 92.809-38.441c24.613-24.613 38.441-58 38.441-92.809s-13.828-68.195-38.441-92.809c-24.613-24.613-58-38.441-92.809-38.441zm0 227.5c-25.527 0-50.008-10.141-68.059-28.191-18.051-18.051-28.191-42.531-28.191-68.059s10.141-50.008 28.191-68.059c18.051-18.051 42.531-28.191 68.059-28.191s50.008 10.141 68.059 28.191c18.051 18.051 28.191 42.531 28.191 68.059s-10.141 50.008-28.191 68.059c-18.051 18.051-42.531 28.191-68.059 28.191z"/>
 </g>
</svg>
