<svg width="49" height="54" viewBox="0 0 49 54" fill="none" xmlns="http://www.w3.org/2000/svg">
<g clip-path="url(#clip0_16_10160)" filter="url(#filter0_i_16_10160)">
<path d="M4.28011 25.6899C4.68953 25.1836 5.16356 24.7331 5.69011 24.3499C5.49223 23.394 5.36522 22.4247 5.31011 21.4499H13.4301C13.4301 22.2499 13.4901 23.0599 13.5601 23.8499C14.2363 24.2389 14.8499 24.7278 15.3801 25.2999C15.2088 24.0163 15.1053 22.7245 15.0701 21.4299H23.4501V22.9699C23.7188 22.9351 23.9892 22.915 24.2601 22.9099C24.531 22.9143 24.8015 22.9343 25.0701 22.9699V21.4299H33.4601C33.4601 21.7399 33.4601 22.0599 33.4601 22.3699C33.4101 23.3699 33.3101 24.2999 33.1901 25.2299C33.7087 24.6617 34.3167 24.182 34.9901 23.8099C34.9901 23.4099 35.0701 23.0099 35.0901 22.6099V22.4899C35.0901 22.1299 35.0901 21.7599 35.0901 21.3999H43.2201C43.1617 22.3749 43.0313 23.3442 42.8301 24.2999C43.3658 24.6907 43.8468 25.1514 44.2601 25.6699C44.6798 24.0059 44.8914 22.2961 44.8901 20.5799V20.4599C44.8908 17.6295 44.3016 14.83 43.1601 12.2399H43.1001C41.5432 8.72175 39.0327 5.70955 35.8526 3.54424C32.6725 1.37893 28.9499 0.146964 25.1059 -0.0122477C21.2619 -0.17146 17.4501 0.748444 14.1019 2.64336C10.7536 4.53827 8.00257 7.33255 6.16011 10.7099H6.10011C4.46598 13.7287 3.61018 17.1073 3.61011 20.5399C3.62307 20.5789 3.62307 20.621 3.61011 20.6599C3.62762 22.3577 3.85262 24.0469 4.28011 25.6899ZM43.2201 19.6899H35.0901C35.0901 18.5999 35.0101 17.5099 34.9001 16.4299C34.6643 14.134 34.1918 11.8687 33.4901 9.66995C34.9222 8.95355 36.2648 8.07078 37.4901 7.03995C40.9302 10.385 42.9772 14.9078 43.2201 19.6999V19.6899ZM36.2901 5.93995C35.2526 6.78726 34.1299 7.52455 32.9401 8.13995C32.1466 5.98211 30.9217 4.00862 29.3401 2.33995C31.8815 3.0446 34.2484 4.27061 36.2901 5.93995ZM25.0701 1.71995C27.6101 2.19995 29.8801 4.89995 31.4201 8.82995C29.3986 9.65328 27.2507 10.1234 25.0701 10.2199V1.71995ZM25.0701 16.0599V11.8499C27.4344 11.7537 29.7648 11.2531 31.9601 10.3699C32.896 13.394 33.4009 16.5349 33.4601 19.6999H25.0701V16.0599ZM23.4501 16.0599V19.6999H15.0701C15.0701 19.3999 15.0701 19.0999 15.0701 18.7999V18.7199C15.2167 15.9058 15.7138 13.121 16.5501 10.4299C18.7495 11.3098 21.0831 11.807 23.4501 11.8999V16.0599ZM23.4501 1.71995V10.2199C21.2701 10.1268 19.1222 9.66004 17.1001 8.83995C18.6401 4.88995 20.9101 2.19995 23.4501 1.71995ZM19.1601 2.33995C17.5785 4.00675 16.3565 5.98096 15.5701 8.13995C14.3766 7.52701 13.2533 6.78598 12.2201 5.92995C14.2597 4.2654 16.623 3.04289 19.1601 2.33995ZM10.9901 7.03995C12.2168 8.07733 13.559 8.96989 14.9901 9.69995C14.7601 10.4099 14.5501 11.1399 14.3701 11.9099L14.2501 12.5099C14.2501 12.5099 14.2501 12.5799 14.2501 12.6199C14.1201 13.2099 14.0001 13.8099 13.9101 14.4299C13.9101 14.4299 13.9101 14.4899 13.9101 14.5299C13.7046 15.8553 13.5678 17.1904 13.5001 18.5299C13.5001 18.5999 13.5001 18.6799 13.5001 18.7499C13.5001 19.0799 13.5001 19.4099 13.5001 19.7499H5.31011C5.52362 14.9423 7.56206 10.397 11.0101 7.03995H10.9901Z" fill="#8C9FB1"/>
<path d="M24.2599 37.12C25.5154 37.12 26.7427 36.7479 27.7867 36.0506C28.8308 35.3533 29.6447 34.3621 30.1256 33.2024C30.6065 32.0427 30.7328 30.7664 30.4886 29.5349C30.2444 28.3034 29.6406 27.1719 28.7536 26.2835C27.8665 25.395 26.736 24.7894 25.5049 24.5433C24.2737 24.2971 22.9973 24.4215 21.8368 24.9005C20.6763 25.3796 19.6839 26.192 18.9849 27.2349C18.286 28.2778 17.9119 29.5046 17.9099 30.76C17.9125 32.4443 18.5821 34.0589 19.7721 35.2508C20.9621 36.4427 22.5757 37.1148 24.2599 37.12ZM24.2599 26C25.2042 25.9981 26.1278 26.2764 26.9137 26.7998C27.6997 27.3231 28.3126 28.068 28.6749 28.94C29.0372 29.812 29.1325 30.7719 28.9487 31.6982C28.765 32.6244 28.3105 33.4752 27.6428 34.1429C26.9751 34.8106 26.1243 35.2651 25.198 35.4489C24.2718 35.6326 23.3119 35.5373 22.4399 35.175C21.5679 34.8128 20.823 34.1998 20.2996 33.4139C19.7763 32.6279 19.4979 31.7043 19.4999 30.76C19.5026 29.4984 20.0049 28.2892 20.897 27.3971C21.7891 26.505 22.9983 26.0027 24.2599 26Z" fill="#8C9FB1"/>
<path d="M38.5001 36.16C39.6607 36.1581 40.7946 35.8121 41.7586 35.1659C42.7226 34.5197 43.4734 33.6022 43.9162 32.5295C44.3589 31.4567 44.4737 30.2767 44.2461 29.1387C44.0185 28.0007 43.4586 26.9557 42.6373 26.1358C41.816 25.3159 40.77 24.7578 39.6316 24.5321C38.4932 24.3064 37.3135 24.4232 36.2415 24.8678C35.1694 25.3124 34.2533 26.0648 33.6087 27.0299C32.9641 27.995 32.6201 29.1295 32.6201 30.29C32.6228 31.8478 33.2434 33.3408 34.3459 34.4414C35.4483 35.5419 36.9424 36.16 38.5001 36.16ZM38.5001 26C39.3486 26 40.178 26.2516 40.8835 26.723C41.589 27.1944 42.1389 27.8644 42.4636 28.6483C42.7883 29.4322 42.8732 30.2948 42.7077 31.127C42.5422 31.9592 42.1336 32.7236 41.5336 33.3235C40.9336 33.9235 40.1692 34.3321 39.3371 34.4976C38.5049 34.6631 37.6423 34.5782 36.8584 34.2535C36.0745 33.9288 35.4045 33.3789 34.9331 32.6734C34.4617 31.9679 34.2101 31.1385 34.2101 30.29C34.2128 29.1531 34.6656 28.0634 35.4695 27.2595C36.2735 26.4555 37.3632 26.0027 38.5001 26Z" fill="#8C9FB1"/>
<path d="M41.26 36.98H35.73C33.8612 36.9924 32.0696 37.727 30.73 39.03C29.683 38.5454 28.5437 38.2929 27.39 38.29H21.16C20.003 38.2915 18.86 38.544 17.81 39.03C16.4591 37.7131 14.6465 36.9773 12.76 36.98H7.26C5.33361 36.9826 3.48702 37.7498 2.1258 39.1129C0.76457 40.476 -1.82241e-06 42.3236 0 44.25V51.25H13.16V53.97H35.32V51.2H48.53V44.2C48.5142 42.2814 47.7416 40.4465 46.3802 39.0945C45.0188 37.7425 43.1787 36.9826 41.26 36.98ZM5.49 49.62V43.93H3.9V49.62H1.58V44.25C1.58 42.7426 2.1781 41.2969 3.24302 40.2301C4.30795 39.1633 5.75265 38.5626 7.26 38.56H12.79C14.117 38.5624 15.4014 39.0295 16.42 39.88C15.4167 40.6179 14.5996 41.5797 14.0336 42.6891C13.4677 43.7985 13.1685 45.0246 13.16 46.27V49.62H5.49ZM33.74 52.34H30.98V45.92H29.4V52.34H19.01V45.92H17.42V52.34H14.79V46.27C14.7926 44.5734 15.4678 42.9471 16.6674 41.7474C17.8671 40.5478 19.4934 39.8726 21.19 39.87H27.34C29.0366 39.8726 30.6629 40.5478 31.8626 41.7474C33.0622 42.9471 33.7374 44.5734 33.74 46.27V52.34ZM46.94 49.62H44.62V43.93H43.04V49.62H35.32V46.27C35.3161 45.028 35.0231 43.804 34.4642 42.6949C33.9053 41.5858 33.0959 40.6221 32.1 39.88C33.1203 39.0324 34.4035 38.5658 35.73 38.56H41.26C42.0067 38.56 42.7462 38.7072 43.436 38.9933C44.1257 39.2794 44.7523 39.6987 45.2799 40.2272C45.8075 40.7557 46.2257 41.383 46.5105 42.0733C46.7954 42.7636 46.9413 43.5032 46.94 44.25V49.62Z" fill="#8C9FB1"/>
<path d="M10.0299 36.16C11.1909 36.16 12.3258 35.8158 13.2911 35.1708C14.2564 34.5258 15.0088 33.609 15.4531 32.5364C15.8974 31.4638 16.0136 30.2835 15.7871 29.1449C15.5606 28.0062 15.0016 26.9603 14.1806 26.1393C13.3597 25.3184 12.3138 24.7593 11.1751 24.5328C10.0364 24.3063 8.85616 24.4226 7.78356 24.8669C6.71096 25.3112 5.79419 26.0635 5.14919 27.0289C4.50418 27.9942 4.15991 29.1291 4.15991 30.29C4.16256 31.8461 4.78185 33.3376 5.88212 34.4378C6.98238 35.5381 8.4739 36.1574 10.0299 36.16ZM10.0299 26C10.8784 26 11.7078 26.2517 12.4133 26.723C13.1188 27.1944 13.6687 27.8644 13.9934 28.6483C14.3181 29.4322 14.403 30.2948 14.2375 31.127C14.0719 31.9592 13.6634 32.7236 13.0634 33.3235C12.4634 33.9235 11.699 34.3321 10.8668 34.4976C10.0347 34.6631 9.1721 34.5782 8.3882 34.2535C7.60431 33.9288 6.9343 33.3789 6.46291 32.6734C5.99152 31.968 5.73991 31.1385 5.73991 30.29C5.74255 29.1531 6.19538 28.0634 6.99934 27.2595C7.8033 26.4555 8.89295 26.0027 10.0299 26Z" fill="#8C9FB1"/>
</g>
<defs>
<filter id="filter0_i_16_10160" x="0" y="0" width="48.53" height="57.92" filterUnits="userSpaceOnUse" color-interpolation-filters="sRGB">
<feFlood flood-opacity="0" result="BackgroundImageFix"/>
<feBlend mode="normal" in="SourceGraphic" in2="BackgroundImageFix" result="shape"/>
<feColorMatrix in="SourceAlpha" type="matrix" values="0 0 0 0 0 0 0 0 0 0 0 0 0 0 0 0 0 0 127 0" result="hardAlpha"/>
<feOffset dy="4"/>
<feGaussianBlur stdDeviation="2"/>
<feComposite in2="hardAlpha" operator="arithmetic" k2="-1" k3="1"/>
<feColorMatrix type="matrix" values="0 0 0 0 0 0 0 0 0 0 0 0 0 0 0 0 0 0 0.25 0"/>
<feBlend mode="normal" in2="shape" result="effect1_innerShadow_16_10160"/>
</filter>
<clipPath id="clip0_16_10160">
<rect width="48.53" height="53.92" fill="white"/>
</clipPath>
</defs>
</svg>
