<?xml version="1.0" encoding="UTF-8"?>
<svg width="700px" height="700px" version="1.1" viewBox="50 -15 600 600" xmlns="http://www.w3.org/2000/svg" xmlns:xlink="http://www.w3.org/1999/xlink">
 <g>
  <path d="m116.86 352.89h64.094v-19.051c0-20.883 8.5352-39.867 22.277-53.609 13.758-13.758 32.727-22.277 53.609-22.277h80.305v-50.836h-64.094c-11.289 0-21.555-4.6211-28.996-12.078l-0.050781-0.050781c-7.4414-7.4414-12.078-17.723-12.078-29.016v-102.9c0-11.289 4.6211-21.555 12.078-29.016l0.035156-0.015625-0.035156-0.035156c7.4414-7.4414 17.742-12.078 29.062-12.078h153.89c11.324 0 21.605 4.6211 29.062 12.078 7.4414 7.4414 12.078 17.742 12.078 29.062v102.9c0 11.324-4.6211 21.605-12.078 29.062-0.26953 0.26953-0.55469 0.51953-0.83984 0.77344-7.375 6.9883-17.32 11.289-28.223 11.289h-64.094v50.836h80.305c20.883 0 39.867 8.5352 53.609 22.277 13.742 13.742 22.277 32.727 22.277 53.609v19.051h64.094c11.324 0 21.605 4.6211 29.062 12.078 7.4414 7.4414 12.078 17.742 12.078 29.062v102.9c0 11.324-4.6211 21.605-12.078 29.062-0.26953 0.26953-0.55469 0.51953-0.83984 0.77344-7.375 6.9883-17.32 11.289-28.207 11.289h-153.89c-11.289 0-21.555-4.6211-28.996-12.078l-0.050782-0.050781c-7.4414-7.4414-12.078-17.723-12.078-28.996v-102.9c0-11.289 4.6211-21.555 12.078-29.016l0.035156-0.035156-0.035156-0.015625c7.4414-7.4609 17.742-12.078 29.062-12.078h64.094v-19.051c0-13.777-5.6445-26.324-14.75-35.43-9.1055-9.1055-21.637-14.75-35.43-14.75h-186.31c-13.793 0-26.324 5.6445-35.43 14.75-9.1055 9.1055-14.75 21.656-14.75 35.43v19.051h64.094c11.324 0 21.605 4.6211 29.062 12.078 7.4414 7.4414 12.078 17.742 12.078 29.062v102.9c0 11.324-4.6211 21.605-12.078 29.062-0.26953 0.26953-0.55469 0.51953-0.83984 0.77344-7.375 6.9883-17.32 11.289-28.223 11.289h-153.89c-11.289 0-21.555-4.6211-28.996-12.078l-0.050781-0.050781c-7.4414-7.4414-12.078-17.723-12.078-28.996v-102.9c0-11.289 4.6211-21.555 12.078-29.016l0.035157-0.035156-0.035157-0.015625c7.4414-7.4609 17.742-12.078 29.062-12.078zm310.08-305.23h-153.89c-4.2344 0-8.082 1.7461-10.887 4.5352l-0.015625-0.035156c-2.7891 2.8047-4.5195 6.6523-4.5195 10.902v102.9c0 4.25 1.7305 8.1133 4.5195 10.902 2.8047 2.7734 6.6523 4.5195 10.902 4.5195h153.89c4 0 7.6602-1.5273 10.398-4.0312l0.46875-0.50391c2.8047-2.8047 4.5352-6.6523 4.5352-10.887v-102.9c0-4.2344-1.7461-8.082-4.5352-10.887-2.8047-2.8047-6.6523-4.5352-10.887-4.5352zm156.21 330.95h-153.89c-4.2344 0-8.082 1.7461-10.887 4.5352l-0.035157-0.035156c-2.7734 2.8047-4.5195 6.6523-4.5195 10.902v102.9c0 4.25 1.7305 8.0977 4.5195 10.902 2.8047 2.7891 6.6523 4.5195 10.902 4.5195h153.89c4 0 7.6602-1.5273 10.398-4.0312l0.48828-0.50391c2.8047-2.8047 4.5352-6.6523 4.5352-10.887v-102.9c0-4.2344-1.7461-8.082-4.5352-10.887-2.8047-2.8047-6.6523-4.5352-10.887-4.5352zm-312.4 0h-153.89c-4.2344 0-8.082 1.7461-10.871 4.5352l-0.035156-0.035156c-2.7891 2.8047-4.5195 6.6523-4.5195 10.902v102.9c0 4.25 1.7305 8.0977 4.5195 10.902 2.8047 2.7891 6.6523 4.5195 10.902 4.5195h153.89c4 0 7.6602-1.5273 10.398-4.0312l0.46875-0.50391c2.8047-2.8047 4.5352-6.6523 4.5352-10.887v-102.9c0-4.2344-1.7461-8.082-4.5352-10.887-2.8047-2.8047-6.6523-4.5352-10.887-4.5352z"/>
 </g>
</svg>
