<?xml version="1.0" encoding="UTF-8"?>
<svg width="86px" height="61px" viewBox="0 0 86 61" version="1.1" xmlns="http://www.w3.org/2000/svg" xmlns:xlink="http://www.w3.org/1999/xlink">
    <!-- Generator: sketchtool 50 (54983) - http://www.bohemiancoding.com/sketch -->
    <title>688373FE-2C83-4B55-94DC-A6E55AC9DD14</title>
    <desc>Created with sketchtool.</desc>
    <defs></defs>
    <g id="Symbols" stroke="none" stroke-width="1" fill="none" fill-rule="evenodd">
        <g id="Fields-above-the-fold" transform="translate(-205.000000, -164.000000)">
            <g id="above-the-fold">
                <g id="sum" transform="translate(128.000000, 139.000000)">
                    <g id="4-copy" transform="translate(0.000000, 26.000000)">
                        <g id="icon-coins" transform="translate(78.000000, 0.000000)">
                            <path d="M19.807374,43 C12.6008906,44.0341523 8,45.6049834 8,47.3657432 C8,50.4769124 22.3799054,53 40.1186664,53 C52.8106552,53 63.7834532,51.7079631 69,49.8339432 L56.0158202,50.5483534 L38.4995532,50.5483534 L25.4224442,48 L21.0136669,45.8872626 L19.807374,43 Z" id="Fill-1" fill="#FE8255"></path>
                            <path d="M69,49.8339432 C63.7834532,51.7079631 52.8106552,53 40.1186664,53 C22.3799054,53 8,50.4769124 8,47.3657432 C8,45.6049834 12.6008906,44.0341523 19.807374,43" id="Stroke-3" stroke="#4A4A4A" stroke-width="2" stroke-linejoin="bevel"></path>
                            <path d="M8,47 L8,53.366778 C8,56.4778568 22.3265777,59 39.9995549,59 C57.6734223,59 72,56.4778568 72,53.366778 L72,48.9645709" id="Stroke-5" stroke="#4A4A4A" stroke-width="2" stroke-linejoin="bevel"></path>
                            <path d="M20.0908029,37.5485068 C20.0311578,37.6987572 20,37.8499351 20,38.0020404 C20,41.3149694 34.3272687,44 52,44 C69.6727313,44 84,41.3149694 84,38.0020404 C84,36.4642923 80.9100317,35.0610276 75.8313025,34 L68.3587604,37.1487665 L40.8944528,39.4053051 L20.0908029,37.5485068 Z" id="Fill-7" fill="#FE8255"></path>
                            <path d="M75.8320791,34 C80.910879,35.0619551 84,36.4642923 84,38.0020404 C84,41.3149694 69.6734223,44 52.0004451,44 C34.3265777,44 20,41.3149694 20,38.0020404 C20,37.8499351 20.030268,37.6987572 20.0908041,37.5485068" id="Stroke-9" stroke="#4A4A4A" stroke-width="2" stroke-linejoin="bevel"></path>
                            <path d="M20,38 L20,44.366778 C20,47.4778568 34.3265777,50 52.0004451,50 C69.6734223,50 84,47.4778568 84,44.366778 L84,38" id="Stroke-11" stroke="#4A4A4A" stroke-width="2" stroke-linejoin="bevel"></path>
                            <path d="M62.6437802,22 C70.7315798,23.0013647 76,24.6364722 76,26.4839645 C76,29.5298533 61.6734223,32 44.0004451,32 C26.327468,32 12,29.5298533 12,26.4839645 C12,24.7379734 16.7057907,23.1813374 24.0493525,22.1705902 L25.3873781,22 L36.5171162,24.7695326 L47.047725,27.3949164 L52.6125941,27.8051859 L58.4347415,27.8870693 L61.0885368,26.999147 L62.6437802,22 Z" id="Fill-13" fill="#FE8255"></path>
                            <path d="M62.6437802,22.1953753 C70.7315798,23.2773123 76,25.0439846 76,27.0401307 C76,30.3310992 61.6734223,33 44.0004451,33 C26.327468,33 12,30.3310992 12,27.0401307 C12,25.1536528 16.4342685,23.346431 25.4666092,22" id="Stroke-15" stroke="#4A4A4A" stroke-width="2" stroke-linejoin="bevel"></path>
                            <path d="M12,27 L12,33.3659068 C12,36.4778568 26.327468,39 44.0004451,39 C61.6734223,39 76,36.4778568 76,33.3659068 L76,27" id="Stroke-17" stroke="#4A4A4A" stroke-width="2" stroke-linejoin="bevel"></path>
                            <path d="M62.9441641,21.6227155 C61.9333472,24.6342553 47.4845588,22.5427106 30.6703517,16.9516288 C13.8561446,11.3614358 1.04591547,4.38813899 2.05583943,1.37748808 C3.0657634,-1.63405172 17.5154447,0.456604007 34.3296518,6.04768586 C51.142966,11.6387677 63.9540881,18.6111757 62.9441641,21.6227155" id="Fill-19" fill="#FE8255"></path>
                            <path d="M62.9441641,21.6227155 C61.9333472,24.6342553 47.4845588,22.5427106 30.6703517,16.9516288 C13.8561446,11.3614358 1.04591547,4.38813899 2.05583943,1.37748808 C3.0657634,-1.63405172 17.5154447,0.456604007 34.3296518,6.04768586 C51.142966,11.6387677 63.9540881,18.6111757 62.9441641,21.6227155 Z" id="Stroke-21" stroke="#4A4A4A" stroke-width="2" stroke-linejoin="bevel"></path>
                            <path d="M2.12272047,1 L0.0559212969,7.20978373 C-0.954712252,10.2430105 11.8540859,17.2706725 28.6652429,22.9053436 C45.4763999,28.5391188 59.9225673,30.6469695 60.9332008,27.6119511 L63,21.4030632" id="Stroke-23" stroke="#4A4A4A" stroke-width="2" stroke-linejoin="bevel"></path>
                        </g>
                    </g>
                </g>
            </g>
        </g>
    </g>
</svg>