<?xml version="1.0" encoding="UTF-8"?>
<svg width="81px" height="88px" viewBox="0 0 81 88" version="1.1" xmlns="http://www.w3.org/2000/svg" xmlns:xlink="http://www.w3.org/1999/xlink">
    <!-- Generator: sketchtool 50 (54983) - http://www.bohemiancoding.com/sketch -->
    <title>B8638966-F935-40EE-8288-242F7F66C23B</title>
    <desc>Created with sketchtool.</desc>
    <defs></defs>
    <g id="Symbols" stroke="none" stroke-width="1" fill="none" fill-rule="evenodd">
        <g id="Fields-above-the-fold" transform="translate(-742.000000, -139.000000)">
            <g id="above-the-fold">
                <g id="sum" transform="translate(128.000000, 139.000000)">
                    <g id="icon-ovdim" transform="translate(614.000000, 0.000000)">
                        <path d="M6,72 C6,72.5522847 5.55228475,73 5,73 C4.44771525,73 4,72.5522847 4,72 L4,64.6404869 C4,57.6884726 9.62013901,52 16.5,52 C23.379861,52 29,57.6884726 29,64.6404869 L29,72 C29,72.5522847 28.5522847,73 28,73 C27.4477153,73 27,72.5522847 27,72 L27,64.6404869 C27,58.7876677 22.2698448,54 16.5,54 C10.7301552,54 6,58.7876677 6,64.6404869 L6,72 Z" id="Stroke-1" fill="#4A4A4A" fill-rule="nonzero"></path>
                        <path d="M11.3434247,39.3434247 C8.21885844,42.4679909 8.21885844,47.5329664 11.3434247,50.6565753 C14.4679909,53.7811416 19.5329664,53.7811416 22.6565753,50.6565753 C25.7811416,47.5329664 25.7811416,42.4679909 22.6565753,39.3434247 C19.5329664,36.2188584 14.4679909,36.2188584 11.3434247,39.3434247" id="Fill-3" fill="#FE8255"></path>
                        <path d="M10.6363179,38.6363179 C14.1514265,35.1212093 19.8496505,35.1212093 23.3636821,38.6363179 C26.8787907,42.1514265 26.8787907,47.8496505 23.3637904,51.3635738 C19.8496505,54.8787907 14.1514265,54.8787907 10.6364262,51.3637904 C7.12120931,47.8496505 7.12120931,42.1514265 10.6363179,38.6363179 Z M12.0505315,40.0505315 C9.31650757,42.7845553 9.31650757,47.2162823 12.0505315,49.9494685 C14.7845553,52.6834924 19.2162823,52.6834924 21.9495769,49.9493602 C24.6834924,47.2162823 24.6834924,42.7845553 21.9493602,40.0504231 C19.2162823,37.3165076 14.7845553,37.3165076 12.0505315,40.0505315 Z" id="Stroke-5" fill="#4A4A4A" fill-rule="nonzero"></path>
                        <path d="M32,36 C32,36.5522847 31.5522847,37 31,37 C30.4477153,37 30,36.5522847 30,36 L30,28.6404869 C30,21.6887864 35.6200417,16 42.5004741,16 C49.3801184,16 55,21.6889479 55,28.6404869 L55,36 C55,36.5522847 54.5522847,37 54,37 C53.4477153,37 53,36.5522847 53,36 L53,28.6404869 C53,22.7880859 48.2700435,18 42.5004741,18 C36.7300907,18 32,22.7879496 32,28.6404869 L32,36 Z" id="Stroke-7" fill="#4A4A4A" fill-rule="nonzero"></path>
                        <path d="M36.3434247,3.34342467 C33.2188584,6.46799091 33.2188584,11.5329664 36.3434247,14.6565753 C39.4679909,17.7811416 44.5329664,17.7811416 47.6565753,14.6565753 C50.7811416,11.5329664 50.7811416,6.46799091 47.6565753,3.34342467 C44.5329664,0.218858442 39.4679909,0.218858442 36.3434247,3.34342467" id="Fill-9" fill="#FE8255"></path>
                        <path d="M35.6363179,2.63631789 C39.1514265,-0.878790688 44.8496505,-0.878790688 48.3636821,2.63631789 C51.8787907,6.15142647 51.8787907,11.8496505 48.3637904,15.3635738 C44.8496505,18.8787907 39.1514265,18.8787907 35.6364262,15.3637904 C32.1212093,11.8496505 32.1212093,6.15142647 35.6363179,2.63631789 Z M37.0505315,4.05053146 C34.3165076,6.78455534 34.3165076,11.2162823 37.0505315,13.9494685 C39.7845553,16.6834924 44.2162823,16.6834924 46.9495769,13.9493602 C49.6834924,11.2162823 49.6834924,6.78455534 46.9493602,4.05042311 C44.2162823,1.31650757 39.7845553,1.31650757 37.0505315,4.05053146 Z" id="Stroke-11" fill="#4A4A4A" fill-rule="nonzero"></path>
                        <path d="M55,71 C55,71.5522847 54.5522847,72 54,72 C53.4477153,72 53,71.5522847 53,71 L53,63.6401152 C53,56.6884209 58.6197162,51 65.4995259,51 C72.3802838,51 78,56.6884209 78,63.6401152 L78,71 C78,71.5522847 77.5522847,72 77,72 C76.4477153,72 76,71.5522847 76,71 L76,63.6401152 C76,57.7875868 71.2702376,53 65.5004741,53 C59.7297624,53 55,57.7875868 55,63.6401152 L55,71 Z" id="Stroke-13" fill="#4A4A4A" fill-rule="nonzero"></path>
                        <path d="M59.3435298,38.3435298 C56.2188234,41.467279 56.2188234,46.533439 59.3435298,49.6571882 C62.467279,52.7809373 67.533439,52.7809373 70.6571882,49.6571882 C73.7809373,46.533439 73.7809373,41.467279 70.6571882,38.3435298 C67.533439,35.2188234 62.467279,35.2188234 59.3435298,38.3435298" id="Fill-15" fill="#FE8255"></path>
                        <path d="M71.3642949,37.6364231 C74.8785684,41.1506965 74.8785684,46.8500215 71.3642949,50.3642949 C67.8500215,53.8785684 62.1506965,53.8785684 58.6365314,50.3644033 C55.1211923,46.8501412 55.1211562,41.15073 58.636423,37.636423 C62.15073,34.1211562 67.8501412,34.1211923 71.3642949,37.6364231 Z M60.0507449,39.0505283 C57.3164906,41.783945 57.3164906,46.216773 60.0506366,48.9500814 C62.7838614,51.6833062 67.2168565,51.6833062 69.9500814,48.9500814 C72.6833062,46.2168565 72.6833062,41.7838614 69.9499731,39.0505283 C67.216773,36.3164906 62.783945,36.3164906 60.0507449,39.0505283 Z" id="Stroke-17" fill="#4A4A4A" fill-rule="nonzero"></path>
                        <path d="M23.5785344,9.09315559 C24.0793708,8.86038659 24.6740754,9.0776981 24.9068444,9.57853443 C25.1396134,10.0793708 24.9223019,10.6740754 24.4214656,10.9068444 L23.5146212,11.32831 C23.0137848,11.561079 22.4190802,11.3437675 22.1863112,10.8429311 C21.9535422,10.3420948 22.1708537,9.74739017 22.67169,9.51462116 L23.5785344,9.09315559 Z M17.3685926,12.6989493 C17.8192282,12.3796593 18.4433761,12.4861359 18.762666,12.9367714 C19.081956,13.3874069 18.9754794,14.0115549 18.5248439,14.3308448 L17.7088961,14.9089705 C17.2582606,15.2282604 16.6341127,15.1217838 16.3148227,14.6711483 C15.9955328,14.2205128 16.1020094,13.5963649 16.5526449,13.2770749 L17.3685926,12.6989493 Z M11.904263,17.3528096 C12.2914409,16.9589674 12.9245828,16.9535648 13.3184251,17.3407426 C13.7122674,17.7279205 13.71767,18.3610624 13.3304921,18.7549047 L12.6294446,19.4680193 C12.2422667,19.8618615 11.6091248,19.8672641 11.2152825,19.4800862 C10.8214402,19.0929084 10.8160376,18.4597664 11.2032155,18.0659242 L11.904263,17.3528096 Z M7.32113332,22.9176353 C7.63361911,22.4622552 8.25609744,22.3464164 8.71147759,22.6589022 C9.16685773,22.971388 9.28269649,23.5938663 8.9702107,24.0492464 L8.40440512,24.8737851 C8.09191933,25.3291653 7.469441,25.445004 7.01406086,25.1325182 C6.55868072,24.8200325 6.44284196,24.1975541 6.75532775,23.742174 L7.32113332,22.9176353 Z M3.80352229,29.1300595 C4.03334675,28.6278652 4.62676524,28.4070657 5.12895959,28.6368902 C5.63115393,28.8667146 5.85195336,29.4601331 5.6221289,29.9623275 L5.20599491,30.8716308 C4.97617045,31.3738251 4.38275196,31.5946246 3.88055761,31.3648001 C3.37836326,31.1349756 3.15756384,30.5415572 3.3873883,30.0393628 L3.80352229,29.1300595 Z M1.38481417,35.9068428 C1.52500894,35.3726482 2.07170954,35.0532482 2.60590414,35.193443 C3.14009874,35.3336378 3.45949872,35.8803384 3.31930396,36.414533 L3.06545888,37.3817779 C2.92526412,37.9159725 2.37856352,38.2353724 1.84436891,38.0951777 C1.31017431,37.9549829 0.990774335,37.4082823 1.1309691,36.8740877 L1.38481417,35.9068428 Z M0.157612443,43.0163996 C0.204897536,42.4661428 0.689300964,42.0584037 1.23955778,42.1056888 C1.7898146,42.1529739 2.19755374,42.6373773 2.15026865,43.1876341 L2.06465141,44.1839622 C2.01736632,44.734219 1.53296289,45.1419582 0.982706075,45.0946731 C0.432449258,45.047388 0.0247101141,44.5629846 0.0719952075,44.0127277 L0.157612443,43.0163996 Z" id="Stroke-19" fill="#4A4A4A" fill-rule="nonzero"></path>
                        <path d="M80.8533198,49.0810384 C80.8085635,49.6315067 80.3260387,50.0414672 79.7755704,49.996711 C79.2251021,49.9519547 78.8151415,49.4694299 78.8598978,48.9189616 L78.9409362,47.9222506 C78.9856925,47.3717824 79.4682173,46.9618218 80.0186856,47.006578 C80.5691538,47.0513343 80.9791144,47.5338591 80.9343582,48.0843274 L80.8533198,49.0810384 Z M80.8240262,41.9150899 C80.8749507,42.4650218 80.4704253,42.9521122 79.9204934,43.0030367 C79.3705614,43.0539612 78.883471,42.6494358 78.8325465,42.0995038 L78.7403396,41.1037639 C78.6894151,40.553832 79.0939405,40.0667416 79.6438724,40.0158171 C80.1938044,39.9648926 80.6808948,40.3694181 80.7318193,40.91935 L80.8240262,41.9150899 Z M79.5310369,34.8322911 C79.6779055,35.3646896 79.3653717,35.9153442 78.8329733,36.0622127 C78.3005749,36.2090813 77.7499202,35.8965475 77.6030517,35.3641491 L77.3371227,34.4001565 C77.1902542,33.867758 77.5027879,33.3171034 78.0351864,33.1702349 C78.5675848,33.0233663 79.1182395,33.3359001 79.265108,33.8682985 L79.5310369,34.8322911 Z M77.0209984,28.1156771 C77.2592454,28.6139309 77.0484682,29.2109827 76.5502145,29.4492297 C76.0519607,29.6874767 75.4549089,29.4766995 75.2166619,28.9784458 L74.7852775,28.0762775 C74.5470306,27.5780237 74.7578077,26.9809719 75.2560615,26.7427249 C75.7543152,26.5044779 76.3513671,26.7152551 76.589614,27.2135088 L77.0209984,28.1156771 Z M73.3583747,21.9264023 C73.6803798,22.3751016 73.5776739,22.9998811 73.1289746,23.3218863 C72.6802752,23.6438915 72.0554957,23.5411855 71.7334906,23.0924862 L71.1504486,22.2800441 C70.8284434,21.8313448 70.9311493,21.2065653 71.3798487,20.8845601 C71.828548,20.562555 72.4533275,20.6652609 72.7753327,21.1139602 L73.3583747,21.9264023 Z M68.693479,16.4977407 C69.0885899,16.8836239 69.0960704,17.5167447 68.7101872,17.9118556 C68.324304,18.3069665 67.6911833,18.314447 67.2960724,17.9285638 L66.5806608,17.2298605 C66.1855499,16.8439773 66.1780694,16.2108565 66.5639526,15.8157456 C66.9498358,15.4206348 67.5829565,15.4131542 67.9780674,15.7990374 L68.693479,16.4977407 Z M63.1123024,11.9332572 C63.5689583,12.2438757 63.6873449,12.8658745 63.3767263,13.3225304 C63.0661078,13.7791862 62.444109,13.8975728 61.9874531,13.5869543 L61.1606046,13.0245296 C60.7039487,12.7139111 60.5855621,12.0919123 60.8961807,11.6352564 C61.2067992,11.1786006 61.828798,11.060214 62.2854539,11.3708325 L63.1123024,11.9332572 Z M56.7949884,8.4128487 C57.2994439,8.63766647 57.5261351,9.22885932 57.3013174,9.73331488 C57.0764996,10.2377704 56.4853068,10.4644617 55.9808512,10.2396439 L55.0674536,9.83257532 C54.562998,9.60775755 54.3363068,9.01656471 54.5611246,8.51210914 C54.7859424,8.00765358 55.3771352,7.78096236 55.8815908,8.00578012 L56.7949884,8.4128487 Z" id="Stroke-21" fill="#4A4A4A" fill-rule="nonzero"></path>
                        <path d="M14.3560315,78.606405 C13.933505,78.2507511 13.879294,77.6199111 14.234948,77.1973845 C14.5906019,76.774858 15.2214419,76.720647 15.6439685,77.076301 L16.4090205,77.7202695 C16.8315471,78.0759235 16.885758,78.7067634 16.530104,79.12929 C16.1744501,79.5518165 15.5436101,79.6060275 15.1210835,79.2503735 L14.3560315,78.606405 Z M20.2356406,82.7240486 C19.7568328,82.4488006 19.5918149,81.8375175 19.867063,81.3587096 C20.142311,80.8799018 20.7535941,80.7148839 21.2324019,80.9901319 L22.0993603,81.4885126 C22.5781681,81.7637606 22.743186,82.3750437 22.4679379,82.8538515 C22.1926899,83.3326594 21.5814068,83.4976772 21.102599,83.2224292 L20.2356406,82.7240486 Z M26.7569632,85.7268575 C26.2364566,85.5422192 25.9641815,84.9705863 26.1488198,84.4500797 C26.3334581,83.9295731 26.905091,83.657298 27.4255976,83.8419363 L28.3680582,84.1762535 C28.8885648,84.3608918 29.1608399,84.9325247 28.9762016,85.4530313 C28.7915633,85.9735379 28.2199305,86.245813 27.6994238,86.0611747 L26.7569632,85.7268575 Z M33.7542349,87.507748 C33.2087922,87.4210838 32.8368787,86.9086599 32.9235429,86.3632172 C33.010207,85.8177745 33.5226309,85.445861 34.0680736,85.5325251 L35.0556851,85.6894445 C35.6011278,85.7761087 35.9730413,86.2885325 35.8863771,86.8339753 C35.799713,87.379418 35.2872891,87.7513315 34.7418463,87.6646673 L33.7542349,87.507748 Z M40.8786079,87.9902761 C40.3264606,88.0025941 39.868871,87.5649759 39.856553,87.0128286 C39.844235,86.4606812 40.2818532,86.0030916 40.8340005,85.9907736 L41.8337518,85.9684699 C42.3858991,85.9561519 42.8434887,86.3937701 42.8558067,86.9459175 C42.8681247,87.4980648 42.4305065,87.9556544 41.8783592,87.9679724 L40.8786079,87.9902761 Z M48.006009,87.2251587 C47.4634086,87.3281304 46.9400689,86.9717408 46.8370973,86.4291403 C46.7341256,85.8865399 47.0905151,85.3632002 47.6331156,85.2602286 L48.6155807,85.0737818 C49.1581812,84.9708102 49.6815208,85.3271997 49.7844925,85.8698002 C49.8874642,86.4124007 49.5310746,86.9357403 48.9884741,87.038712 L48.006009,87.2251587 Z M54.9112481,85.3447396 C54.3915766,85.5317154 53.8187258,85.2620123 53.63175,84.7423407 C53.4447742,84.2226692 53.7144773,83.6498184 54.2341489,83.4628426 L55.1750974,83.1242929 C55.6947689,82.9373171 56.2676198,83.2070203 56.4545956,83.7266918 C56.6415714,84.2463634 56.3718682,84.8192142 55.8521967,85.00619 L54.9112481,85.3447396 Z M61.4613207,82.3299339 C60.9825442,82.6052365 60.3712423,82.4402883 60.0959397,81.9615118 C59.8206371,81.4827353 59.9855853,80.8714334 60.4643617,80.5961308 L61.3312633,80.0976514 C61.8100397,79.8223488 62.4213416,79.9872969 62.6966442,80.4660734 C62.9719468,80.9448499 62.8069987,81.5561518 62.3282222,81.8314544 L61.4613207,82.3299339 Z M67.2871889,78.1415096 C66.8761565,78.5103873 66.2439144,78.4762142 65.8750367,78.0651818 C65.5061589,77.6541494 65.540332,77.0219073 65.9513645,76.6530295 L66.6956045,75.9851173 C67.1066369,75.6162395 67.738879,75.6504127 68.1077568,76.0614451 C68.4766345,76.4724775 68.4424614,77.1047196 68.031429,77.4735974 L67.2871889,78.1415096 Z" id="Stroke-23" fill="#4A4A4A" fill-rule="nonzero"></path>
                    </g>
                </g>
            </g>
        </g>
    </g>
</svg>