<?xml version="1.0" encoding="UTF-8"?>
<svg version="1.1" xmlns="http://www.w3.org/2000/svg" xmlns:xlink="http://www.w3.org/1999/xlink" width="24px" height="24px" viewBox="87 0 525 525">
 <g fill="#8C9FB1">
  <path d="m391.9 373.21c4.3633-3.8711 4.7773-10.547 0.90625-14.914-3.8906-4.375-10.555-4.7656-14.922-0.90234-44.195 39.137-73.27 86.98-86.438 142.19-1.3516 5.6758 2.1445 11.375 7.832 12.727 5.6172 1.3516 11.363-2.1094 12.723-7.8281 12.137-50.906 39.02-95.074 79.898-131.27z"/>
  <path d="m593.02 398c5.8398 0 10.566-4.7305 10.566-10.566 0-5.8359-4.7266-10.566-10.566-10.566h-76.141c17.652-16.609 32.52-26.523 38.188-30.059h37.953c5.8398 0 10.566-4.7305 10.566-10.566 0-5.8359-4.7266-10.566-10.566-10.566h-2.9531l-0.003906-120.93c0-4.332-2.4297-8.3477-6.4453-10.25l-87.488-43.004 0.003906-52.723c0-4.0156-2.2188-7.8203-5.707-9.9336l-69.312-39.938c-3.4883-2.0078-7.8203-2.0078-11.41 0l-69.316 39.941c-3.5938 2.1133-5.8125 5.918-5.8125 9.9336v52.723l-87.379 43.004c-3.9102 1.9023-6.4453 5.918-6.4453 10.25v120.93l-75.23-0.003907v-57.422c21.027-7.2891 36.664-36.137 36.664-70.477 0-39.941-21.133-124.36-47.23-124.36s-47.23 84.422-47.23 124.36c0 34.34 15.637 63.184 36.664 70.477v57.422h-37.406c-5.8398 0-10.566 4.7305-10.566 10.566 0 5.8359 4.7266 10.566 10.566 10.566h143.66c-7.1445 5.7656-15.117 12.789-23.477 21.133h-120.19c-5.8398 0-10.566 4.7305-10.566 10.566 0 5.8359 4.7266 10.566 10.566 10.566h101.01c-8.1836 9.8906-16.27 20.898-23.805 33.258l-77.203-0.003906c-5.8398 0-10.566 4.7305-10.566 10.566 0 5.8359 4.7266 10.566 10.566 10.566h65.602c-2.9844 6.0312-5.7812 12.316-8.4023 18.836h-57.199c-5.8398 0-10.566 4.7305-10.566 10.566 0 5.8359 4.7266 10.566 10.566 10.566h49.777c-1.6211 5.2852-3.2344 10.586-4.5625 16.152-1.582 6.6328 3.4453 13.016 10.289 13.016 4.7773 0 9.1094-3.2656 10.266-8.1172 23.109-96.938 99.531-148.59 114.1-157.68h33.035c-31.453 25.375-79.98 75.293-98.449 152.77-1.582 6.6328 3.4453 13.016 10.289 13.016 4.7773 0 9.1094-3.2656 10.266-8.1172 23.109-96.938 99.531-148.59 114.1-157.68h101.86c-31.457 25.379-79.98 75.297-98.453 152.77-1.3516 5.6758 2.1445 11.375 7.832 12.727 5.6055 1.3477 11.359-2.1055 12.723-7.8281 23.109-96.938 99.543-148.59 114.11-157.68h24.699c-50.266 40.555-84.859 95.746-98.453 152.77-1.582 6.6328 3.4453 13.016 10.289 13.016 4.7773 0 9.1094-3.2656 10.266-8.1172 1.7383-7.293 3.8281-14.273 6.125-21.055l145.94 0.015626c5.8398 0 10.566-4.7305 10.566-10.566 0-5.8359-4.7266-10.566-10.566-10.566h-137.57c2.9414-6.5703 6.0938-12.828 9.4219-18.836h125.2c5.8398 0 10.566-4.7305 10.566-10.566 0-5.8359-4.7266-10.566-10.566-10.566h-112.24c6.1094-8.8984 12.453-16.988 18.816-24.332zm-121.19-171.16v98.844h-45.836l0.003906-109.38c0-0.011719-0.003906-0.019531-0.003906-0.027344h35.273c5.832 0 10.562 4.7305 10.562 10.566zm-56.422-122.04c15.637 0 28.211 12.574 28.211 28.211 0 15.531-12.574 28.211-28.211 28.211-15.531 0-28.211-12.68-28.211-28.211 0-15.637 12.68-28.211 28.211-28.211zm-45.855 111.47h35.316c0 0.011719-0.003907 0.019531-0.003907 0.027344v109.38h-45.879v-98.844c0-5.832 4.7305-10.562 10.566-10.562z"/>
 </g>
</svg>