<?xml version="1.0" encoding="UTF-8"?>
<svg width="89px" height="57px" viewBox="0 0 89 57" version="1.1" xmlns="http://www.w3.org/2000/svg" xmlns:xlink="http://www.w3.org/1999/xlink">
    <!-- Generator: sketchtool 50 (54983) - http://www.bohemiancoding.com/sketch -->
    <title>1D6A172A-3B9A-4D56-9B93-22D05F4BA359</title>
    <desc>Created with sketchtool.</desc>
    <defs>
        <polygon id="path-1" points="0 57 88.998 57 88.998 0.369 0 0.369"></polygon>
    </defs>
    <g id="Pages" stroke="none" stroke-width="1" fill="none" fill-rule="evenodd">
        <g id="Areas" transform="translate(-619.000000, -240.000000)">
            <g id="Group-2" transform="translate(336.000000, 239.000000)">
                <g id="Group-3-Copy-3" transform="translate(218.000000, 0.000000)">
                    <g id="icon-madad" transform="translate(65.000000, 0.000000)">
                        <g transform="translate(0.000000, 0.630600)">
                            <path d="M33.2652354,34.2309509 L12.8863797,46.4836221 C12.4130594,46.7682032 11.798659,46.6151999 11.5140779,46.1418797 C11.2294968,45.6685594 11.3825001,45.054159 11.8558203,44.7695779 L32.7508203,32.2065779 C33.0683473,32.0156666 33.4654049,32.0159607 33.7826487,32.2073422 L50.9537959,42.5660598 L71.8097104,13.7187086 C72.1332893,13.2711428 72.7584256,13.1706315 73.2059914,13.4942104 C73.6535572,13.8177893 73.7540685,14.4429256 73.4304896,14.8904914 L52.0354896,44.4834914 C51.7307793,44.9049586 51.1538737,45.0225043 50.7085513,44.7538578 L33.2652354,34.2309509 Z" id="Stroke-1" fill="#4A4A4A" fill-rule="nonzero"></path>
                            <path d="M48.7549,43.6861 C48.7549,45.0501 49.8609,46.1571 51.2259,46.1571 C52.5899,46.1571 53.6959,45.0501 53.6959,43.6861 C53.6959,42.3221 52.5899,41.2151 51.2259,41.2151 C49.8609,41.2151 48.7549,42.3221 48.7549,43.6861" id="Fill-2" fill="#EAF9DE"></path>
                            <path d="M47.7549,43.6861 C47.7549,41.7695324 49.308898,40.2151 51.2259,40.2151 C53.1421193,40.2151 54.6959,41.7697497 54.6959,43.6861 C54.6959,45.6024503 53.1421193,47.1571 51.2259,47.1571 C49.308898,47.1571 47.7549,45.6026676 47.7549,43.6861 Z M49.7549,43.6861 C49.7549,44.4982232 50.4135926,45.1571 51.2259,45.1571 C52.0372994,45.1571 52.6959,44.4981311 52.6959,43.6861 C52.6959,42.8740689 52.0372994,42.2151 51.2259,42.2151 C50.4135926,42.2151 49.7549,42.8739768 49.7549,43.6861 Z" id="Stroke-4" fill="#4A4A4A" fill-rule="nonzero"></path>
                            <path d="M30.7168,33.0191 C30.7168,34.3831 31.8228,35.4901 33.1878,35.4901 C34.5518,35.4901 35.6578,34.3831 35.6578,33.0191 C35.6578,31.6551 34.5518,30.5481 33.1878,30.5481 C31.8228,30.5481 30.7168,31.6551 30.7168,33.0191" id="Fill-6" fill="#EAF9DE"></path>
                            <path d="M29.7168,33.0191 C29.7168,31.1025324 31.270798,29.5481 33.1878,29.5481 C35.1040193,29.5481 36.6578,31.1027497 36.6578,33.0191 C36.6578,34.9354503 35.1040193,36.4901 33.1878,36.4901 C31.270798,36.4901 29.7168,34.9356676 29.7168,33.0191 Z M31.7168,33.0191 C31.7168,33.8312232 32.3754926,34.4901 33.1878,34.4901 C33.9991994,34.4901 34.6578,33.8311311 34.6578,33.0191 C34.6578,32.2070689 33.9991994,31.5481 33.1878,31.5481 C32.3754926,31.5481 31.7168,32.2069768 31.7168,33.0191 Z" id="Stroke-8" fill="#4A4A4A" fill-rule="nonzero"></path>
                            <path d="M72.5674547,14.2702341 L65.2861041,14.3146814 C64.7338297,14.3180526 64.2833899,13.8730786 64.2800186,13.3208041 C64.2766474,12.7685297 64.7216214,12.3180899 65.2738959,12.3147186 L73.4648959,12.2647186 C73.9806035,12.2615706 74.4141256,12.6511217 74.46594,13.1642294 L75.28894,21.3142294 C75.3444284,21.8637196 74.9439608,22.3541516 74.3944706,22.40964 C73.8449804,22.4651284 73.3545484,22.0646608 73.29906,21.5151706 L72.5674547,14.2702341 Z" id="Stroke-10" fill="#4A4A4A" fill-rule="nonzero"></path>
                            <path d="M13.7467812,30.4256238 C13.288206,30.7334017 12.6669541,30.6111564 12.3591762,30.1525812 C12.0513983,29.694006 12.1736436,29.0727541 12.6322188,28.7649762 L13.4625426,28.207695 C13.9211178,27.899917 14.5423697,28.0221624 14.8501476,28.4807376 C15.1579256,28.9393127 15.0356802,29.5605647 14.577105,29.8683426 L13.7467812,30.4256238 Z M19.5590479,26.5246553 C19.1004728,26.8324332 18.4792208,26.7101879 18.1714429,26.2516127 C17.863665,25.7930375 17.9859103,25.1717856 18.4444855,24.8640076 L19.2748093,24.3067264 C19.7333845,23.9989485 20.3546364,24.1211938 20.6624144,24.579769 C20.9701923,25.0383442 20.8479469,25.6595961 20.3893718,25.9673741 L19.5590479,26.5246553 Z M25.3713147,22.6236867 C24.9127395,22.9314646 24.2914875,22.8092193 23.9837096,22.3506441 C23.6759317,21.892069 23.798177,21.270817 24.2567522,20.9630391 L25.087076,20.4057579 C25.5456512,20.09798 26.1669032,20.2202253 26.4746811,20.6788005 C26.782459,21.1373757 26.6602137,21.7586276 26.2016385,22.0664055 L25.3713147,22.6236867 Z M31.1835814,18.7227182 C30.7250062,19.0304961 30.1037543,18.9082508 29.7959763,18.4496756 C29.4881984,17.9911004 29.6104438,17.3698485 30.0690189,17.0620706 L30.8993428,16.5047893 C31.3579179,16.1970114 31.9791699,16.3192567 32.2869478,16.7778319 C32.5947257,17.2364071 32.4724804,17.857659 32.0139052,18.165437 L31.1835814,18.7227182 Z M35.9928805,18.9493321 C35.5227828,18.6594587 35.3766822,18.0433803 35.6665557,17.5732827 C35.9564292,17.103185 36.5725075,16.9570844 37.0426052,17.2469579 L37.8937923,17.7718202 C38.36389,18.0616937 38.5099905,18.677772 38.2201171,19.1478697 C37.9302436,19.6179674 37.3141653,19.764068 36.8440676,19.4741945 L35.9928805,18.9493321 Z M41.9511903,22.6233686 C41.4810927,22.3334951 41.3349921,21.7174168 41.6248656,21.2473191 C41.914739,20.7772214 42.5308174,20.6311208 43.000915,20.9209943 L43.8521021,21.4458567 C44.3221998,21.7357301 44.4683004,22.3518085 44.1784269,22.8219061 C43.8885535,23.2920038 43.2724751,23.4381044 42.8023775,23.1482309 L41.9511903,22.6233686 Z M47.9095002,26.297405 C47.4394025,26.0075315 47.2933019,25.3914532 47.5831754,24.9213555 C47.8730489,24.4512578 48.4891272,24.3051573 48.9592249,24.5950307 L49.810412,25.1198931 C50.2805097,25.4097666 50.4266103,26.0258449 50.1367368,26.4959426 C49.8468633,26.9660402 49.230785,27.1121408 48.7606873,26.8222673 L47.9095002,26.297405 Z M53.4902231,30.2843565 C53.0607531,29.9371187 52.9940907,29.3074728 53.3413285,28.8780029 C53.6885662,28.4485329 54.3182121,28.3818706 54.747682,28.7291083 L55.5253061,29.3578378 C55.9547761,29.7050755 56.0214384,30.3347214 55.6742007,30.7641914 C55.326963,31.1936613 54.6973171,31.2603237 54.2678471,30.9130859 L53.4902231,30.2843565 Z M58.9335917,34.6854629 C58.5041217,34.3382252 58.4374594,33.7085793 58.7846971,33.2791093 C59.1319348,32.8496394 59.7615807,32.782977 60.1910507,33.1302147 L60.9686747,33.7589442 C61.3981447,34.1061819 61.464807,34.7358279 61.1175693,35.1652978 C60.7703316,35.5947677 60.1406857,35.6614301 59.7112158,35.3141924 L58.9335917,34.6854629 Z M64.3769603,39.0865694 C63.9474904,38.7393317 63.880828,38.1096857 64.2280657,37.6802158 C64.5753034,37.2507459 65.2049493,37.1840835 65.6344193,37.5313212 L66.4120434,38.1600507 C66.8415133,38.5072884 66.9081757,39.1369344 66.560938,39.5664043 C66.2137002,39.9958742 65.5840543,40.0625366 65.1545844,39.7152989 L64.3769603,39.0865694 Z M69.8203289,43.4876758 C69.390859,43.1404381 69.3241966,42.5107922 69.6714343,42.0813223 C70.018672,41.6518523 70.648318,41.58519 71.0777879,41.9324277 L71.855412,42.5611572 C72.2848819,42.9083949 72.3515443,43.5380408 72.0043066,43.9675107 C71.6570689,44.3969807 71.0274229,44.4636431 70.597953,44.1164053 L69.8203289,43.4876758 Z" id="Stroke-12" fill="#4A4A4A" fill-rule="nonzero"></path>
                            <mask id="mask-2" fill="white">
                                <use xlink:href="#path-1"></use>
                            </mask>
                            <g id="Clip-15"></g>
                            <path d="M4.1,57 C3.54771525,57 3.1,56.5522847 3.1,56 L3.1,7.474 C3.1,6.92171525 3.54771525,6.474 4.1,6.474 L84.167,6.474 C84.7192847,6.474 85.167,6.92171525 85.167,7.474 L85.167,56 C85.167,56.5522847 84.7192847,57 84.167,57 L4.1,57 Z M5.1,55 L83.167,55 L83.167,8.474 L5.1,8.474 L5.1,55 Z" id="Stroke-14" fill="#4A4A4A" fill-rule="nonzero" mask="url(#mask-2)"></path>
                            <path d="M4.0518,7.4733 L84.9458,7.4733 C86.6308,7.4733 87.9978,6.1073 87.9978,4.4213 C87.9978,2.7363 86.6308,1.3693 84.9458,1.3693 L4.0518,1.3693 C2.3658,1.3693 0.9998,2.7363 0.9998,4.4213 C0.9998,6.1073 2.3658,7.4733 4.0518,7.4733" id="Fill-16" fill="#FE8255" mask="url(#mask-2)"></path>
                            <path d="M4.0518,8.4733 C1.81351525,8.4733 -0.0002,6.65958475 -0.0002,4.4213 C-0.0002,2.1837205 1.81380991,0.3693 4.0518,0.3693 L84.9458,0.3693 C87.1830847,0.3693 88.9978,2.18401525 88.9978,4.4213 C88.9978,6.65929009 87.1833795,8.4733 84.9458,8.4733 L4.0518,8.4733 Z M4.0518,6.4733 L84.9458,6.4733 C86.0789113,6.4733 86.9978,5.55461925 86.9978,4.4213 C86.9978,3.28858475 86.0785153,2.3693 84.9458,2.3693 L4.0518,2.3693 C2.91848075,2.3693 1.9998,3.28818869 1.9998,4.4213 C1.9998,5.55501525 2.91808475,6.4733 4.0518,6.4733 Z" id="Stroke-17" fill="#4A4A4A" fill-rule="nonzero" mask="url(#mask-2)"></path>
                        </g>
                    </g>
                </g>
            </g>
        </g>
    </g>
</svg>