<?xml version="1.0" encoding="UTF-8"?>
<svg width="59px" height="72px" viewBox="0 0 59 72" version="1.1" xmlns="http://www.w3.org/2000/svg" xmlns:xlink="http://www.w3.org/1999/xlink">
    <!-- Generator: sketchtool 50 (54983) - http://www.bohemiancoding.com/sketch -->
    <title>22B3D307-603F-4DF4-A89D-2060519D8A87</title>
    <desc>Created with sketchtool.</desc>
    <defs></defs>
    <g id="Symbols" stroke="none" stroke-width="1" fill="none" fill-rule="evenodd">
        <g id="Fields-above-the-fold" transform="translate(-1015.000000, -146.000000)">
            <g id="above-the-fold">
                <g id="sum" transform="translate(128.000000, 139.000000)">
                    <g id="2" transform="translate(793.000000, 6.000000)">
                        <g id="icon-hadash" transform="translate(93.000000, 0.000000)">
                            <path d="M6.85836728,71.5130357 L6.34533159,72.371403 L4.62859703,71.3453316 L5.14163272,70.4869643 C10.834567,60.9620353 21.1368555,55 32.4729094,55 C43.1630204,55 52.954651,60.2970991 58.8275661,68.9549205 L59.3889344,69.7824866 L57.7338021,70.9052231 L57.1724339,70.0776569 C51.6681932,61.9633336 42.4935245,57 32.4729094,57 C21.8472093,57 12.1935488,62.5866679 6.85836728,71.5130357 Z" id="Stroke-1" fill="#4A4A4A" fill-rule="nonzero"></path>
                            <path d="M37.8181624,26.8184368 C39.9117436,24.7247634 42.6034658,23.2446352 45.7427333,22.29014 C49.6120015,21.113688 53.6557798,20.8386517 57.1769412,21.0647574 C57.5602675,21.0893721 57.8356245,21.1143884 57.9884807,21.1319095 C58.4505669,21.1848762 58.8151293,21.5494387 58.868096,22.0115248 C58.8856164,22.1643751 58.9106317,22.4397214 58.9352454,22.8230331 C59.1613553,26.3442751 58.8862864,30.3881682 57.7097317,34.2575499 C56.7552727,37.396517 55.2752705,40.0880381 53.1818376,42.1815632 C51.0882564,44.2752366 48.3965342,45.7553648 45.2572667,46.70986 C41.3879985,47.886312 37.3442202,48.1613483 33.8230588,47.9352426 C33.4397325,47.9106279 33.1643755,47.8856116 33.0115193,47.8680905 C32.5494331,47.8151238 32.1848707,47.4505613 32.131904,46.9884752 C32.1143836,46.8356249 32.0893683,46.5602786 32.0647546,46.1769669 C31.8386447,42.6557249 32.1137136,38.6118318 33.2902683,34.7424501 C34.2447273,31.603483 35.7247295,28.9119619 37.8181624,26.8184368 Z M46.3245355,24.2036463 C43.4792209,25.068765 41.0730976,26.3918477 39.2324071,28.2326193 C37.3918304,30.073277 36.0688534,32.4792333 35.2037652,35.324283 C34.1197959,38.8891754 33.8540763,42.6672087 34.0541935,45.9458019 C37.3327224,46.1459195 41.1106637,45.8802324 44.6754645,44.7963537 C47.5207791,43.931235 49.9269024,42.6081523 51.7675929,40.7673807 C53.6081696,38.926723 54.9311466,36.5207667 55.7962348,33.675717 C56.8802041,30.1108246 57.1459237,26.3327913 56.9458065,23.0541981 C53.6672776,22.8540805 49.8893363,23.1197676 46.3245355,24.2036463 Z" id="Stroke-3" fill="#4A4A4A" fill-rule="nonzero"></path>
                            <path d="M57.3832026,21.212878 C57.8179181,20.8722302 58.4464742,20.9484872 58.787122,21.3832026 C59.1277698,21.8179181 59.0515128,22.4464742 58.6167974,22.787122 C58.5679969,22.8253626 58.4720097,22.901031 58.3319866,23.0121167 C58.0977088,23.1979782 57.8256883,23.4152424 57.5190768,23.6618976 C56.6421088,24.3673791 55.6645299,25.1663372 54.6115729,26.0426582 C51.6035476,28.5460801 48.5957888,31.1663102 45.790844,33.7735654 C44.2421846,35.2130768 42.7973669,36.6105319 41.4759856,37.9531896 C37.7137656,41.7759872 35.0855323,45.0182292 33.8978633,47.4402744 C33.6547065,47.9361506 33.0556018,48.1410201 32.5597256,47.8978633 C32.0638494,47.6547065 31.8589799,47.0556018 32.1021367,46.5597256 C33.409053,43.8944964 36.1480032,40.5156718 40.0505228,36.5503154 C41.3939448,35.1852623 42.8598376,33.7674229 44.429195,32.3086722 C47.2636167,29.6740176 50.2980362,27.0305619 53.3321893,24.5053951 C54.3939947,23.6217101 55.3801238,22.8157641 56.2654578,22.1035525 C56.575652,21.8540151 56.8512039,21.6339304 57.0889713,21.4453004 C57.2321753,21.3316912 57.3313001,21.2535494 57.3832026,21.212878 Z" id="Stroke-5" fill="#4A4A4A" fill-rule="nonzero"></path>
                            <g id="Group-10" transform="translate(32.000000, 29.000000)">
                                <path d="M0.8306,0.744165217 L0.8306,25.2101652" id="Fill-7" fill="#EAF9DE"></path>
                                <polygon id="Stroke-9" fill="#4A4A4A" fill-rule="nonzero" points="-0.1694 -0.255834783 1.8306 -0.255834783 1.8306 26.2101652 -0.1694 26.2101652"></polygon>
                            </g>
                            <path d="M26.2898827,6.62846706 C34.745184,14.0976282 32.80894,30.0256666 32.80894,30.0256666 C32.80894,30.0256666 17.1651941,33.841254 8.70989272,26.3709907 C0.255697787,18.9018296 2.19083546,2.97489335 2.19083546,2.97489335 C2.19083546,2.97489335 17.8345813,-0.841796177 26.2898827,6.62846706" id="Fill-11" fill="#FE8255"></path>
                            <path d="M31.906848,28.8724504 C32.1699831,25.0637542 31.9497807,20.7487161 30.8848295,16.6899711 C29.8587836,12.7795024 28.1405267,9.59756566 25.6278325,7.37792657 C23.3281975,5.34619781 20.300537,4.0665745 16.7076479,3.4430083 C12.9244201,2.78640775 8.85200233,2.89540011 4.96722316,3.47644537 C4.28226049,3.57889503 3.661912,3.68838006 3.11731968,3.79767718 C3.10935572,3.89906757 3.10121099,4.00907088 3.09304225,4.12737221 C2.83005513,7.93600911 3.05040573,12.2512323 4.1155429,16.3101958 C5.14161859,20.220306 6.85970843,23.4020078 9.37199777,25.6215797 C11.6715898,27.6532705 14.6992662,28.9329877 18.29217,29.5567158 C22.0756643,30.2135305 26.148355,30.1047107 30.033297,29.5238277 C30.7179979,29.42145 31.3381117,29.3120429 31.8825052,29.2028227 C31.8904903,29.1012379 31.8986571,28.9910083 31.906848,28.8724504 Z M32.8193463,16.1823842 C33.9483715,20.4853278 34.1789287,25.0032779 33.9020919,29.0102977 C33.8805466,29.3221518 33.8573886,29.5994707 33.8341212,29.8393323 C33.8198933,29.9860074 33.8085637,30.0893195 33.8016322,30.1463402 C33.7513932,30.5596186 33.4503623,30.8985356 33.0458985,30.9971864 C32.9083089,31.0307451 32.6570433,31.0869607 32.3034991,31.158202 C31.720838,31.2756115 31.0589076,31.3927098 30.3290525,31.5018389 C26.2501304,32.1117262 21.9749333,32.2259568 17.9500864,31.5272434 C14.0184782,30.8447161 10.6532408,29.422321 8.04779388,27.1204073 C5.20397815,24.6079365 3.30004438,21.0820735 2.18104109,16.8178401 C1.05182374,12.5146836 0.821112108,7.99655576 1.0977932,3.98959987 C1.11931334,3.67794049 1.14244426,3.40079779 1.16568443,3.16109089 C1.17989585,3.01450956 1.19121229,2.91126394 1.19813596,2.85427943 C1.24834976,2.44100037 1.54935736,2.10206641 1.95381235,2.00338934 C2.09143981,1.96981162 2.34277404,1.91356402 2.69641304,1.84228209 C3.27923125,1.72480521 3.94133498,1.6076398 4.67137468,1.49844798 C8.75013528,0.888388973 13.0250627,0.773976741 17.0496466,1.47246602 C20.9812557,2.154819 24.3464991,3.57711633 26.9519603,5.87903179 C29.7962443,8.39159931 31.7003719,11.9177458 32.8193463,16.1823842 Z" id="Stroke-13" fill="#4A4A4A" fill-rule="nonzero"></path>
                            <g id="Group-18" transform="translate(1.000000, 2.000000)" fill="#4A4A4A" fill-rule="nonzero">
                                <path d="M0.725023984,2.18032105 C0.236326511,1.92304061 0.0487259382,1.31830603 0.306006378,0.829608556 C0.563286817,0.340911082 1.1680214,0.15331051 1.65671887,0.410590949 C1.73230675,0.450385061 1.87368952,0.526470758 2.07649294,0.638139552 C2.4112861,0.822485309 2.79872671,1.04098546 3.23444208,1.29293443 C4.47588995,2.01079182 5.85777356,2.85388869 7.34513428,3.81663164 C11.5933459,6.5664258 15.8414319,9.72674561 19.8100634,13.2545619 C25.121506,17.9760367 29.5175936,22.9947852 32.6860803,28.2698266 C32.9704569,28.7432698 32.8171882,29.357604 32.3437451,29.6419806 C31.8703019,29.9263572 31.2559677,29.7730885 30.9715911,29.2996454 C27.9181105,24.2160714 23.6520158,19.3457281 18.4813055,14.7493537 C14.5947063,11.294458 10.4264737,8.19354421 6.25836671,5.49560045 C4.80001592,4.55163513 3.44659599,3.72590414 2.23328426,3.02431625 C1.80983378,2.77945936 1.43454551,2.56781261 1.11181379,2.3901082 C0.920102265,2.28454689 0.789708084,2.21437474 0.725023984,2.18032105 Z" id="Stroke-17"></path>
                            </g>
                            <g id="Group-22" transform="translate(21.000000, 3.000000)">
                                <path d="M0.0659,0.848342857 L2.0449,15.9569143" id="Fill-19" fill="#EAF9DE"></path>
                                <polygon id="Stroke-21" fill="#4A4A4A" fill-rule="nonzero" points="-0.925630265 0.978218696 1.05743026 0.718467018 3.03643026 15.8270384 1.05336974 16.0867901"></polygon>
                            </g>
                            <g id="Group-26" transform="translate(1.000000, 12.000000)">
                                <path d="M0.999423077,0.8829 L15.4917308,0.8829" id="Fill-23" fill="#EAF9DE"></path>
                                <polygon id="Stroke-25" fill="#4A4A4A" fill-rule="nonzero" points="0.999423077 1.8829 0.999423077 -0.1171 15.4917308 -0.1171 15.4917308 1.8829"></polygon>
                            </g>
                            <g id="Group-30" transform="translate(6.000000, 24.000000)">
                                <path d="M22.1074905,0.6407 L0.917919048,1.2067" id="Fill-27" fill="#EAF9DE"></path>
                                <polygon id="Stroke-29" fill="#4A4A4A" fill-rule="nonzero" points="22.0807887 -0.358943445 22.1341922 1.64034345 0.944620776 2.20634345 0.891217319 0.207056555"></polygon>
                            </g>
                            <g id="Group-34" transform="translate(39.000000, 23.000000)">
                                <path d="M3.7114,0.732228571 L0.7774,15.2179429" id="Fill-31" fill="#EAF9DE"></path>
                                <polygon id="Stroke-33" fill="#4A4A4A" fill-rule="nonzero" points="2.01384435 1.83417771 3.98615565 2.16582229 1.76355565 15.3837651 -0.208755651 15.0521206"></polygon>
                            </g>
                            <g id="Group-38" transform="translate(46.000000, 31.000000)">
                                <path d="M1.40647273,0.9776 L12.5653818,0.6926" id="Fill-35" fill="#EAF9DE"></path>
                                <polygon id="Stroke-37" fill="#4A4A4A" fill-rule="nonzero" points="0.0255318052 2.28467401 -0.0255318052 0.28532599 11.1333773 0.000325989673 11.1844409 1.99967401"></polygon>
                            </g>
                        </g>
                    </g>
                </g>
            </g>
        </g>
    </g>
</svg>