<?xml version="1.0" encoding="UTF-8"?>
<svg width="73px" height="84px" viewBox="0 0 73 84" version="1.1" xmlns="http://www.w3.org/2000/svg" xmlns:xlink="http://www.w3.org/1999/xlink">
    <!-- Generator: sketchtool 49.2 (51160) - http://www.bohemiancoding.com/sketch -->
    <title>DA374540-69B0-4DF8-8B22-08D03A12F481</title>
    <desc>Created with sketchtool.</desc>
    <defs>
        <polygon id="path-1" points="0 83.0869565 72.3439125 83.0869565 72.3439125 0.591652174 0 0.591652174"></polygon>
    </defs>
    <g id="Symbols" stroke="none" stroke-width="1" fill="none" fill-rule="evenodd">
        <g id="Fields-above-the-fold" transform="translate(-211.000000, -152.000000)">
            <g id="above-the-fold">
                <g id="sum" transform="translate(128.000000, 140.000000)">
                    <g id="4-copy" transform="translate(0.000000, 12.000000)">
                        <g id="Page-1" transform="translate(83.000000, 0.000000)">
                            <g id="icon-semel">
                                <g transform="translate(0.000000, 0.321848)">
                                    <g id="Group-10" transform="translate(29.112500, 44.652174)">
                                        <path d="M12.0784713,15.0991261 C12.0784713,15.6514108 11.630756,16.0991261 11.0784713,16.0991261 C10.5261865,16.0991261 10.0784713,15.6514108 10.0784713,15.0991261 L10.0784713,8.21660435 C10.0784713,7.6643196 10.5261865,7.21660435 11.0784713,7.21660435 C11.630756,7.21660435 12.0784713,7.6643196 12.0784713,8.21660435 L12.0784713,15.0991261 Z" id="Stroke-2" fill="#4A4A4A" fill-rule="nonzero"></path>
                                        <path d="M1.30898125,8.21651304 C1.30898125,7.66422829 1.7566965,7.21651304 2.30898125,7.21651304 C2.861266,7.21651304 3.30898125,7.66422829 3.30898125,8.21651304 L3.30898125,15.0990348 C3.30898125,15.6513195 2.861266,16.0990348 2.30898125,16.0990348 C1.7566965,16.0990348 1.30898125,15.6513195 1.30898125,15.0990348 L1.30898125,8.21651304 Z" id="Stroke-3" fill="#4A4A4A" fill-rule="nonzero"></path>
                                        <polygon id="Fill-4" fill="#EAF9DE" points="13.670975 22.1716522 25.7424375 22.1716522 25.7424375 15.2891304 13.670975 15.2891304"></polygon>
                                        <path d="M14.6707012,22.1716522 C14.6707012,22.7239369 14.222986,23.1716522 13.6707012,23.1716522 C13.1184165,23.1716522 12.6707012,22.7239369 12.6707012,22.1716522 L12.6707012,15.2891304 C12.6707012,14.7368457 13.1184165,14.2891304 13.6707012,14.2891304 C14.222986,14.2891304 14.6707012,14.7368457 14.6707012,15.2891304 L14.6707012,22.1716522 Z" id="Stroke-5" fill="#4A4A4A" fill-rule="nonzero"></path>
                                        <path d="M0.599695,15.2890391 C0.599695,14.7367544 1.04741025,14.2890391 1.599695,14.2890391 C2.15197975,14.2890391 2.599695,14.7367544 2.599695,15.2890391 L2.599695,22.1715609 C2.599695,22.7238456 2.15197975,23.1715609 1.599695,23.1715609 C1.04741025,23.1715609 0.599695,22.7238456 0.599695,22.1715609 L0.599695,15.2890391 Z" id="Stroke-6" fill="#4A4A4A" fill-rule="nonzero"></path>
                                        <path d="M1.45086625,7.98825217 C1.45086625,4.53055652 4.01590375,1.72751304 7.17954125,1.72751304 C10.3431787,1.72751304 12.9091287,4.53055652 12.9091287,7.98825217" id="Fill-7" fill="#EAF9DE"></path>
                                        <path d="M2.45086625,7.98825217 C2.45086625,8.54053692 2.003151,8.98825217 1.45086625,8.98825217 C0.8985815,8.98825217 0.45086625,8.54053692 0.45086625,7.98825217 C0.45086625,3.99719472 3.44275176,0.727513043 7.17954125,0.727513043 C10.9164511,0.727513043 13.9091287,3.99734087 13.9091287,7.98825217 C13.9091287,8.54053692 13.4614135,8.98825217 12.9091287,8.98825217 C12.356844,8.98825217 11.9091287,8.54053692 11.9091287,7.98825217 C11.9091287,5.0643099 9.77039851,2.72751304 7.17954125,2.72751304 C4.5889117,2.72751304 2.45086625,5.06407573 2.45086625,7.98825217 Z" id="Stroke-9" fill="#4A4A4A" fill-rule="nonzero"></path>
                                    </g>
                                    <mask id="mask-2" fill="white">
                                        <use xlink:href="#path-1"></use>
                                    </mask>
                                    <g id="Clip-12"></g>
                                    <path d="M17.8293375,67.9142174 C17.2770528,67.9142174 16.8293375,67.4665021 16.8293375,66.9142174 L16.8293375,59.85 C16.8293375,59.2977153 17.2770528,58.85 17.8293375,58.85 L54.7545625,58.85 C55.3068472,58.85 55.7545625,59.2977153 55.7545625,59.85 L55.7545625,66.9142174 C55.7545625,67.4665021 55.3068472,67.9142174 54.7545625,67.9142174 L17.8293375,67.9142174 Z M53.7545625,65.9142174 L53.7545625,60.85 L18.8293375,60.85 L18.8293375,65.9142174 L53.7545625,65.9142174 Z" id="Stroke-11" fill="#4A4A4A" fill-rule="nonzero" mask="url(#mask-2)"></path>
                                    <path d="M22.547875,60.7513913 C21.9955903,60.7513913 21.547875,60.3036761 21.547875,59.7513913 L21.547875,52.8688696 C21.547875,52.3165848 21.9955903,51.8688696 22.547875,51.8688696 L50.0369375,51.8688696 C50.5892222,51.8688696 51.0369375,52.3165848 51.0369375,52.8688696 L51.0369375,59.7513913 C51.0369375,60.3036761 50.5892222,60.7513913 50.0369375,60.7513913 L22.547875,60.7513913 Z M23.547875,58.7513913 L49.0369375,58.7513913 L49.0369375,53.8688696 L23.547875,53.8688696 L23.547875,58.7513913 Z" id="Stroke-13" fill="#4A4A4A" fill-rule="nonzero" mask="url(#mask-2)"></path>
                                    <path d="M37.292315,46.2500348 C37.292315,46.8023195 36.8445997,47.2500348 36.292315,47.2500348 C35.7400303,47.2500348 35.292315,46.8023195 35.292315,46.2500348 L35.292315,38.4973826 C35.292315,37.9450979 35.7400303,37.4973826 36.292315,37.4973826 C36.8445997,37.4973826 37.292315,37.9450979 37.292315,38.4973826 L37.292315,46.2500348 Z" id="Stroke-14" fill="#4A4A4A" fill-rule="nonzero" mask="url(#mask-2)"></path>
                                    <path d="M23.3674912,8.78137826 C23.3674912,8.22909351 23.8152065,7.78137826 24.3674912,7.78137826 C24.919776,7.78137826 25.3674912,8.22909351 25.3674912,8.78137826 C25.3674912,15.8581682 30.303822,21.5637696 36.2920412,21.5637696 C42.2796764,21.5637696 47.2165912,15.8577945 47.2165912,8.78137826 C47.2165912,8.22909351 47.6643065,7.78137826 48.2165912,7.78137826 C48.768876,7.78137826 49.2165912,8.22909351 49.2165912,8.78137826 C49.2165912,16.903219 43.4537601,23.5637696 36.2920412,23.5637696 C29.1297114,23.5637696 23.3674912,16.9035734 23.3674912,8.78137826 Z" id="Stroke-15" fill="#4A4A4A" fill-rule="nonzero" mask="url(#mask-2)"></path>
                                    <path d="M60.62222,8.78137826 C60.62222,8.22909351 61.0699353,7.78137826 61.62222,7.78137826 C62.1745047,7.78137826 62.62222,8.22909351 62.62222,8.78137826 C62.62222,25.4485104 50.8468303,39.0590304 36.2921325,39.0590304 C21.7378775,39.0590304 9.9611325,25.4479593 9.9611325,8.78137826 C9.9611325,8.22909351 10.4088478,7.78137826 10.9611325,7.78137826 C11.5134172,7.78137826 11.9611325,8.22909351 11.9611325,8.78137826 C11.9611325,24.4025287 22.9119528,37.0590304 36.2921325,37.0590304 C49.6727171,37.0590304 60.62222,24.4031071 60.62222,8.78137826 Z" id="Stroke-16" fill="#4A4A4A" fill-rule="nonzero" mask="url(#mask-2)"></path>
                                    <path d="M53.9192687,8.78137826 C53.9192687,8.22909351 54.366984,7.78137826 54.9192687,7.78137826 C55.4715535,7.78137826 55.9192687,8.22909351 55.9192687,8.78137826 C55.9192687,21.1944889 47.1662124,31.3118565 36.2924062,31.3118565 C25.4178373,31.3118565 16.6646312,21.1946582 16.6646312,8.78137826 C16.6646312,8.22909351 17.1123465,7.78137826 17.6646312,7.78137826 C18.216916,7.78137826 18.6646312,8.22909351 18.6646312,8.78137826 C18.6646312,20.1492496 26.5919431,29.3118565 36.2924062,29.3118565 C45.9920893,29.3118565 53.9192687,20.1490927 53.9192687,8.78137826 Z" id="Stroke-17" fill="#4A4A4A" fill-rule="nonzero" mask="url(#mask-2)"></path>
                                    <path d="M35.292315,8.78137826 C35.292315,8.22909351 35.7400303,7.78137826 36.292315,7.78137826 C36.8445997,7.78137826 37.292315,8.22909351 37.292315,8.78137826 L37.292315,38.0590304 C37.292315,38.6113152 36.8445997,39.0590304 36.292315,39.0590304 C35.7400303,39.0590304 35.292315,38.6113152 35.292315,38.0590304 L35.292315,8.78137826 Z" id="Stroke-18" fill="#4A4A4A" fill-rule="nonzero" mask="url(#mask-2)"></path>
                                    <path d="M70.4315037,58.4713957 L70.4315037,2.50478696 L1.91259125,2.50478696 L1.91259125,58.5444391 C1.91259125,65.318288 7.32554954,71.0722146 14.5682645,71.9179288 C25.3258344,73.1742696 32.7982145,75.3731602 35.3654005,79.0827331 C38.0754394,75.3197275 46.0431191,73.118545 57.5276421,71.8740898 C64.8996823,71.0745552 70.4315037,65.3101385 70.4315037,58.4713957 Z M57.7432361,73.8624357 C44.6867633,75.2772222 36.3457787,78.1426142 36.3457787,82.1740043 C36.3457787,83.5073377 34.3457787,83.5073377 34.3457787,82.1740043 C34.3457787,78.1774185 26.5904406,75.3355517 14.3362867,73.9044299 C6.10836522,72.9436754 -0.08740875,66.3576228 -0.08740875,58.5444391 L-0.08740875,1.50478696 C-0.08740875,0.952502207 0.3603065,0.504786957 0.91259125,0.504786957 L71.4315037,0.504786957 C71.9837885,0.504786957 72.4315037,0.952502207 72.4315037,1.50478696 L72.4315037,58.4713957 C72.4315037,66.3612066 66.1029845,72.9558034 57.7432361,73.8624357 Z" id="Stroke-19" fill="#4A4A4A" fill-rule="nonzero" mask="url(#mask-2)"></path>
                                </g>
                            </g>
                        </g>
                    </g>
                </g>
            </g>
        </g>
    </g>
</svg>