<svg width="109" height="56" viewBox="0 0 109 56" fill="none" xmlns="http://www.w3.org/2000/svg">
<path fill-rule="evenodd" clip-rule="evenodd" d="M88.1797 48.6951C88.1797 29.8698 72.8266 14.6089 53.8876 14.6089C34.9486 14.6089 19.5955 29.8698 19.5955 48.6951H88.1797Z" fill="white"/>
<path opacity="0.5" fill-rule="evenodd" clip-rule="evenodd" d="M3.67419 56H104.101C104.101 25.0721 81.6198 0 53.8877 0C26.1555 0 3.67419 25.0721 3.67419 56Z" fill="white"/>
<path fill-rule="evenodd" clip-rule="evenodd" d="M93.5281 48.695C93.5285 39.8747 90.5469 31.2739 85.0117 24.3005C78.8348 16.5186 69.931 11.3349 60.0751 9.78735C59.5295 9.70167 59.1566 9.18993 59.2421 8.64433C59.3277 8.09873 59.8393 7.72589 60.385 7.81157C70.7348 9.43671 80.0878 14.8806 86.5781 23.0573C92.3943 30.3847 95.5284 39.4239 95.5281 48.695H93.5281ZM12.2471 48.695H14.2471C14.2469 39.8862 17.221 31.2954 22.7438 24.326C28.9147 16.5388 37.8144 11.3479 47.6692 9.79234C48.2147 9.70624 48.5871 9.19419 48.5008 8.64866C48.4146 8.10313 47.9025 7.7307 47.357 7.81681C37.0084 9.45027 27.6599 14.9017 21.1762 23.0836C15.373 30.4068 12.2468 39.4356 12.2471 48.695Z" fill="#08A6A7"/>
<path fill-rule="evenodd" clip-rule="evenodd" d="M93.5281 48.695C93.5285 39.8747 90.5469 31.2739 85.0117 24.3005C78.8348 16.5186 69.931 11.3349 60.0751 9.78735C59.5295 9.70167 59.1566 9.18993 59.2421 8.64433C59.3277 8.09873 59.8393 7.72589 60.385 7.81157C70.7348 9.43671 80.0878 14.8806 86.5781 23.0573C92.3943 30.3847 95.5284 39.4239 95.5281 48.695H93.5281ZM12.2471 48.695H14.2471C14.2469 39.8862 17.221 31.2954 22.7438 24.326C28.9147 16.5388 37.8144 11.3479 47.6692 9.79234C48.2147 9.70624 48.5871 9.19419 48.5008 8.64866C48.4146 8.10313 47.9025 7.7307 47.357 7.81681C37.0084 9.45027 27.6599 14.9017 21.1762 23.0836C15.373 30.4068 12.2468 39.4356 12.2471 48.695Z" fill="url(#paint0_linear_253_7706)"/>
<path d="M30.4156 44.8691C30.3154 44.8691 30.2265 44.8167 30.149 44.7119L27.4898 41.2461C27.3212 41.36 27.1822 41.5788 27.0728 41.9023C27.0409 41.9889 26.9976 42.1325 26.943 42.333C26.8883 42.529 26.8222 42.7865 26.7447 43.1055L26.3551 44.6982C26.3277 44.8122 26.2616 44.8691 26.1568 44.8691H25.4322C25.3183 44.8691 25.2818 44.7985 25.3228 44.6572L25.7262 42.9482C25.8811 42.2783 26.1568 41.7383 26.5533 41.3281L27.1002 40.7676L25.3365 38.4434C25.2955 38.3932 25.2841 38.3408 25.3023 38.2861C25.3251 38.2223 25.3593 38.1904 25.4049 38.1904H26.191C26.3186 38.1904 26.4212 38.2428 26.4986 38.3477L28.8023 41.4238H28.8365C28.9322 41.3646 29.053 41.2074 29.1988 40.9521C29.3811 40.6149 29.5156 40.2458 29.6021 39.8447L29.9371 38.3477C29.9599 38.2428 30.0351 38.1904 30.1627 38.1904H30.8463C30.9876 38.1904 31.04 38.2702 31.0035 38.4297L30.7232 39.6602C30.582 40.2982 30.2743 40.8542 29.8004 41.3281L29.2125 41.916L31.2975 44.6162C31.343 44.6709 31.3567 44.7279 31.3385 44.7871C31.3157 44.8418 31.2792 44.8691 31.2291 44.8691H30.4156ZM34.8251 44.5205C34.7339 44.7529 34.6451 44.8691 34.5585 44.8691H33.827C33.6857 44.8691 33.6447 44.7848 33.704 44.6162L35.7479 39.1133H32.0634C31.9357 39.1133 31.8719 39.0335 31.8719 38.874V36.29C31.8719 36.1943 31.8879 36.1328 31.9198 36.1055C31.9517 36.0781 32.0041 36.0645 32.077 36.0645H32.6923C32.8335 36.0645 32.9042 36.1396 32.9042 36.29V38.1904H36.7938C36.9169 38.1904 36.9784 38.2793 36.9784 38.457C36.9784 38.5482 36.9693 38.6279 36.951 38.6963L34.8251 44.5205ZM43.8556 42.5996C43.8556 43.3424 43.6688 43.9167 43.2951 44.3223C42.9168 44.7324 42.4178 44.9375 41.798 44.9375C41.2602 44.9375 40.8569 44.8874 40.588 44.7871C40.4787 44.7415 40.424 44.6709 40.424 44.5752V44.1719C40.424 44.0306 40.522 43.9691 40.7179 43.9873C40.7817 43.9919 40.8843 43.9964 41.0255 44.001C41.1668 44.001 41.3491 44.001 41.5724 44.001C42.411 44.001 42.8302 43.5726 42.8302 42.7158V40.4053C42.8302 39.9085 42.6912 39.5622 42.4132 39.3662C42.1763 39.1976 41.798 39.1133 41.2785 39.1133H40.7179C40.1938 39.1133 39.811 39.1794 39.5695 39.3115C39.4191 39.389 39.3439 39.4915 39.3439 39.6191V44.6299C39.3439 44.7894 39.2733 44.8691 39.132 44.8691H38.5031C38.3755 44.8691 38.3117 44.7894 38.3117 44.6299V39.79C38.3117 39.6442 38.2456 39.4938 38.1134 39.3389L37.8195 39.0039C37.7056 38.8854 37.6486 38.8057 37.6486 38.7646C37.6486 38.6826 37.7056 38.5938 37.8195 38.498L38.1271 38.2178C38.2319 38.1266 38.3071 38.0811 38.3527 38.0811C38.3983 38.0811 38.4575 38.1175 38.5304 38.1904L38.756 38.416C38.8882 38.5299 39.0386 38.6895 39.2072 38.8945C39.5535 38.5482 39.8931 38.3271 40.2257 38.2314C40.4354 38.1768 40.841 38.1494 41.4425 38.1494C43.0513 38.1494 43.8556 38.8809 43.8556 40.3438V42.5996ZM50.5756 44.6299C50.5756 44.7894 50.5095 44.8691 50.3774 44.8691H49.7485C49.6117 44.8691 49.5434 44.7894 49.5434 44.6299V39.9404C49.5434 39.5394 49.3976 39.2819 49.1059 39.168C48.8735 39.0859 48.338 39.0449 47.4994 39.0449C47.1713 39.0449 46.4991 39.0859 45.4828 39.168C45.255 39.1908 45.141 39.1452 45.141 39.0312V38.5527C45.141 38.4342 45.2504 38.3499 45.4692 38.2998C45.7927 38.2406 46.1414 38.1973 46.5151 38.1699C46.8888 38.138 47.2944 38.1221 47.7319 38.1221C48.7162 38.1221 49.4067 38.2201 49.8032 38.416C50.3181 38.6576 50.5756 39.1201 50.5756 39.8037V44.6299ZM46.351 44.6299C46.351 44.7894 46.2804 44.8691 46.1391 44.8691H45.5102C45.378 44.8691 45.3119 44.7894 45.3119 44.6299V42.3467C45.3119 41.9639 45.4008 41.5811 45.5785 41.1982C45.6332 41.0798 45.7084 41.0205 45.8041 41.0205H46.1938C46.2986 41.0205 46.351 41.0911 46.351 41.2324V44.6299ZM59.8799 42.5176C59.8799 43.4017 59.6315 44.042 59.1348 44.4385C58.6973 44.7803 58.0342 44.9512 57.1455 44.9512C56.7171 44.9512 56.3047 44.9352 55.9082 44.9033C55.5163 44.8714 55.1403 44.8236 54.7803 44.7598C54.5934 44.7188 54.5 44.6208 54.5 44.4658V38.416C54.5 38.2656 54.5752 38.1904 54.7256 38.1904H55.2861C55.4547 38.1904 55.5391 38.2611 55.5391 38.4023V43.9736C55.7305 43.9964 55.9811 44.0146 56.291 44.0283C56.6055 44.0374 56.9837 44.042 57.4258 44.042C58.3782 44.042 58.8545 43.5749 58.8545 42.6406V40.1113C58.8545 39.6921 58.7292 39.4072 58.4785 39.2568C58.3053 39.1429 58.0296 39.0859 57.6514 39.0859C57.6058 39.0859 57.5283 39.0882 57.4189 39.0928C57.3096 39.0973 57.1683 39.1042 56.9951 39.1133C56.8265 39.1178 56.7422 39.0632 56.7422 38.9492V38.5527C56.7422 38.4525 56.7969 38.375 56.9062 38.3203C57.084 38.2246 57.4394 38.1768 57.9726 38.1768C59.2441 38.1768 59.8799 38.8535 59.8799 40.207V42.5176ZM62.3821 44.6299C62.3821 44.7894 62.3115 44.8691 62.1702 44.8691H61.5413C61.4091 44.8691 61.343 44.7894 61.343 44.6299V38.4023C61.343 38.2611 61.4137 38.1904 61.555 38.1904H62.1839C62.316 38.1904 62.3821 38.2656 62.3821 38.416V44.6299ZM68.2544 44.6572C68.2544 44.7985 68.1838 44.8691 68.0425 44.8691H67.4273C67.286 44.8691 67.2154 44.8031 67.2154 44.6709V40.1113C67.2154 39.7285 67.1037 39.4619 66.8804 39.3115C66.6252 39.1338 66.149 39.0449 65.4517 39.0449C65.1373 39.0449 64.841 39.054 64.563 39.0723C64.285 39.0905 64.023 39.1178 63.7769 39.1543C63.5718 39.1908 63.4693 39.1406 63.4693 39.0039V38.6143C63.4693 38.4867 63.5377 38.3978 63.6744 38.3477C64.0982 38.2064 64.7658 38.1357 65.6773 38.1357C67.3954 38.1357 68.2544 38.7988 68.2544 40.125V44.6572ZM70.7635 41.7588C70.7635 41.9183 70.6951 41.998 70.5584 41.998H69.9295C69.7974 41.998 69.7313 41.9183 69.7313 41.7588V38.4023C69.7313 38.2611 69.7974 38.1904 69.9295 38.1904H70.5721C70.6997 38.1904 70.7635 38.2656 70.7635 38.416V41.7588ZM77.4493 42.5039C77.4493 43.3105 77.2625 43.903 76.8888 44.2812C76.4786 44.7096 75.7973 44.9238 74.8448 44.9238C73.9744 44.9238 73.1541 44.8486 72.3839 44.6982C72.2426 44.6709 72.172 44.6025 72.172 44.4932V44.083C72.172 43.9554 72.2517 43.8962 72.4112 43.9053C72.8898 43.9372 73.3364 43.9622 73.7511 43.9805C74.1658 43.9941 74.5532 44.001 74.9132 44.001C75.492 44.001 75.893 43.903 76.1163 43.707C76.2941 43.5521 76.3829 43.2946 76.3829 42.9346V40.248C76.3829 39.8014 76.2918 39.4893 76.1095 39.3115C75.9226 39.1338 75.5672 39.0449 75.0431 39.0449C74.5372 39.0449 74.1316 39.0472 73.8263 39.0518C73.5209 39.0563 73.3136 39.0632 73.2042 39.0723V41.0615C73.2042 41.0889 73.2293 41.1025 73.2794 41.1025H74.7218C74.8767 41.1025 74.9542 41.1686 74.9542 41.3008V41.7725C74.9542 41.9046 74.8813 41.9707 74.7355 41.9707H72.5206C72.3155 41.9707 72.213 41.8545 72.213 41.6221V38.5938C72.213 38.498 72.3201 38.4251 72.5343 38.375C73.1951 38.2155 73.9197 38.1357 74.7081 38.1357C75.811 38.1357 76.5515 38.3408 76.9298 38.751C77.2761 39.1247 77.4493 39.6761 77.4493 40.4053V42.5039ZM81.4008 44.5205C81.3096 44.7529 81.2208 44.8691 81.1342 44.8691H80.4027C80.2614 44.8691 80.2204 44.7848 80.2797 44.6162L82.3236 39.1133H78.6391C78.5114 39.1133 78.4476 39.0335 78.4476 38.874V36.29C78.4476 36.1943 78.4636 36.1328 78.4955 36.1055C78.5274 36.0781 78.5798 36.0645 78.6527 36.0645H79.268C79.4092 36.0645 79.4799 36.1396 79.4799 36.29V38.1904H83.3695C83.4926 38.1904 83.5541 38.2793 83.5541 38.457C83.5541 38.5482 83.545 38.6279 83.5267 38.6963L81.4008 44.5205Z" fill="#08A6A7"/>
<path d="M30.4156 44.8691C30.3154 44.8691 30.2265 44.8167 30.149 44.7119L27.4898 41.2461C27.3212 41.36 27.1822 41.5788 27.0728 41.9023C27.0409 41.9889 26.9976 42.1325 26.943 42.333C26.8883 42.529 26.8222 42.7865 26.7447 43.1055L26.3551 44.6982C26.3277 44.8122 26.2616 44.8691 26.1568 44.8691H25.4322C25.3183 44.8691 25.2818 44.7985 25.3228 44.6572L25.7262 42.9482C25.8811 42.2783 26.1568 41.7383 26.5533 41.3281L27.1002 40.7676L25.3365 38.4434C25.2955 38.3932 25.2841 38.3408 25.3023 38.2861C25.3251 38.2223 25.3593 38.1904 25.4049 38.1904H26.191C26.3186 38.1904 26.4212 38.2428 26.4986 38.3477L28.8023 41.4238H28.8365C28.9322 41.3646 29.053 41.2074 29.1988 40.9521C29.3811 40.6149 29.5156 40.2458 29.6021 39.8447L29.9371 38.3477C29.9599 38.2428 30.0351 38.1904 30.1627 38.1904H30.8463C30.9876 38.1904 31.04 38.2702 31.0035 38.4297L30.7232 39.6602C30.582 40.2982 30.2743 40.8542 29.8004 41.3281L29.2125 41.916L31.2975 44.6162C31.343 44.6709 31.3567 44.7279 31.3385 44.7871C31.3157 44.8418 31.2792 44.8691 31.2291 44.8691H30.4156ZM34.8251 44.5205C34.7339 44.7529 34.6451 44.8691 34.5585 44.8691H33.827C33.6857 44.8691 33.6447 44.7848 33.704 44.6162L35.7479 39.1133H32.0634C31.9357 39.1133 31.8719 39.0335 31.8719 38.874V36.29C31.8719 36.1943 31.8879 36.1328 31.9198 36.1055C31.9517 36.0781 32.0041 36.0645 32.077 36.0645H32.6923C32.8335 36.0645 32.9042 36.1396 32.9042 36.29V38.1904H36.7938C36.9169 38.1904 36.9784 38.2793 36.9784 38.457C36.9784 38.5482 36.9693 38.6279 36.951 38.6963L34.8251 44.5205ZM43.8556 42.5996C43.8556 43.3424 43.6688 43.9167 43.2951 44.3223C42.9168 44.7324 42.4178 44.9375 41.798 44.9375C41.2602 44.9375 40.8569 44.8874 40.588 44.7871C40.4787 44.7415 40.424 44.6709 40.424 44.5752V44.1719C40.424 44.0306 40.522 43.9691 40.7179 43.9873C40.7817 43.9919 40.8843 43.9964 41.0255 44.001C41.1668 44.001 41.3491 44.001 41.5724 44.001C42.411 44.001 42.8302 43.5726 42.8302 42.7158V40.4053C42.8302 39.9085 42.6912 39.5622 42.4132 39.3662C42.1763 39.1976 41.798 39.1133 41.2785 39.1133H40.7179C40.1938 39.1133 39.811 39.1794 39.5695 39.3115C39.4191 39.389 39.3439 39.4915 39.3439 39.6191V44.6299C39.3439 44.7894 39.2733 44.8691 39.132 44.8691H38.5031C38.3755 44.8691 38.3117 44.7894 38.3117 44.6299V39.79C38.3117 39.6442 38.2456 39.4938 38.1134 39.3389L37.8195 39.0039C37.7056 38.8854 37.6486 38.8057 37.6486 38.7646C37.6486 38.6826 37.7056 38.5938 37.8195 38.498L38.1271 38.2178C38.2319 38.1266 38.3071 38.0811 38.3527 38.0811C38.3983 38.0811 38.4575 38.1175 38.5304 38.1904L38.756 38.416C38.8882 38.5299 39.0386 38.6895 39.2072 38.8945C39.5535 38.5482 39.8931 38.3271 40.2257 38.2314C40.4354 38.1768 40.841 38.1494 41.4425 38.1494C43.0513 38.1494 43.8556 38.8809 43.8556 40.3438V42.5996ZM50.5756 44.6299C50.5756 44.7894 50.5095 44.8691 50.3774 44.8691H49.7485C49.6117 44.8691 49.5434 44.7894 49.5434 44.6299V39.9404C49.5434 39.5394 49.3976 39.2819 49.1059 39.168C48.8735 39.0859 48.338 39.0449 47.4994 39.0449C47.1713 39.0449 46.4991 39.0859 45.4828 39.168C45.255 39.1908 45.141 39.1452 45.141 39.0312V38.5527C45.141 38.4342 45.2504 38.3499 45.4692 38.2998C45.7927 38.2406 46.1414 38.1973 46.5151 38.1699C46.8888 38.138 47.2944 38.1221 47.7319 38.1221C48.7162 38.1221 49.4067 38.2201 49.8032 38.416C50.3181 38.6576 50.5756 39.1201 50.5756 39.8037V44.6299ZM46.351 44.6299C46.351 44.7894 46.2804 44.8691 46.1391 44.8691H45.5102C45.378 44.8691 45.3119 44.7894 45.3119 44.6299V42.3467C45.3119 41.9639 45.4008 41.5811 45.5785 41.1982C45.6332 41.0798 45.7084 41.0205 45.8041 41.0205H46.1938C46.2986 41.0205 46.351 41.0911 46.351 41.2324V44.6299ZM59.8799 42.5176C59.8799 43.4017 59.6315 44.042 59.1348 44.4385C58.6973 44.7803 58.0342 44.9512 57.1455 44.9512C56.7171 44.9512 56.3047 44.9352 55.9082 44.9033C55.5163 44.8714 55.1403 44.8236 54.7803 44.7598C54.5934 44.7188 54.5 44.6208 54.5 44.4658V38.416C54.5 38.2656 54.5752 38.1904 54.7256 38.1904H55.2861C55.4547 38.1904 55.5391 38.2611 55.5391 38.4023V43.9736C55.7305 43.9964 55.9811 44.0146 56.291 44.0283C56.6055 44.0374 56.9837 44.042 57.4258 44.042C58.3782 44.042 58.8545 43.5749 58.8545 42.6406V40.1113C58.8545 39.6921 58.7292 39.4072 58.4785 39.2568C58.3053 39.1429 58.0296 39.0859 57.6514 39.0859C57.6058 39.0859 57.5283 39.0882 57.4189 39.0928C57.3096 39.0973 57.1683 39.1042 56.9951 39.1133C56.8265 39.1178 56.7422 39.0632 56.7422 38.9492V38.5527C56.7422 38.4525 56.7969 38.375 56.9062 38.3203C57.084 38.2246 57.4394 38.1768 57.9726 38.1768C59.2441 38.1768 59.8799 38.8535 59.8799 40.207V42.5176ZM62.3821 44.6299C62.3821 44.7894 62.3115 44.8691 62.1702 44.8691H61.5413C61.4091 44.8691 61.343 44.7894 61.343 44.6299V38.4023C61.343 38.2611 61.4137 38.1904 61.555 38.1904H62.1839C62.316 38.1904 62.3821 38.2656 62.3821 38.416V44.6299ZM68.2544 44.6572C68.2544 44.7985 68.1838 44.8691 68.0425 44.8691H67.4273C67.286 44.8691 67.2154 44.8031 67.2154 44.6709V40.1113C67.2154 39.7285 67.1037 39.4619 66.8804 39.3115C66.6252 39.1338 66.149 39.0449 65.4517 39.0449C65.1373 39.0449 64.841 39.054 64.563 39.0723C64.285 39.0905 64.023 39.1178 63.7769 39.1543C63.5718 39.1908 63.4693 39.1406 63.4693 39.0039V38.6143C63.4693 38.4867 63.5377 38.3978 63.6744 38.3477C64.0982 38.2064 64.7658 38.1357 65.6773 38.1357C67.3954 38.1357 68.2544 38.7988 68.2544 40.125V44.6572ZM70.7635 41.7588C70.7635 41.9183 70.6951 41.998 70.5584 41.998H69.9295C69.7974 41.998 69.7313 41.9183 69.7313 41.7588V38.4023C69.7313 38.2611 69.7974 38.1904 69.9295 38.1904H70.5721C70.6997 38.1904 70.7635 38.2656 70.7635 38.416V41.7588ZM77.4493 42.5039C77.4493 43.3105 77.2625 43.903 76.8888 44.2812C76.4786 44.7096 75.7973 44.9238 74.8448 44.9238C73.9744 44.9238 73.1541 44.8486 72.3839 44.6982C72.2426 44.6709 72.172 44.6025 72.172 44.4932V44.083C72.172 43.9554 72.2517 43.8962 72.4112 43.9053C72.8898 43.9372 73.3364 43.9622 73.7511 43.9805C74.1658 43.9941 74.5532 44.001 74.9132 44.001C75.492 44.001 75.893 43.903 76.1163 43.707C76.2941 43.5521 76.3829 43.2946 76.3829 42.9346V40.248C76.3829 39.8014 76.2918 39.4893 76.1095 39.3115C75.9226 39.1338 75.5672 39.0449 75.0431 39.0449C74.5372 39.0449 74.1316 39.0472 73.8263 39.0518C73.5209 39.0563 73.3136 39.0632 73.2042 39.0723V41.0615C73.2042 41.0889 73.2293 41.1025 73.2794 41.1025H74.7218C74.8767 41.1025 74.9542 41.1686 74.9542 41.3008V41.7725C74.9542 41.9046 74.8813 41.9707 74.7355 41.9707H72.5206C72.3155 41.9707 72.213 41.8545 72.213 41.6221V38.5938C72.213 38.498 72.3201 38.4251 72.5343 38.375C73.1951 38.2155 73.9197 38.1357 74.7081 38.1357C75.811 38.1357 76.5515 38.3408 76.9298 38.751C77.2761 39.1247 77.4493 39.6761 77.4493 40.4053V42.5039ZM81.4008 44.5205C81.3096 44.7529 81.2208 44.8691 81.1342 44.8691H80.4027C80.2614 44.8691 80.2204 44.7848 80.2797 44.6162L82.3236 39.1133H78.6391C78.5114 39.1133 78.4476 39.0335 78.4476 38.874V36.29C78.4476 36.1943 78.4636 36.1328 78.4955 36.1055C78.5274 36.0781 78.5798 36.0645 78.6527 36.0645H79.268C79.4092 36.0645 79.4799 36.1396 79.4799 36.29V38.1904H83.3695C83.4926 38.1904 83.5541 38.2793 83.5541 38.457C83.5541 38.5482 83.545 38.6279 83.5267 38.6963L81.4008 44.5205Z" fill="url(#paint1_linear_253_7706)"/>
<path d="M54.8877 19.478C54.8877 18.9257 54.44 18.478 53.8877 18.478C53.3354 18.478 52.8877 18.9257 52.8877 19.478L54.8877 19.478ZM53.1806 32.3588C53.5711 32.7493 54.2043 32.7493 54.5948 32.3588L60.9588 25.9948C61.3493 25.6043 61.3493 24.9711 60.9588 24.5806C60.5682 24.1901 59.9351 24.1901 59.5445 24.5806L53.8877 30.2375L48.2308 24.5806C47.8403 24.1901 47.2072 24.1901 46.8166 24.5806C46.4261 24.9711 46.4261 25.6043 46.8166 25.9948L53.1806 32.3588ZM52.8877 19.478L52.8877 31.6517L54.8877 31.6517L54.8877 19.478L52.8877 19.478Z" fill="#08A6A7"/>
<path d="M54.8877 19.478C54.8877 18.9257 54.44 18.478 53.8877 18.478C53.3354 18.478 52.8877 18.9257 52.8877 19.478L54.8877 19.478ZM53.1806 32.3588C53.5711 32.7493 54.2043 32.7493 54.5948 32.3588L60.9588 25.9948C61.3493 25.6043 61.3493 24.9711 60.9588 24.5806C60.5682 24.1901 59.9351 24.1901 59.5445 24.5806L53.8877 30.2375L48.2308 24.5806C47.8403 24.1901 47.2072 24.1901 46.8166 24.5806C46.4261 24.9711 46.4261 25.6043 46.8166 25.9948L53.1806 32.3588ZM52.8877 19.478L52.8877 31.6517L54.8877 31.6517L54.8877 19.478L52.8877 19.478Z" fill="url(#paint2_linear_253_7706)"/>
<defs>
<linearGradient id="paint0_linear_253_7706" x1="15.4127" y1="42.7311" x2="98.2125" y2="32.0852" gradientUnits="userSpaceOnUse">
<stop stop-color="#00A6CC"/>
<stop offset="1" stop-color="#006DA3"/>
</linearGradient>
<linearGradient id="paint1_linear_253_7706" x1="25.6439" y1="46.387" x2="85.0796" y2="31.5764" gradientUnits="userSpaceOnUse">
<stop stop-color="#00A6CC"/>
<stop offset="1" stop-color="#006DA3"/>
</linearGradient>
<linearGradient id="paint2_linear_253_7706" x1="53.0335" y1="19.9408" x2="58.9782" y2="27.6751" gradientUnits="userSpaceOnUse">
<stop stop-color="#00A6CC"/>
<stop offset="1" stop-color="#006DA3"/>
</linearGradient>
</defs>
</svg>
