<?xml version="1.0" encoding="UTF-8" standalone="no"?>
<svg
   xmlns:svg="http://www.w3.org/2000/svg"
   xmlns="http://www.w3.org/2000/svg"
   version="1.1"
   viewBox="0 0 20 25"
   height="25"
   width="20">
  <path d="m 9.9999994,0.82433 c -4.89105,0 -8.8494494,3.9580181 -8.8496094,8.8300781 0,4.8116859 3.8626156,8.7258209 8.6699219,8.8222659 l 0,4.861328 6.9687501,-8.019531 c 0.01722,-0.02054 0.0357,-0.03985 0.05273,-0.06055 l 0.03906,-0.04492 -0.0078,0.0039 c 1.234945,-1.517991 1.976557,-3.45234 1.976557,-5.5624929 0,-4.87206 -3.95856,-8.8300781 -8.8496096,-8.8300781 z"/>
  <path d="m 4.63322,11.03481 1.30362,0 a 0.572751,0.572751 0 0 1 0.57095,0.57095 l 0,1.29413 a 0.572751,0.572751 0 0 1 -0.57095,0.57095 l -1.30362,0 A 0.572751,0.572751 0 0 1 4.06227,12.89989 l 0,-1.29413 a 0.572587,0.572587 0 0 1 0.57095,-0.57095 z m 3.01647,-2.85475 1.29414,0 a 0.572751,0.572751 0 0 1 0.57095,0.57095 l 0,4.14888 a 0.572751,0.572751 0 0 1 -0.57095,0.57095 l -1.29414,0 A 0.572751,0.572751 0 0 1 7.07874,12.89989 l 0,-4.14888 A 0.572587,0.572587 0 0 1 7.64969,8.18006 Z m 3.00699,1.57011 1.30362,0 a 0.572751,0.572751 0 0 1 0.57095,0.57095 l 0,2.57877 a 0.572751,0.572751 0 0 1 -0.57095,0.57095 l -1.30362,0 a 0.572751,0.572751 0 0 1 -0.57095,-0.57095 l 0,-2.57877 a 0.572587,0.572587 0 0 1 0.57095,-0.57095 z m 3.08309,-3.72067 1.29414,0 a 0.572751,0.572751 0 0 1 0.57095,0.57095 l 0,6.29944 a 0.572751,0.572751 0 0 1 -0.57095,0.57095 l -1.29414,0 a 0.572751,0.572751 0 0 1 -0.57095,-0.57095 l 0,-6.29944 A 0.572587,0.572587 0 0 1 13.73977,6.0295 Z"/>
</svg>
