<?xml version="1.0" encoding="UTF-8"?>
<svg width="59px" height="72px" viewBox="0 0 59 72" version="1.1" xmlns="http://www.w3.org/2000/svg" xmlns:xlink="http://www.w3.org/1999/xlink">
    <!-- Generator: sketchtool 49.2 (51160) - http://www.bohemiancoding.com/sketch -->
    <title>288B5A3C-8941-47CE-8491-21B45238F95F</title>
    <desc>Created with sketchtool.</desc>
    <defs></defs>
    <g id="Symbols" stroke="none" stroke-width="1" fill="none" fill-rule="evenodd">
        <g id="Fields-above-the-fold" transform="translate(-1015.000000, -146.000000)">
            <g id="icon-hadash" transform="translate(1015.000000, 147.000000)">
                <path d="M5.85836728,69.5130357 L5.34533159,70.371403 L3.62859703,69.3453316 L4.14163272,68.4869643 C9.83456704,58.9620353 20.1368555,53 31.4729094,53 C42.1630204,53 51.954651,58.2970991 57.8275661,66.9549205 L58.3889344,67.7824866 L56.7338021,68.9052231 L56.1724339,68.0776569 C50.6681932,59.9633336 41.4935245,55 31.4729094,55 C20.8472093,55 11.1935488,60.5866679 5.85836728,69.5130357 Z" id="Stroke-1" fill="#4A4A4A" fill-rule="nonzero"></path>
                <path d="M36.8181624,24.8184368 C38.9117436,22.7247634 41.6034658,21.2446352 44.7427333,20.29014 C48.6120015,19.113688 52.6557798,18.8386517 56.1769412,19.0647574 C56.5602675,19.0893721 56.8356245,19.1143884 56.9884807,19.1319095 C57.4505669,19.1848762 57.8151293,19.5494387 57.868096,20.0115248 C57.8856164,20.1643751 57.9106317,20.4397214 57.9352454,20.8230331 C58.1613553,24.3442751 57.8862864,28.3881682 56.7097317,32.2575499 C55.7552727,35.396517 54.2752705,38.0880381 52.1818376,40.1815632 C50.0882564,42.2752366 47.3965342,43.7553648 44.2572667,44.70986 C40.3879985,45.886312 36.3442202,46.1613483 32.8230588,45.9352426 C32.4397325,45.9106279 32.1643755,45.8856116 32.0115193,45.8680905 C31.5494331,45.8151238 31.1848707,45.4505613 31.131904,44.9884752 C31.1143836,44.8356249 31.0893683,44.5602786 31.0647546,44.1769669 C30.8386447,40.6557249 31.1137136,36.6118318 32.2902683,32.7424501 C33.2447273,29.603483 34.7247295,26.9119619 36.8181624,24.8184368 Z M45.3245355,22.2036463 C42.4792209,23.068765 40.0730976,24.3918477 38.2324071,26.2326193 C36.3918304,28.073277 35.0688534,30.4792333 34.2037652,33.324283 C33.1197959,36.8891754 32.8540763,40.6672087 33.0541935,43.9458019 C36.3327224,44.1459195 40.1106637,43.8802324 43.6754645,42.7963537 C46.5207791,41.931235 48.9269024,40.6081523 50.7675929,38.7673807 C52.6081696,36.926723 53.9311466,34.5207667 54.7962348,31.675717 C55.8802041,28.1108246 56.1459237,24.3327913 55.9458065,21.0541981 C52.6672776,20.8540805 48.8893363,21.1197676 45.3245355,22.2036463 Z" id="Stroke-3" fill="#4A4A4A" fill-rule="nonzero"></path>
                <path d="M56.3832026,19.212878 C56.8179181,18.8722302 57.4464742,18.9484872 57.787122,19.3832026 C58.1277698,19.8179181 58.0515128,20.4464742 57.6167974,20.787122 C57.5679969,20.8253626 57.4720097,20.901031 57.3319866,21.0121167 C57.0977088,21.1979782 56.8256883,21.4152424 56.5190768,21.6618976 C55.6421088,22.3673791 54.6645299,23.1663372 53.6115729,24.0426582 C50.6035476,26.5460801 47.5957888,29.1663102 44.790844,31.7735654 C43.2421846,33.2130768 41.7973669,34.6105319 40.4759856,35.9531896 C36.7137656,39.7759872 34.0855323,43.0182292 32.8978633,45.4402744 C32.6547065,45.9361506 32.0556018,46.1410201 31.5597256,45.8978633 C31.0638494,45.6547065 30.8589799,45.0556018 31.1021367,44.5597256 C32.409053,41.8944964 35.1480032,38.5156718 39.0505228,34.5503154 C40.3939448,33.1852623 41.8598376,31.7674229 43.429195,30.3086722 C46.2636167,27.6740176 49.2980362,25.0305619 52.3321893,22.5053951 C53.3939947,21.6217101 54.3801238,20.8157641 55.2654578,20.1035525 C55.575652,19.8540151 55.8512039,19.6339304 56.0889713,19.4453004 C56.2321753,19.3316912 56.3313001,19.2535494 56.3832026,19.212878 Z" id="Stroke-5" fill="#4A4A4A" fill-rule="nonzero"></path>
                <g id="Group-10" transform="translate(31.000000, 27.000000)">
                    <path d="M0.8306,0.744165217 L0.8306,25.2101652" id="Fill-7" fill="#EAF9DE"></path>
                    <polygon id="Stroke-9" fill="#4A4A4A" fill-rule="nonzero" points="-0.1694 -0.255834783 1.8306 -0.255834783 1.8306 26.2101652 -0.1694 26.2101652"></polygon>
                </g>
                <path d="M25.2898827,4.62846706 C33.745184,12.0976282 31.80894,28.0256666 31.80894,28.0256666 C31.80894,28.0256666 16.1651941,31.841254 7.70989272,24.3709907 C-0.744302213,16.9018296 1.19083546,0.974893349 1.19083546,0.974893349 C1.19083546,0.974893349 16.8345813,-2.84179618 25.2898827,4.62846706" id="Fill-11" fill="#EAF9DE"></path>
                <path d="M30.906848,26.8724504 C31.1699831,23.0637542 30.9497807,18.7487161 29.8848295,14.6899711 C28.8587836,10.7795024 27.1405267,7.59756566 24.6278325,5.37792657 C22.3281975,3.34619781 19.300537,2.0665745 15.7076479,1.4430083 C11.9244201,0.786407752 7.85200233,0.895400108 3.96722316,1.47644537 C3.28226049,1.57889503 2.661912,1.68838006 2.11731968,1.79767718 C2.10935572,1.89906757 2.10121099,2.00907088 2.09304225,2.12737221 C1.83005513,5.93600911 2.05040573,10.2512323 3.1155429,14.3101958 C4.14161859,18.220306 5.85970843,21.4020078 8.37199777,23.6215797 C10.6715898,25.6532705 13.6992662,26.9329877 17.29217,27.5567158 C21.0756643,28.2135305 25.148355,28.1047107 29.033297,27.5238277 C29.7179979,27.42145 30.3381117,27.3120429 30.8825052,27.2028227 C30.8904903,27.1012379 30.8986571,26.9910083 30.906848,26.8724504 Z M31.8193463,14.1823842 C32.9483715,18.4853278 33.1789287,23.0032779 32.9020919,27.0102977 C32.8805466,27.3221518 32.8573886,27.5994707 32.8341212,27.8393323 C32.8198933,27.9860074 32.8085637,28.0893195 32.8016322,28.1463402 C32.7513932,28.5596186 32.4503623,28.8985356 32.0458985,28.9971864 C31.9083089,29.0307451 31.6570433,29.0869607 31.3034991,29.158202 C30.720838,29.2756115 30.0589076,29.3927098 29.3290525,29.5018389 C25.2501304,30.1117262 20.9749333,30.2259568 16.9500864,29.5272434 C13.0184782,28.8447161 9.65324079,27.422321 7.04779388,25.1204073 C4.20397815,22.6079365 2.30004438,19.0820735 1.18104109,14.8178401 C0.0518237355,10.5146836 -0.178887892,5.99655576 0.0977932022,1.98959987 C0.119313344,1.67794049 0.142444255,1.40079779 0.165684432,1.16109089 C0.179895854,1.01450956 0.191212293,0.91126394 0.198135964,0.854279431 C0.248349757,0.441000369 0.54935736,0.102066414 0.953812354,0.00338933544 C1.09143981,-0.0301883809 1.34277404,-0.0864359756 1.69641304,-0.157717906 C2.27923125,-0.275194789 2.94133498,-0.3923602 3.67137468,-0.501552021 C7.75013528,-1.11161103 12.0250627,-1.22602326 16.0496466,-0.527533975 C19.9812557,0.154819003 23.3464991,1.57711633 25.9519603,3.87903179 C28.7962443,6.39159931 30.7003719,9.91774578 31.8193463,14.1823842 Z" id="Stroke-13" fill="#4A4A4A" fill-rule="nonzero"></path>
                <g id="Group-18" transform="translate(1.000000, 1.000000)">
                    <path d="M0.190871429,0.295456 C0.190871429,0.295456 20.8501571,11.171776 30.8288357,27.784736" id="Fill-15" fill="#EAF9DE"></path>
                    <path d="M-0.274976016,1.18032105 C-0.763673489,0.923040612 -0.951274062,0.318306029 -0.693993622,-0.170391444 C-0.436713183,-0.659088918 0.1680214,-0.84668949 0.656718873,-0.589409051 C0.73230675,-0.549614939 0.873689523,-0.473529242 1.07649294,-0.361860448 C1.4112861,-0.177514691 1.79872671,0.0409854608 2.23444208,0.292934426 C3.47588995,1.01079182 4.85777356,1.85388869 6.34513428,2.81663164 C10.5933459,5.5664258 14.8414319,8.72674561 18.8100634,12.2545619 C24.121506,16.9760367 28.5175936,21.9947852 31.6860803,27.2698266 C31.9704569,27.7432698 31.8171882,28.357604 31.3437451,28.6419806 C30.8703019,28.9263572 30.2559677,28.7730885 29.9715911,28.2996454 C26.9181105,23.2160714 22.6520158,18.3457281 17.4813055,13.7493537 C13.5947063,10.294458 9.42647365,7.19354421 5.25836671,4.49560045 C3.80001592,3.55163513 2.44659599,2.72590414 1.23328426,2.02431625 C0.809833779,1.77945936 0.434545511,1.56781261 0.111813786,1.3901082 C-0.0798977345,1.28454689 -0.210291916,1.21437474 -0.274976016,1.18032105 Z" id="Stroke-17" fill="#4A4A4A" fill-rule="nonzero"></path>
                </g>
                <g id="Group-22" transform="translate(20.000000, 1.000000)">
                    <path d="M0.0659,0.848342857 L2.0449,15.9569143" id="Fill-19" fill="#EAF9DE"></path>
                    <polygon id="Stroke-21" fill="#4A4A4A" fill-rule="nonzero" points="-0.925630265 0.978218696 1.05743026 0.718467018 3.03643026 15.8270384 1.05336974 16.0867901"></polygon>
                </g>
                <g id="Group-26" transform="translate(0.000000, 10.000000)">
                    <path d="M0.999423077,0.8829 L15.4917308,0.8829" id="Fill-23" fill="#EAF9DE"></path>
                    <polygon id="Stroke-25" fill="#4A4A4A" fill-rule="nonzero" points="0.999423077 1.8829 0.999423077 -0.1171 15.4917308 -0.1171 15.4917308 1.8829"></polygon>
                </g>
                <g id="Group-30" transform="translate(5.000000, 22.000000)">
                    <path d="M22.1074905,0.6407 L0.917919048,1.2067" id="Fill-27" fill="#EAF9DE"></path>
                    <polygon id="Stroke-29" fill="#4A4A4A" fill-rule="nonzero" points="22.0807887 -0.358943445 22.1341922 1.64034345 0.944620776 2.20634345 0.891217319 0.207056555"></polygon>
                </g>
                <g id="Group-34" transform="translate(38.000000, 21.000000)">
                    <path d="M3.7114,0.732228571 L0.7774,15.2179429" id="Fill-31" fill="#EAF9DE"></path>
                    <polygon id="Stroke-33" fill="#4A4A4A" fill-rule="nonzero" points="2.01384435 1.83417771 3.98615565 2.16582229 1.76355565 15.3837651 -0.208755651 15.0521206"></polygon>
                </g>
                <g id="Group-38" transform="translate(45.000000, 29.000000)">
                    <path d="M1.40647273,0.9776 L12.5653818,0.6926" id="Fill-35" fill="#EAF9DE"></path>
                    <polygon id="Stroke-37" fill="#4A4A4A" fill-rule="nonzero" points="0.0255318052 2.28467401 -0.0255318052 0.28532599 11.1333773 0.000325989673 11.1844409 1.99967401"></polygon>
                </g>
            </g>
        </g>
    </g>
</svg>