<?xml version="1.0" encoding="UTF-8"?>
<svg width="77px" height="61px" viewBox="0 0 77 61" version="1.1" xmlns="http://www.w3.org/2000/svg" xmlns:xlink="http://www.w3.org/1999/xlink">
    <!-- Generator: sketchtool 49.2 (51160) - http://www.bohemiancoding.com/sketch -->
    <title>AD24021A-A080-46B7-A433-9E740B101339</title>
    <desc>Created with sketchtool.</desc>
    <defs></defs>
    <g id="Pages" stroke="none" stroke-width="1" fill="none" fill-rule="evenodd">
        <g id="Areas" transform="translate(-841.000000, -232.000000)">
            <g id="icon-shetach" transform="translate(842.000000, 233.000000)">
                <path d="M-1,11 C-1,10.4477153 -0.55228475,10 0,10 C0.55228475,10 1,10.4477153 1,11 L1,48 C1,48.5522847 0.55228475,49 0,49 C-0.55228475,49 -1,48.5522847 -1,48 L-1,11 Z" id="Stroke-1" fill="#4A4A4A" fill-rule="nonzero"></path>
                <path d="M74,12 L11,12 C10.4477153,12 10,11.5522847 10,11 C10,10.4477153 10.4477153,10 11,10 L75,10 C75.5522847,10 76,10.4477153 76,11 L76,59 C76,59.5522847 75.5522847,60 75,60 L11.010603,60 C10.4583183,60 10.010603,59.5522847 10.010603,59 C10.010603,58.4477153 10.4583183,58 11.010603,58 L74,58 L74,12 Z" id="Stroke-3" fill="#4A4A4A" fill-rule="nonzero"></path>
                <path d="M1,10.8621396 C1,11.4144243 0.55228475,11.8621396 0,11.8621396 C-0.55228475,11.8621396 -1,11.4144243 -1,10.8621396 C-1,4.30820475 4.37557559,-1 11,-1 C11.5522847,-1 12,-0.55228475 12,0 L12,37.2776229 C12,37.8299076 11.5522847,38.2776229 11,38.2776229 C5.47432782,38.2776229 1,42.6953406 1,48.1388114 C1,53.5822823 5.47432782,58 11,58 C11.5522847,58 12,58.4477153 12,59 C12,59.5522847 11.5522847,60 11,60 C4.37541858,60 -1,54.6925923 -1,48.1388114 C-1,41.9181733 3.84282,36.8204173 10,36.318231 L10,1.04868505 C4.94459255,1.54361542 1,5.75097897 1,10.8621396 Z" id="Stroke-5" fill="#4A4A4A" fill-rule="nonzero"></path>
                <polygon id="Fill-7" fill="#EAF9DE" points="26.2970589 35.859801 26.2970589 26.2477715 32.9352032 20 65 20 65 37.141151 58.3964995 46.9121592 42.4901662 46.9121592 36.3370356 53 26.2970589 53 17 43.803981"></polygon>
                <path d="M27.2970589,35.859801 C27.2970589,36.4120857 26.8493436,36.859801 26.2970589,36.859801 C25.7447741,36.859801 25.2970589,36.4120857 25.2970589,35.859801 L25.2970589,34.859801 C25.2970589,34.3075162 25.7447741,33.859801 26.2970589,33.859801 C26.8493436,33.859801 27.2970589,34.3075162 27.2970589,34.859801 L27.2970589,35.859801 Z M27.2970589,28.7218009 C27.2970589,29.2740857 26.8493436,29.7218009 26.2970589,29.7218009 C25.7447741,29.7218009 25.2970589,29.2740857 25.2970589,28.7218009 L25.2970589,27.7218009 C25.2970589,27.1695162 25.7447741,26.7218009 26.2970589,26.7218009 C26.8493436,26.7218009 27.2970589,27.1695162 27.2970589,27.7218009 L27.2970589,28.7218009 Z M30.378706,23.7794161 C29.9765354,24.1579359 29.3436608,24.1387633 28.9651409,23.7365928 C28.586621,23.3344222 28.6057937,22.7015476 29.0079642,22.3230277 L29.7361584,21.6376568 C30.1383289,21.2591369 30.7712036,21.2783096 31.1497234,21.6804801 C31.5282433,22.0826507 31.5090707,22.7155253 31.1069002,23.0940452 L30.378706,23.7794161 Z M35.6212751,21 C35.0689904,21 34.6212751,20.5522847 34.6212751,20 C34.6212751,19.4477153 35.0689904,19 35.6212751,19 L36.6212751,19 C37.1735599,19 37.6212751,19.4477153 37.6212751,20 C37.6212751,20.5522847 37.1735599,21 36.6212751,21 L35.6212751,21 Z M42.7592751,21 C42.2069904,21 41.7592751,20.5522847 41.7592751,20 C41.7592751,19.4477153 42.2069904,19 42.7592751,19 L43.7592751,19 C44.3115599,19 44.7592751,19.4477153 44.7592751,20 C44.7592751,20.5522847 44.3115599,21 43.7592751,21 L42.7592751,21 Z M49.8972751,21 C49.3449904,21 48.8972751,20.5522847 48.8972751,20 C48.8972751,19.4477153 49.3449904,19 49.8972751,19 L50.8972751,19 C51.4495599,19 51.8972751,19.4477153 51.8972751,20 C51.8972751,20.5522847 51.4495599,21 50.8972751,21 L49.8972751,21 Z M57.0352751,21 C56.4829904,21 56.0352751,20.5522847 56.0352751,20 C56.0352751,19.4477153 56.4829904,19 57.0352751,19 L58.0352751,19 C58.5875599,19 59.0352751,19.4477153 59.0352751,20 C59.0352751,20.5522847 58.5875599,21 58.0352751,21 L57.0352751,21 Z M64.1732752,21 C63.6209904,21 63.1732752,20.5522847 63.1732752,20 C63.1732752,19.4477153 63.6209904,19 64.1732752,19 L65.1732752,19 C65.7255599,19 66.1732752,19.4477153 66.1732752,20 C66.1732752,20.5522847 65.7255599,21 65.1732752,21 L64.1732752,21 Z M64,26.3112752 C64,25.7589904 64.4477153,25.3112752 65,25.3112752 C65.5522847,25.3112752 66,25.7589904 66,26.3112752 L66,27.3112752 C66,27.8635599 65.5522847,28.3112752 65,28.3112752 C64.4477153,28.3112752 64,27.8635599 64,27.3112752 L64,26.3112752 Z M64,33.4492752 C64,32.8969904 64.4477153,32.4492752 65,32.4492752 C65.5522847,32.4492752 66,32.8969904 66,33.4492752 L66,34.4492752 C66,35.0015599 65.5522847,35.4492752 65,35.4492752 C64.4477153,35.4492752 64,35.0015599 64,34.4492752 L64,33.4492752 Z M62.2418361,39.4364296 C62.551084,38.9788445 63.1727251,38.8585934 63.6303102,39.1678413 C64.0878954,39.4770892 64.2081465,40.0987302 63.8988986,40.5563154 L63.3389557,41.3848466 C63.0297078,41.8424317 62.4080668,41.9626828 61.9504816,41.6534349 C61.4928965,41.344187 61.3726454,40.722546 61.6818933,40.2649609 L62.2418361,39.4364296 Z M58.244964,45.3504855 C58.5542119,44.8929004 59.1758529,44.7726493 59.6334381,45.0818972 C60.0910232,45.3911451 60.2112743,46.0127861 59.9020264,46.4703712 L59.3420836,47.2989025 C59.0328356,47.7564876 58.4111946,47.8767387 57.9536095,47.5674908 C57.4960243,47.2582429 57.3757732,46.6366019 57.6850211,46.1790167 L58.244964,45.3504855 Z M52.4675437,45.9121592 C53.0198284,45.9121592 53.4675437,46.3598745 53.4675437,46.9121592 C53.4675437,47.464444 53.0198284,47.9121592 52.4675437,47.9121592 L51.4675437,47.9121592 C50.9152589,47.9121592 50.4675437,47.464444 50.4675437,46.9121592 C50.4675437,46.3598745 50.9152589,45.9121592 51.4675437,45.9121592 L52.4675437,45.9121592 Z M45.3295437,45.9121592 C45.8818284,45.9121592 46.3295437,46.3598745 46.3295437,46.9121592 C46.3295437,47.464444 45.8818284,47.9121592 45.3295437,47.9121592 L44.3295437,47.9121592 C43.7772589,47.9121592 43.3295437,47.464444 43.3295437,46.9121592 C43.3295437,46.3598745 43.7772589,45.9121592 44.3295437,45.9121592 L45.3295437,45.9121592 Z M38.731087,49.2246209 C39.1236886,48.8361851 39.7568446,48.8395622 40.1452804,49.2321638 C40.5337163,49.6247655 40.5303392,50.2579215 40.1377375,50.6463573 L39.4268694,51.3496825 C39.0342677,51.7381184 38.4011117,51.7347413 38.0126759,51.3421396 C37.6242401,50.949538 37.6276172,50.316382 38.0202188,49.9279462 L38.731087,49.2246209 Z M33.55621,52 C34.1084948,52 34.55621,52.4477153 34.55621,53 C34.55621,53.5522847 34.1084948,54 33.55621,54 L32.55621,54 C32.0039253,54 31.55621,53.5522847 31.55621,53 C31.55621,52.4477153 32.0039253,52 32.55621,52 L33.55621,52 Z M26.41821,52 C26.9704948,52 27.41821,52.4477153 27.41821,53 C27.41821,53.5522847 26.9704948,54 26.41821,54 L25.41821,54 C24.8659253,54 24.41821,53.5522847 24.41821,53 C24.41821,52.4477153 24.8659253,52 25.41821,52 L26.41821,52 Z M22.011596,47.3545615 C22.4042481,47.7429463 22.4077075,48.3761018 22.0193227,48.768754 C21.6309379,49.1614061 20.9977823,49.1648654 20.6051302,48.7764806 L19.8941707,48.0732477 C19.5015185,47.6848629 19.4980592,47.0517074 19.886444,46.6590553 C20.2748288,46.2664031 20.9079843,46.2629438 21.3006365,46.6513286 L22.011596,47.3545615 Z M18.4692351,43.8638928 C18.0493579,44.2226707 17.4181332,44.17314 17.0593553,43.7532629 C16.7005773,43.3333857 16.750108,42.702161 17.1699852,42.3433831 L17.93024,41.6937581 C18.3501172,41.3349802 18.9813419,41.3845109 19.3401198,41.804388 C19.6988978,42.2242652 19.6493671,42.8554899 19.2294899,43.2142678 L18.4692351,43.8638928 Z M23.8959342,39.2268699 C23.476057,39.5856479 22.8448323,39.5361172 22.4860544,39.11624 C22.1272764,38.6963628 22.1768071,38.0651382 22.5966843,37.7063602 L23.3569391,37.0567353 C23.7768163,36.6979573 24.408041,36.747488 24.7668189,37.1673652 C25.1255969,37.5872423 25.0760662,38.218467 24.656189,38.577245 L23.8959342,39.2268699 Z" id="Stroke-9" fill="#4A4A4A" fill-rule="nonzero"></path>
            </g>
        </g>
    </g>
</svg>