<?xml version="1.0" encoding="UTF-8"?>
<svg width="78px" height="78px" viewBox="0 0 78 78" version="1.1" xmlns="http://www.w3.org/2000/svg" xmlns:xlink="http://www.w3.org/1999/xlink">
    <!-- Generator: sketchtool 49.2 (51160) - http://www.bohemiancoding.com/sketch -->
    <title>CC18C1CD-48D6-476D-8C7E-BC0E46B26013</title>
    <desc>Created with sketchtool.</desc>
    <defs></defs>
    <g id="Symbols" stroke="none" stroke-width="1" fill="none" fill-rule="evenodd">
        <g id="Fields-above-the-fold" transform="translate(-476.000000, -152.000000)">
            <g id="above-the-fold">
                <g id="sum" transform="translate(128.000000, 140.000000)">
                    <g id="4" transform="translate(264.000000, 12.000000)">
                        <g id="icon-shnati" transform="translate(85.000000, 0.000000)">
                            <path d="M29.5802,62.7996864 L60.8190056,31.5608808 L43.7881917,14.5291436 L12.5494027,45.7688892 L29.5802,62.7996864 Z M9.72099726,45.7689108 L43.7882083,11.7006564 L63.6473944,31.5609192 L29.5802,65.6281136 L9.72099726,45.7689108 Z" id="Stroke-1" fill="#4A4A4A" fill-rule="nonzero"></path>
                            <g id="Group-24" transform="translate(0.000000, 0.560900)">
                                <path d="M32.467,33.8864 C30.138,36.2154 30.138,39.9914 32.467,42.3214 C34.796,44.6504 38.572,44.6504 40.902,42.3214 C43.231,39.9914 43.231,36.2154 40.902,33.8864 C38.572,31.5574 34.796,31.5574 32.467,33.8864" id="Fill-2" fill="#EAF9DE"></path>
                                <path d="M41.6091068,33.1792932 C44.3286058,35.8987922 44.3286058,40.3078401 41.608955,43.0286585 C38.8884401,45.7480058 34.4793922,45.7480058 31.7597415,43.028355 C29.0403942,40.3078401 29.0403942,35.8987922 31.7598932,33.1792932 C34.4793922,30.4597942 38.8884401,30.4597942 41.6091068,33.1792932 Z M33.1741068,34.5935068 C31.2356058,36.5320078 31.2356058,39.6749599 33.1741068,41.6142932 C35.1126078,43.5527942 38.2555599,43.5527942 40.1947415,41.614445 C42.1333942,39.6749599 42.1333942,36.5320078 40.195045,34.5936585 C38.2555599,32.6550058 35.1126078,32.6550058 33.1741068,34.5935068 Z" id="Stroke-4" fill="#4A4A4A" fill-rule="nonzero"></path>
                                <path d="M59.2849188,26.6368053 L63.6474016,30.999288 L59.076412,35.5717255 L58.3691932,34.8645068 C56.3196689,32.8149825 56.3196689,29.4918175 58.3759593,27.4355912 C58.4404261,27.3723408 58.4847199,27.3363882 58.5653023,27.2752644 C58.5811013,27.2631121 58.585419,27.2598216 58.5857167,27.2597308 L59.2849188,26.6368053 Z M58.580094,27.2647402 L58.5857167,27.2597308 C58.5859887,27.2596478 58.5829057,27.2622351 58.580094,27.2647402 Z M59.1871263,32.6321011 L60.8191984,30.999512 L59.296967,29.4772806 C58.7161546,30.4401386 58.679541,31.6394337 59.1871263,32.6321011 Z M59.7690806,28.8706258 C59.7721537,28.8675545 59.7768918,28.8629176 59.7834068,28.8565068 C59.7802913,28.8596222 59.7771835,28.8627424 59.7740834,28.8658674 L59.7690806,28.8706258 Z" id="Stroke-6" fill="#4A4A4A" fill-rule="nonzero"></path>
                                <path d="M34.0202947,60.7814188 L29.6577,65.1440136 L25.0850601,60.5713736 L25.7930196,59.8642671 C27.8434817,57.8162755 31.1651536,57.8162755 33.2148068,59.8646932 C33.28449,59.9343764 33.3229582,59.9820702 33.3875287,60.0685208 C33.3933031,60.0761119 33.6042251,60.3137445 34.0202947,60.7814188 Z M33.3923598,60.076594 L33.4003136,60.0855216 C33.4012819,60.0870128 33.3968409,60.0816237 33.3923598,60.076594 Z M28.0252644,60.6831509 L29.6577,62.3155864 L31.1802253,60.7930611 C30.2174387,60.2124947 29.0183036,60.175838 28.0252644,60.6831509 Z M31.7861245,61.2643153 C31.7893463,61.2675657 31.7941838,61.2724973 31.8008064,61.2791199 C31.7980128,61.276328 31.7952153,61.2735421 31.792414,61.2707625 L31.7861245,61.2643153 Z" id="Stroke-8" fill="#4A4A4A" fill-rule="nonzero"></path>
                                <path d="M14.1675295,49.6544431 L9.79707446,45.283988 L14.369512,40.7129984 L15.0765068,41.4199932 C17.1260311,43.4695175 17.1260311,46.7916825 15.0765068,48.8412068 C15.00995,48.9077636 14.9638049,48.94545 14.8817561,49.0077055 C14.8691177,49.0174479 14.8651186,49.0205216 14.8639948,49.0212928 L14.1675295,49.6544431 Z M14.2584318,43.6520227 L12.6257255,45.284212 L14.1483797,46.8068661 C14.7295847,45.8439864 14.7662687,44.64474 14.2584318,43.6520227 Z M13.6707732,47.4184825 C13.6679529,47.4213233 13.6651262,47.4241602 13.6622932,47.4269932 C13.667993,47.4212935 13.6722733,47.4170843 13.6751013,47.4142667 L13.6707732,47.4184825 Z" id="Stroke-10" fill="#4A4A4A" fill-rule="nonzero"></path>
                                <path d="M39.4175495,15.5096113 L43.7881183,11.1405047 L48.3592136,15.7116 L47.6521068,16.4187068 C45.6025825,18.4682311 42.2804175,18.4682311 40.2308932,16.4187068 C40.1643364,16.35215 40.12665,16.3060049 40.0643945,16.2239561 C40.0546521,16.2113177 40.0515784,16.2073186 40.0508072,16.2061948 L39.4175495,15.5096113 Z M40.0590599,16.2152728 L40.0508072,16.2061948 C40.0495661,16.2043862 40.0542877,16.2100234 40.0590599,16.2152728 Z M45.4199059,15.6007195 L43.7878817,13.9686953 L42.2653923,15.4906753 C43.2281897,16.0717553 44.4272764,16.1084367 45.4199059,15.6007195 Z M41.6578333,15.0173013 C41.6550157,15.0144733 41.6508065,15.010193 41.6451068,15.0044932 C41.6479398,15.0073262 41.6507767,15.0101529 41.6536175,15.0129732 L41.6578333,15.0173013 Z" id="Stroke-12" fill="#4A4A4A" fill-rule="nonzero"></path>
                                <path d="M12.5576146,65.2400402 C12.9587721,65.6196336 12.9762532,66.2525572 12.5966598,66.6537146 C12.2170664,67.0548721 11.5841428,67.0723532 11.1829854,66.6927598 C3.45802294,59.3830498 -0.9997,49.244708 -0.9997,38.3954 C-0.9997,16.8801153 16.4410153,-0.5606 37.9563,-0.5606 C38.5085847,-0.5606 38.9563,-0.11288475 38.9563,0.4394 C38.9563,0.99168475 38.5085847,1.4394 37.9563,1.4394 C17.5455847,1.4394 1.0003,17.9846847 1.0003,38.3954 C1.0003,48.6894126 5.22786471,58.3042981 12.5576146,65.2400402 Z" id="Stroke-14" fill="#4A4A4A" fill-rule="nonzero"></path>
                                <path d="M13.8022802,59.3672637 C13.9397639,58.8323649 14.4848376,58.5101964 15.0197363,58.6476802 C15.5546351,58.7851639 15.8768036,59.3302376 15.7393198,59.8651363 L13.7003198,67.7981363 C13.57193,68.2976542 13.0847037,68.6175918 12.5753046,68.5368787 L4.48430462,67.2548787 C3.93882475,67.1684487 3.5666913,66.6561845 3.65312131,66.1107046 C3.73955132,65.5652247 4.2518155,65.1930913 4.79729538,65.2795213 L11.9897509,66.419149 L13.8022802,59.3672637 Z" id="Stroke-16" fill="#4A4A4A" fill-rule="nonzero"></path>
                                <path d="M54.1762748,5.47810785 C53.684958,5.22586552 53.4911498,4.6230917 53.7433921,4.13177485 C53.9956345,3.640458 54.5984083,3.44664981 55.0897252,3.69889215 L55.979333,4.1556173 C56.4706499,4.40785964 56.664458,5.01063346 56.4122157,5.50195031 C56.1599734,5.99326716 55.5571996,6.18707534 55.0658827,5.93483301 L54.1762748,5.47810785 Z M60.0314874,9.2227565 C59.5963433,8.88265652 59.5192947,8.25419696 59.8593947,7.81905279 C60.1994947,7.38390863 60.8279543,7.3068601 61.2630984,7.64696009 L62.0509966,8.26276559 C62.4861408,8.60286558 62.5631893,9.23132514 62.2230893,9.6664693 C61.8829894,10.1016135 61.2545298,10.178662 60.8193856,9.83856201 L60.0314874,9.2227565 Z M65.0799809,13.9967884 C64.7160949,13.5813302 64.7579024,12.949547 65.1733605,12.5856611 C65.5888186,12.2217751 66.2206018,12.2635826 66.5844878,12.6790407 L67.2433616,13.4312941 C67.6072476,13.8467522 67.5654401,14.4785354 67.149982,14.8424214 C66.7345239,15.2063074 66.1027407,15.1644999 65.7388547,14.7490418 L65.0799809,13.9967884 Z M69.1665027,19.6659758 C68.8874937,19.1893497 69.0476939,18.5767864 69.52432,18.2977774 C70.000946,18.0187684 70.6135093,18.1789686 70.8925183,18.6555947 L71.3977089,19.5186025 C71.6767179,19.9952286 71.5165177,20.6077918 71.0398916,20.8868009 C70.5632656,21.1658099 69.9507023,21.0056097 69.6716932,20.5289836 L69.1665027,19.6659758 Z M72.0795229,25.9315878 C71.8950543,25.411021 72.1675158,24.8394769 72.6880826,24.6550084 C73.2086494,24.4705398 73.7801935,24.7430013 73.9646621,25.2635681 L74.2986719,26.2061377 C74.4831405,26.7267045 74.210679,27.2982485 73.6901122,27.4827171 C73.1695454,27.6671856 72.5980013,27.3947242 72.4135327,26.8741574 L72.0795229,25.9315878 Z M73.77105,32.7021216 C73.6889088,32.1559794 74.065056,31.6466552 74.6111982,31.564514 C75.1573404,31.4823729 75.6666646,31.85852 75.7488058,32.4046622 L75.8975355,33.3935401 C75.9796766,33.9396823 75.6035295,34.4490066 75.0573873,34.5311477 C74.5112451,34.6132888 74.0019208,34.2371417 73.9197797,33.6909995 L73.77105,32.7021216 Z M74.153666,39.6769286 C74.1751616,39.1250623 74.6399633,38.695112 75.1918296,38.7166077 C75.7436959,38.7381033 76.1736462,39.202905 76.1521505,39.7547713 L76.1132292,40.7540136 C76.0917335,41.3058798 75.6269319,41.7358302 75.0750656,41.7143345 C74.5231993,41.6928388 74.093249,41.2280372 74.1147446,40.6761709 L74.153666,39.6769286 Z M73.229318,46.5734997 C73.3542527,46.0355315 73.8916417,45.7007017 74.4296098,45.8256364 C74.967578,45.950571 75.3024079,46.48796 75.1774732,47.0259282 L74.9512589,48.0000058 C74.8263243,48.5379739 74.2889353,48.8728038 73.7509671,48.7478691 C73.2129989,48.6229344 72.8781691,48.0855455 73.0031038,47.5475773 L73.229318,46.5734997 Z M71.0213116,53.1592556 C71.2458813,52.6546896 71.8369626,52.4277077 72.3415287,52.6522774 C72.8460947,52.8768472 73.0730766,53.4679285 72.8485068,53.9724945 L72.4418874,54.8860921 C72.2173176,55.3906582 71.6262363,55.61764 71.1216703,55.3930703 C70.6171043,55.1685006 70.3901224,54.5774193 70.6146921,54.0728532 L71.0213116,53.1592556 Z M67.578965,59.2516325 C67.8951641,58.7988229 68.5185689,58.6880782 68.9713785,59.0042773 C69.4241881,59.3204764 69.5349328,59.9438812 69.2187337,60.3966908 L68.6462046,61.2165751 C68.3300054,61.6693848 67.7066007,61.7801295 67.253791,61.4639304 C66.8009814,61.1477313 66.6902367,60.5243265 67.0064358,60.0715169 L67.578965,59.2516325 Z M63.116325,64.516469 C63.5111715,64.1303153 64.1442972,64.137362 64.530451,64.5322085 C64.9166048,64.9270549 64.909558,65.5601807 64.5147116,65.9463344 L63.7997789,66.6455277 C63.4049325,67.0316815 62.7718067,67.0246347 62.3856529,66.6297883 C61.9994991,66.2349419 62.0065459,65.6018161 62.4013924,65.2156623 L63.116325,64.516469 Z M57.687708,68.9042158 C58.1481253,68.5992004 58.7686311,68.7251786 59.0736464,69.1855959 C59.3786618,69.6460132 59.2526836,70.266519 58.7922663,70.5715343 L57.958607,71.1238134 C57.4981897,71.4288288 56.877684,71.3028506 56.5726686,70.8424333 C56.2676533,70.382016 56.3936315,69.7615102 56.8540488,69.4564949 L57.687708,68.9042158 Z M51.5065933,72.1981474 C52.0165883,71.9861956 52.6018417,72.2278075 52.8137935,72.7378025 C53.0257452,73.2477975 52.7841334,73.8330509 52.2741384,74.0450027 L51.3507107,74.4287752 C50.8407157,74.640727 50.2554623,74.3991151 50.0435105,73.8891201 C49.8315588,73.3791251 50.0731706,72.7938717 50.5831656,72.5819199 L51.5065933,72.1981474 Z M44.971344,74.2199718 C45.5119289,74.1068948 46.0418266,74.4534585 46.1549036,74.9940434 C46.2679806,75.5346283 45.9214169,76.064526 45.380832,76.1776029 L44.4020165,76.382347 C43.8614315,76.4954239 43.3315339,76.1488603 43.2184569,75.6082754 C43.1053799,75.0676905 43.4519435,74.5377928 43.9925285,74.4247158 L44.971344,74.2199718 Z M38.0463442,74.9939722 C38.5985475,74.9844909 39.053883,75.424454 39.0633644,75.9766573 C39.0728457,76.5288607 38.6328826,76.9841961 38.0806793,76.9936775 L37.0808267,77.010845 C36.5286233,77.0203264 36.0732879,76.5803633 36.0638065,76.02816 C36.0543251,75.4759566 36.4942882,75.0206212 37.0464916,75.0111398 L38.0463442,74.9939722 Z M31.1138197,74.4645914 C31.6580987,74.5582869 32.0233688,75.0754673 31.9296733,75.6197463 C31.8359778,76.1640253 31.3187973,76.5292954 30.7745183,76.4355999 L29.7890141,76.2659492 C29.2447351,76.1722537 28.879465,75.6550733 28.9731605,75.1107943 C29.066856,74.5665153 29.5840365,74.2012452 30.1283154,74.2949407 L31.1138197,74.4645914 Z M24.410353,72.6404031 C24.9270297,72.8355023 25.1877198,73.4125105 24.9926206,73.9291872 C24.7975215,74.4458639 24.2205132,74.706554 23.7038365,74.5114548 L22.7683107,74.1581966 C22.251634,73.9630975 21.9909439,73.3860892 22.1860431,72.8694125 C22.3811422,72.3527359 22.9581505,72.0920458 23.4748272,72.2871449 L24.410353,72.6404031 Z" id="Stroke-20" fill="#4A4A4A" fill-rule="nonzero"></path>
                            </g>
                        </g>
                    </g>
                </g>
            </g>
        </g>
    </g>
</svg>