<?xml version="1.0" encoding="UTF-8"?>
<svg width="85px" height="52px" viewBox="0 0 85 52" version="1.1" xmlns="http://www.w3.org/2000/svg" xmlns:xlink="http://www.w3.org/1999/xlink">
    <!-- Generator: sketchtool 49.2 (51160) - http://www.bohemiancoding.com/sketch -->
    <title>D16B60E2-D12D-4757-854B-AAE0B0C43F26</title>
    <desc>Created with sketchtool.</desc>
    <defs></defs>
    <g id="Pages" stroke="none" stroke-width="1" fill="none" fill-rule="evenodd">
        <g id="Areas" transform="translate(-388.000000, -243.000000)">
            <g id="Group-2" transform="translate(336.000000, 239.000000)">
                <g id="Group-3-Copy-2" transform="translate(0.000000, 5.000000)">
                    <g id="icon-toshavim" transform="translate(53.000000, 0.000000)">
                        <path d="M0.9996,49.7005 C0.9996,50.2527847 0.55188475,50.7005 -0.000400000001,50.7005 C-0.55268475,50.7005 -1.0004,50.2527847 -1.0004,49.7005 L-1.0004,43.0035 C-1.0004,34.8850489 5.63748164,28.2475 13.7566,28.2475 C21.8742184,28.2475 28.5126,34.8855488 28.5126,43.0035 L28.5126,49.7005 C28.5126,50.2527847 28.0648847,50.7005 27.5126,50.7005 C26.9603153,50.7005 26.5126,50.2527847 26.5126,49.7005 L26.5126,43.0035 C26.5126,35.9901408 20.7696713,30.2475 13.7566,30.2475 C6.7420287,30.2475 0.9996,35.9896408 0.9996,43.0035 L0.9996,49.7005 Z" id="Stroke-1" fill="#4A4A4A" fill-rule="nonzero"></path>
                        <path d="M6.5162,12.7757 C2.8152,16.4767 2.8152,22.4777 6.5162,26.1787 C10.2172,29.8797 16.2182,29.8797 19.9192,26.1787 C23.6212,22.4777 23.6212,16.4767 19.9192,12.7757 C16.2182,9.0747 10.2172,9.0747 6.5162,12.7757" id="Fill-3" fill="#EAF9DE"></path>
                        <path d="M5.80909322,12.0685932 C9.90061751,7.97706893 16.5347825,7.97706893 20.6262113,12.0684977 C24.7188629,16.1600438 24.7188629,22.7943562 20.6263068,26.8858068 C16.5347825,30.9773311 9.90061751,30.9773311 5.80909322,26.8858068 C1.71756893,22.7942825 1.71756893,16.1601175 5.80909322,12.0685932 Z M7.22330678,13.4828068 C3.91283107,16.7932825 3.91283107,22.1611175 7.22330678,25.4715932 C10.5337825,28.7820689 15.9016175,28.7820689 19.2121887,25.4714977 C22.5235371,22.1610438 22.5235371,16.7933562 19.2120932,13.4828068 C15.9016175,10.1723311 10.5337825,10.1723311 7.22330678,13.4828068 Z" id="Stroke-5" fill="#4A4A4A" fill-rule="nonzero"></path>
                        <path d="M55.8873,49.7005 C55.8873,50.2527847 55.4395847,50.7005 54.8873,50.7005 C54.3350153,50.7005 53.8873,50.2527847 53.8873,49.7005 L53.8873,43.0035 C53.8873,34.8852153 60.5250153,28.2475 68.6433,28.2475 C76.7615847,28.2475 83.3993,34.8852153 83.3993,43.0035 L83.3993,49.7005 C83.3993,50.2527847 82.9515847,50.7005 82.3993,50.7005 C81.8470153,50.7005 81.3993,50.2527847 81.3993,49.7005 L81.3993,43.0035 C81.3993,35.9897847 75.6570153,30.2475 68.6433,30.2475 C61.6295847,30.2475 55.8873,35.9897847 55.8873,43.0035 L55.8873,49.7005 Z" id="Stroke-7" fill="#4A4A4A" fill-rule="nonzero"></path>
                        <path d="M61.403,12.7757 C57.702,16.4767 57.702,22.4777 61.403,26.1787 C65.105,29.8797 71.105,29.8797 74.806,26.1787 C78.507,22.4777 78.507,16.4767 74.806,12.7757 C71.105,9.0747 65.105,9.0747 61.403,12.7757" id="Fill-9" fill="#EAF9DE"></path>
                        <path d="M60.6958932,12.0685932 C64.7885071,7.97708485 71.4215984,7.97708485 75.5131068,12.0685932 C79.6046311,16.1601175 79.6046311,22.7942825 75.5131068,26.8858068 C71.4215984,30.9773152 64.7885071,30.9773152 60.6958932,26.8858068 C56.6043689,22.7942825 56.6043689,16.1601175 60.6958932,12.0685932 Z M62.1100113,25.4714977 C65.4214929,28.7820848 70.7884016,28.7820848 74.0988932,25.4715932 C77.4093689,22.1611175 77.4093689,16.7932825 74.0988932,13.4828068 C70.7884175,10.1723311 65.4215445,10.1723152 62.110059,13.4828545 C58.7996311,16.7933341 58.799647,22.1611334 62.1100113,25.4714977 Z" id="Stroke-11" fill="#4A4A4A" fill-rule="nonzero"></path>
                        <path d="M28.444,49.7005 C28.444,50.2527847 27.9962847,50.7005 27.444,50.7005 C26.8917153,50.7005 26.444,50.2527847 26.444,49.7005 L26.444,33.0035 C26.444,24.8848816 33.0810489,18.2475 41.2,18.2475 C49.3176184,18.2475 55.956,24.8855488 55.956,33.0035 L55.956,49.7005 C55.956,50.2527847 55.5082847,50.7005 54.956,50.7005 C54.4037153,50.7005 53.956,50.2527847 53.956,49.7005 L53.956,33.0035 C53.956,25.9901408 48.2130713,20.2475 41.2,20.2475 C34.1856408,20.2475 28.444,25.9894287 28.444,33.0035 L28.444,49.7005 Z" id="Stroke-13" fill="#4A4A4A" fill-rule="nonzero"></path>
                        <path d="M33.9596,2.7757 C30.2586,6.4767 30.2586,12.4777 33.9596,16.1787 C37.6606,19.8797 43.6616,19.8797 47.3626,16.1787 C51.0636,12.4777 51.0636,6.4767 47.3626,2.7757 C43.6616,-0.9253 37.6606,-0.9253 33.9596,2.7757" id="Fill-15" fill="#EAF9DE"></path>
                        <path d="M33.2524932,2.06859322 C37.3440175,-2.02293107 43.9781825,-2.02293107 48.0697068,2.06859322 C52.1612311,6.16011751 52.1612311,12.7942825 48.0697068,16.8858068 C43.9781825,20.9773311 37.3440175,20.9773311 33.2524932,16.8858068 C29.1609689,12.7942825 29.1609689,6.16011751 33.2524932,2.06859322 Z M34.6667068,3.48280678 C31.3562311,6.79328249 31.3562311,12.1611175 34.6667068,15.4715932 C37.9771825,18.7820689 43.3450175,18.7820689 46.6554932,15.4715932 C49.9659689,12.1611175 49.9659689,6.79328249 46.6554932,3.48280678 C43.3450175,0.172331073 37.9771825,0.172331073 34.6667068,3.48280678 Z" id="Stroke-17" fill="#4A4A4A" fill-rule="nonzero"></path>
                    </g>
                </g>
            </g>
        </g>
    </g>
</svg>