<?xml version="1.0" encoding="UTF-8"?>
<svg width="81px" height="88px" viewBox="0 0 81 88" version="1.1" xmlns="http://www.w3.org/2000/svg" xmlns:xlink="http://www.w3.org/1999/xlink">
    <!-- Generator: sketchtool 49.2 (51160) - http://www.bohemiancoding.com/sketch -->
    <title>B8638966-F935-40EE-8288-242F7F66C23B</title>
    <desc>Created with sketchtool.</desc>
    <defs></defs>
    <g id="Symbols" stroke="none" stroke-width="1" fill="none" fill-rule="evenodd">
        <g id="Fields-above-the-fold" transform="translate(-742.000000, -139.000000)">
            <g id="above-the-fold">
                <g id="sum" transform="translate(128.000000, 140.000000)">
                    <g id="icon-ovdim" transform="translate(615.000000, 0.000000)">
                        <path d="M5,71 C5,71.5522847 4.55228475,72 4,72 C3.44771525,72 3,71.5522847 3,71 L3,63.6404869 C3,56.6884726 8.62013901,51 15.5,51 C22.379861,51 28,56.6884726 28,63.6404869 L28,71 C28,71.5522847 27.5522847,72 27,72 C26.4477153,72 26,71.5522847 26,71 L26,63.6404869 C26,57.7876677 21.2698448,53 15.5,53 C9.73015519,53 5,57.7876677 5,63.6404869 L5,71 Z" id="Stroke-1" fill="#4A4A4A" fill-rule="nonzero"></path>
                        <path d="M10.3434247,38.3434247 C7.21885844,41.4679909 7.21885844,46.5329664 10.3434247,49.6565753 C13.4679909,52.7811416 18.5329664,52.7811416 21.6565753,49.6565753 C24.7811416,46.5329664 24.7811416,41.4679909 21.6565753,38.3434247 C18.5329664,35.2188584 13.4679909,35.2188584 10.3434247,38.3434247" id="Fill-3" fill="#EAF9DE"></path>
                        <path d="M9.63631789,37.6363179 C13.1514265,34.1212093 18.8496505,34.1212093 22.3636821,37.6363179 C25.8787907,41.1514265 25.8787907,46.8496505 22.3637904,50.3635738 C18.8496505,53.8787907 13.1514265,53.8787907 9.63642624,50.3637904 C6.12120931,46.8496505 6.12120931,41.1514265 9.63631789,37.6363179 Z M11.0505315,39.0505315 C8.31650757,41.7845553 8.31650757,46.2162823 11.0505315,48.9494685 C13.7845553,51.6834924 18.2162823,51.6834924 20.9495769,48.9493602 C23.6834924,46.2162823 23.6834924,41.7845553 20.9493602,39.0504231 C18.2162823,36.3165076 13.7845553,36.3165076 11.0505315,39.0505315 Z" id="Stroke-5" fill="#4A4A4A" fill-rule="nonzero"></path>
                        <path d="M31,35 C31,35.5522847 30.5522847,36 30,36 C29.4477153,36 29,35.5522847 29,35 L29,27.6404869 C29,20.6887864 34.6200417,15 41.5004741,15 C48.3801184,15 54,20.6889479 54,27.6404869 L54,35 C54,35.5522847 53.5522847,36 53,36 C52.4477153,36 52,35.5522847 52,35 L52,27.6404869 C52,21.7880859 47.2700435,17 41.5004741,17 C35.7300907,17 31,21.7879496 31,27.6404869 L31,35 Z" id="Stroke-7" fill="#4A4A4A" fill-rule="nonzero"></path>
                        <path d="M35.3434247,2.34342467 C32.2188584,5.46799091 32.2188584,10.5329664 35.3434247,13.6565753 C38.4679909,16.7811416 43.5329664,16.7811416 46.6565753,13.6565753 C49.7811416,10.5329664 49.7811416,5.46799091 46.6565753,2.34342467 C43.5329664,-0.781141558 38.4679909,-0.781141558 35.3434247,2.34342467" id="Fill-9" fill="#EAF9DE"></path>
                        <path d="M34.6363179,1.63631789 C38.1514265,-1.87879069 43.8496505,-1.87879069 47.3636821,1.63631789 C50.8787907,5.15142647 50.8787907,10.8496505 47.3637904,14.3635738 C43.8496505,17.8787907 38.1514265,17.8787907 34.6364262,14.3637904 C31.1212093,10.8496505 31.1212093,5.15142647 34.6363179,1.63631789 Z M36.0505315,3.05053146 C33.3165076,5.78455534 33.3165076,10.2162823 36.0505315,12.9494685 C38.7845553,15.6834924 43.2162823,15.6834924 45.9495769,12.9493602 C48.6834924,10.2162823 48.6834924,5.78455534 45.9493602,3.05042311 C43.2162823,0.316507572 38.7845553,0.316507572 36.0505315,3.05053146 Z" id="Stroke-11" fill="#4A4A4A" fill-rule="nonzero"></path>
                        <path d="M54,70 C54,70.5522847 53.5522847,71 53,71 C52.4477153,71 52,70.5522847 52,70 L52,62.6401152 C52,55.6884209 57.6197162,50 64.4995259,50 C71.3802838,50 77,55.6884209 77,62.6401152 L77,70 C77,70.5522847 76.5522847,71 76,71 C75.4477153,71 75,70.5522847 75,70 L75,62.6401152 C75,56.7875868 70.2702376,52 64.5004741,52 C58.7297624,52 54,56.7875868 54,62.6401152 L54,70 Z" id="Stroke-13" fill="#4A4A4A" fill-rule="nonzero"></path>
                        <path d="M58.3435298,37.3435298 C55.2188234,40.467279 55.2188234,45.533439 58.3435298,48.6571882 C61.467279,51.7809373 66.533439,51.7809373 69.6571882,48.6571882 C72.7809373,45.533439 72.7809373,40.467279 69.6571882,37.3435298 C66.533439,34.2188234 61.467279,34.2188234 58.3435298,37.3435298" id="Fill-15" fill="#EAF9DE"></path>
                        <path d="M70.3642949,36.6364231 C73.8785684,40.1506965 73.8785684,45.8500215 70.3642949,49.3642949 C66.8500215,52.8785684 61.1506965,52.8785684 57.6365314,49.3644033 C54.1211923,45.8501412 54.1211562,40.15073 57.636423,36.636423 C61.15073,33.1211562 66.8501412,33.1211923 70.3642949,36.6364231 Z M59.0507449,38.0505283 C56.3164906,40.783945 56.3164906,45.216773 59.0506366,47.9500814 C61.7838614,50.6833062 66.2168565,50.6833062 68.9500814,47.9500814 C71.6833062,45.2168565 71.6833062,40.7838614 68.9499731,38.0505283 C66.216773,35.3164906 61.783945,35.3164906 59.0507449,38.0505283 Z" id="Stroke-17" fill="#4A4A4A" fill-rule="nonzero"></path>
                        <path d="M22.5785344,8.09315559 C23.0793708,7.86038659 23.6740754,8.0776981 23.9068444,8.57853443 C24.1396134,9.07937077 23.9223019,9.6740754 23.4214656,9.90684441 L22.5146212,10.32831 C22.0137848,10.561079 21.4190802,10.3437675 21.1863112,9.84293113 C20.9535422,9.3420948 21.1708537,8.74739017 21.67169,8.51462116 L22.5785344,8.09315559 Z M16.3685926,11.6989493 C16.8192282,11.3796593 17.4433761,11.4861359 17.762666,11.9367714 C18.081956,12.3874069 17.9754794,13.0115549 17.5248439,13.3308448 L16.7088961,13.9089705 C16.2582606,14.2282604 15.6341127,14.1217838 15.3148227,13.6711483 C14.9955328,13.2205128 15.1020094,12.5963649 15.5526449,12.2770749 L16.3685926,11.6989493 Z M10.904263,16.3528096 C11.2914409,15.9589674 11.9245828,15.9535648 12.3184251,16.3407426 C12.7122674,16.7279205 12.71767,17.3610624 12.3304921,17.7549047 L11.6294446,18.4680193 C11.2422667,18.8618615 10.6091248,18.8672641 10.2152825,18.4800862 C9.82144019,18.0929084 9.81603762,17.4597664 10.2032155,17.0659242 L10.904263,16.3528096 Z M6.32113332,21.9176353 C6.63361911,21.4622552 7.25609744,21.3464164 7.71147759,21.6589022 C8.16685773,21.971388 8.28269649,22.5938663 7.9702107,23.0492464 L7.40440512,23.8737851 C7.09191933,24.3291653 6.469441,24.445004 6.01406086,24.1325182 C5.55868072,23.8200325 5.44284196,23.1975541 5.75532775,22.742174 L6.32113332,21.9176353 Z M2.80352229,28.1300595 C3.03334675,27.6278652 3.62676524,27.4070657 4.12895959,27.6368902 C4.63115393,27.8667146 4.85195336,28.4601331 4.6221289,28.9623275 L4.20599491,29.8716308 C3.97617045,30.3738251 3.38275196,30.5946246 2.88055761,30.3648001 C2.37836326,30.1349756 2.15756384,29.5415572 2.3873883,29.0393628 L2.80352229,28.1300595 Z M0.384814175,34.9068428 C0.525008939,34.3726482 1.07170954,34.0532482 1.60590414,34.193443 C2.14009874,34.3336378 2.45949872,34.8803384 2.31930396,35.414533 L2.06545888,36.3817779 C1.92526412,36.9159725 1.37856352,37.2353724 0.844368914,37.0951777 C0.310174311,36.9549829 -0.00922566498,36.4082823 0.130969099,35.8740877 L0.384814175,34.9068428 Z M-0.842387557,42.0163996 C-0.795102464,41.4661428 -0.310699036,41.0584037 0.239557781,41.1056888 C0.789814598,41.1529739 1.19755374,41.6373773 1.15026865,42.1876341 L1.06465141,43.1839622 C1.01736632,43.734219 0.532962893,44.1419582 -0.0172939246,44.0946731 C-0.567550742,44.047388 -0.975289886,43.5629846 -0.928004793,43.0127277 L-0.842387557,42.0163996 Z" id="Stroke-19" fill="#4A4A4A" fill-rule="nonzero"></path>
                        <path d="M79.8533198,48.0810384 C79.8085635,48.6315067 79.3260387,49.0414672 78.7755704,48.996711 C78.2251021,48.9519547 77.8151415,48.4694299 77.8598978,47.9189616 L77.9409362,46.9222506 C77.9856925,46.3717824 78.4682173,45.9618218 79.0186856,46.006578 C79.5691538,46.0513343 79.9791144,46.5338591 79.9343582,47.0843274 L79.8533198,48.0810384 Z M79.8240262,40.9150899 C79.8749507,41.4650218 79.4704253,41.9521122 78.9204934,42.0030367 C78.3705614,42.0539612 77.883471,41.6494358 77.8325465,41.0995038 L77.7403396,40.1037639 C77.6894151,39.553832 78.0939405,39.0667416 78.6438724,39.0158171 C79.1938044,38.9648926 79.6808948,39.3694181 79.7318193,39.91935 L79.8240262,40.9150899 Z M78.5310369,33.8322911 C78.6779055,34.3646896 78.3653717,34.9153442 77.8329733,35.0622127 C77.3005749,35.2090813 76.7499202,34.8965475 76.6030517,34.3641491 L76.3371227,33.4001565 C76.1902542,32.867758 76.5027879,32.3171034 77.0351864,32.1702349 C77.5675848,32.0233663 78.1182395,32.3359001 78.265108,32.8682985 L78.5310369,33.8322911 Z M76.0209984,27.1156771 C76.2592454,27.6139309 76.0484682,28.2109827 75.5502145,28.4492297 C75.0519607,28.6874767 74.4549089,28.4766995 74.2166619,27.9784458 L73.7852775,27.0762775 C73.5470306,26.5780237 73.7578077,25.9809719 74.2560615,25.7427249 C74.7543152,25.5044779 75.3513671,25.7152551 75.589614,26.2135088 L76.0209984,27.1156771 Z M72.3583747,20.9264023 C72.6803798,21.3751016 72.5776739,21.9998811 72.1289746,22.3218863 C71.6802752,22.6438915 71.0554957,22.5411855 70.7334906,22.0924862 L70.1504486,21.2800441 C69.8284434,20.8313448 69.9311493,20.2065653 70.3798487,19.8845601 C70.828548,19.562555 71.4533275,19.6652609 71.7753327,20.1139602 L72.3583747,20.9264023 Z M67.693479,15.4977407 C68.0885899,15.8836239 68.0960704,16.5167447 67.7101872,16.9118556 C67.324304,17.3069665 66.6911833,17.314447 66.2960724,16.9285638 L65.5806608,16.2298605 C65.1855499,15.8439773 65.1780694,15.2108565 65.5639526,14.8157456 C65.9498358,14.4206348 66.5829565,14.4131542 66.9780674,14.7990374 L67.693479,15.4977407 Z M62.1123024,10.9332572 C62.5689583,11.2438757 62.6873449,11.8658745 62.3767263,12.3225304 C62.0661078,12.7791862 61.444109,12.8975728 60.9874531,12.5869543 L60.1606046,12.0245296 C59.7039487,11.7139111 59.5855621,11.0919123 59.8961807,10.6352564 C60.2067992,10.1786006 60.828798,10.060214 61.2854539,10.3708325 L62.1123024,10.9332572 Z M55.7949884,7.4128487 C56.2994439,7.63766647 56.5261351,8.22885932 56.3013174,8.73331488 C56.0764996,9.23777044 55.4853068,9.46446167 54.9808512,9.2396439 L54.0674536,8.83257532 C53.562998,8.60775755 53.3363068,8.01656471 53.5611246,7.51210914 C53.7859424,7.00765358 54.3771352,6.78096236 54.8815908,7.00578012 L55.7949884,7.4128487 Z" id="Stroke-21" fill="#4A4A4A" fill-rule="nonzero"></path>
                        <path d="M13.3560315,77.606405 C12.933505,77.2507511 12.879294,76.6199111 13.234948,76.1973845 C13.5906019,75.774858 14.2214419,75.720647 14.6439685,76.076301 L15.4090205,76.7202695 C15.8315471,77.0759235 15.885758,77.7067634 15.530104,78.12929 C15.1744501,78.5518165 14.5436101,78.6060275 14.1210835,78.2503735 L13.3560315,77.606405 Z M19.2356406,81.7240486 C18.7568328,81.4488006 18.5918149,80.8375175 18.867063,80.3587096 C19.142311,79.8799018 19.7535941,79.7148839 20.2324019,79.9901319 L21.0993603,80.4885126 C21.5781681,80.7637606 21.743186,81.3750437 21.4679379,81.8538515 C21.1926899,82.3326594 20.5814068,82.4976772 20.102599,82.2224292 L19.2356406,81.7240486 Z M25.7569632,84.7268575 C25.2364566,84.5422192 24.9641815,83.9705863 25.1488198,83.4500797 C25.3334581,82.9295731 25.905091,82.657298 26.4255976,82.8419363 L27.3680582,83.1762535 C27.8885648,83.3608918 28.1608399,83.9325247 27.9762016,84.4530313 C27.7915633,84.9735379 27.2199305,85.245813 26.6994238,85.0611747 L25.7569632,84.7268575 Z M32.7542349,86.507748 C32.2087922,86.4210838 31.8368787,85.9086599 31.9235429,85.3632172 C32.010207,84.8177745 32.5226309,84.445861 33.0680736,84.5325251 L34.0556851,84.6894445 C34.6011278,84.7761087 34.9730413,85.2885325 34.8863771,85.8339753 C34.799713,86.379418 34.2872891,86.7513315 33.7418463,86.6646673 L32.7542349,86.507748 Z M39.8786079,86.9902761 C39.3264606,87.0025941 38.868871,86.5649759 38.856553,86.0128286 C38.844235,85.4606812 39.2818532,85.0030916 39.8340005,84.9907736 L40.8337518,84.9684699 C41.3858991,84.9561519 41.8434887,85.3937701 41.8558067,85.9459175 C41.8681247,86.4980648 41.4305065,86.9556544 40.8783592,86.9679724 L39.8786079,86.9902761 Z M47.006009,86.2251587 C46.4634086,86.3281304 45.9400689,85.9717408 45.8370973,85.4291403 C45.7341256,84.8865399 46.0905151,84.3632002 46.6331156,84.2602286 L47.6155807,84.0737818 C48.1581812,83.9708102 48.6815208,84.3271997 48.7844925,84.8698002 C48.8874642,85.4124007 48.5310746,85.9357403 47.9884741,86.038712 L47.006009,86.2251587 Z M53.9112481,84.3447396 C53.3915766,84.5317154 52.8187258,84.2620123 52.63175,83.7423407 C52.4447742,83.2226692 52.7144773,82.6498184 53.2341489,82.4628426 L54.1750974,82.1242929 C54.6947689,81.9373171 55.2676198,82.2070203 55.4545956,82.7266918 C55.6415714,83.2463634 55.3718682,83.8192142 54.8521967,84.00619 L53.9112481,84.3447396 Z M60.4613207,81.3299339 C59.9825442,81.6052365 59.3712423,81.4402883 59.0959397,80.9615118 C58.8206371,80.4827353 58.9855853,79.8714334 59.4643617,79.5961308 L60.3312633,79.0976514 C60.8100397,78.8223488 61.4213416,78.9872969 61.6966442,79.4660734 C61.9719468,79.9448499 61.8069987,80.5561518 61.3282222,80.8314544 L60.4613207,81.3299339 Z M66.2871889,77.1415096 C65.8761565,77.5103873 65.2439144,77.4762142 64.8750367,77.0651818 C64.5061589,76.6541494 64.540332,76.0219073 64.9513645,75.6530295 L65.6956045,74.9851173 C66.1066369,74.6162395 66.738879,74.6504127 67.1077568,75.0614451 C67.4766345,75.4724775 67.4424614,76.1047196 67.031429,76.4735974 L66.2871889,77.1415096 Z" id="Stroke-23" fill="#4A4A4A" fill-rule="nonzero"></path>
                    </g>
                </g>
            </g>
        </g>
    </g>
</svg>