<?xml version="1.0" encoding="UTF-8" standalone="no"?>
<svg
   xmlns:dc="http://purl.org/dc/elements/1.1/"
   xmlns:cc="http://creativecommons.org/ns#"
   xmlns:rdf="http://www.w3.org/1999/02/22-rdf-syntax-ns#"
   xmlns:svg="http://www.w3.org/2000/svg"
   xmlns="http://www.w3.org/2000/svg"
   version="1.1"
   viewBox="0 0 18 18"
   height="18"
   width="18"
   id="svg2">
  <metadata
     id="metadata10">
    <rdf:RDF>
      <cc:Work
         rdf:about="">
        <dc:format>image/svg+xml</dc:format>
        <dc:type
           rdf:resource="http://purl.org/dc/dcmitype/StillImage" />
        <dc:title></dc:title>
      </cc:Work>
    </rdf:RDF>
  </metadata>
  <defs
     id="defs8" />
  <path
     d="m 12.59124,7.8598437 c 0,-2.6087244 -2.123348,-4.7320731 -4.7320722,-4.7320731 -2.6087242,0 -4.732073,2.1233487 -4.732073,4.7320731 0,2.6087253 2.1233488,4.7320733 4.732073,4.7320733 2.6087242,0 4.7320722,-2.123348 4.7320722,-4.7320733 z m 5.408084,8.7881353 C 17.999324,17.387535 17.386859,18 16.647303,18 16.288342,18 15.939521,17.851954 15.696832,17.59845 l -3.622739,-3.6126 c -1.235748,0.855829 -2.7148581,1.309432 -4.2142492,1.309432 -4.1087913,0 -7.43611466,-3.327323 -7.43611466,-7.4361144 0,-4.1087913 3.32732336,-7.43611468 7.43611466,-7.43611468 4.1087912,0 7.4361142,3.32732338 7.4361142,7.43611468 0,1.5000668 -0.454279,2.9785014 -1.309432,4.2142494 l 3.62274,3.622739 C 17.851954,15.938845 18,16.287666 18,16.646627 Z"
     id="path4"
     style="fill:#ff5a5f;fill-opacity:1" />
</svg>
